{"glyphs":{"0":{"ha":825,"x_min":0,"x_max":0,"o":"m 46 469 b 413 -12 46 131 221 -12 b 779 469 604 -12 779 131 b 413 953 779 807 604 953 b 46 469 221 953 46 808 z m 314 469 b 413 754 314 576 314 754 b 511 469 511 754 511 576 b 413 188 511 343 511 188 b 314 469 314 188 314 343 z "},"1":{"ha":825,"x_min":0,"x_max":0,"o":"m 540 0 l 540 940 l 283 940 l 283 0 z "},"2":{"ha":825,"x_min":0,"x_max":0,"o":"m 771 211 l 467 211 b 592 376 511 264 554 321 b 700 663 624 425 700 529 b 392 953 700 844 565 953 b 88 844 244 953 149 883 l 88 622 b 317 742 146 683 224 742 b 450 596 393 742 450 685 b 275 261 450 467 358 358 b 57 18 204 178 125 83 l 57 0 l 771 0 z "},"3":{"ha":825,"x_min":0,"x_max":0,"o":"m 100 56 b 401 -12 174 19 301 -12 b 713 261 524 -12 713 54 b 569 492 713 407 621 464 b 697 701 635 528 697 615 b 382 953 697 793 613 953 b 125 893 272 953 189 919 l 125 713 b 317 778 179 749 250 778 b 435 669 389 778 435 724 b 299 560 435 632 403 560 l 263 560 l 263 408 l 293 408 b 450 283 392 407 450 353 b 315 174 450 232 406 174 b 100 267 228 174 146 228 z "},"4":{"ha":825,"x_min":0,"x_max":0,"o":"m 664 0 l 664 203 l 775 203 l 775 364 l 664 364 l 664 940 l 463 940 l 32 382 l 32 203 l 414 203 l 414 0 z m 181 364 l 414 665 l 414 364 z "},"5":{"ha":825,"x_min":0,"x_max":0,"o":"m 683 940 l 139 940 l 139 392 b 281 419 163 401 207 419 b 460 293 424 419 460 350 b 335 182 460 257 439 182 b 75 281 247 182 122 246 l 75 78 b 388 -12 167 15 276 -12 b 722 294 614 -12 722 136 b 407 585 722 447 603 585 b 347 581 383 585 364 582 l 347 742 l 683 742 z "},"6":{"ha":825,"x_min":0,"x_max":0,"o":"m 421 954 b 46 360 196 794 46 576 b 418 -12 46 171 171 -12 b 781 325 639 -12 781 151 b 476 631 781 511 640 631 b 414 624 450 631 429 628 b 653 878 474 714 561 800 z m 536 329 b 411 199 536 281 504 199 b 290 329 340 199 290 257 b 415 456 290 374 318 456 b 536 329 471 456 536 422 z "},"7":{"ha":825,"x_min":0,"x_max":0,"o":"m 374 -12 l 775 913 l 775 940 l 63 940 l 63 732 l 443 732 l 156 57 z "},"8":{"ha":825,"x_min":0,"x_max":0,"o":"m 197 485 b 46 253 104 439 46 349 b 413 -12 46 185 82 -12 b 779 253 736 -12 779 185 b 628 485 779 349 718 439 b 747 686 697 529 747 581 b 413 953 747 785 679 953 b 78 686 153 953 78 785 b 197 485 78 581 131 526 z m 413 543 b 315 668 364 543 315 592 b 415 794 315 718 338 794 b 510 668 490 794 510 711 b 413 543 510 592 461 543 z m 414 138 b 288 278 357 138 288 179 b 413 417 288 368 354 417 b 538 278 468 417 538 369 b 414 138 538 189 476 138 z "},"9":{"ha":825,"x_min":0,"x_max":0,"o":"m 404 -14 b 779 581 629 146 779 364 b 407 953 779 769 654 953 b 44 615 186 953 44 789 b 349 310 44 429 185 310 b 411 317 375 310 396 313 b 172 63 351 226 264 140 z m 289 611 b 414 742 289 660 321 742 b 535 611 485 742 535 683 b 410 485 535 567 507 485 b 289 611 354 485 289 518 z "}," ":{"ha":413,"x_min":0,"x_max":0,"o":""},"!":{"ha":419,"x_min":0,"x_max":0,"o":"m 211 310 b 265 343 243 311 254 321 b 356 744 301 415 356 631 b 211 953 356 904 271 953 b 64 744 151 953 64 904 b 157 343 64 631 121 417 b 211 310 168 321 179 311 z m 211 279 b 64 133 132 279 64 215 b 211 -12 64 53 132 -12 b 356 133 292 -12 356 53 b 211 279 356 214 292 279 z "},"\"":{"ha":694,"x_min":0,"x_max":0,"o":"m 33 940 l 33 776 l 78 576 l 264 576 l 308 776 l 308 940 z m 386 940 l 386 776 l 431 576 l 618 576 l 661 776 l 661 940 z "},"#":{"ha":926,"x_min":0,"x_max":0,"o":"m 256 710 l 50 710 l 50 563 l 225 563 l 186 378 l 50 378 l 50 231 l 156 231 l 101 -22 l 249 -22 l 301 231 l 525 231 l 471 -22 l 618 -22 l 671 231 l 876 231 l 876 378 l 701 378 l 740 563 l 876 563 l 876 710 l 771 710 l 825 963 l 678 963 l 625 710 l 401 710 l 454 963 l 308 963 z m 556 378 l 332 378 l 371 563 l 594 563 z "},"$":{"ha":868,"x_min":0,"x_max":0,"o":"m 476 -131 l 476 -12 b 783 263 707 11 783 156 b 476 569 783 442 628 518 l 476 756 b 747 619 603 726 706 654 l 747 821 b 476 924 653 879 579 910 l 476 983 l 372 983 l 372 924 b 72 654 117 893 72 732 b 372 376 72 564 106 443 l 372 150 b 85 283 265 164 168 217 l 85 90 b 372 -12 178 32 292 -3 l 372 -131 z m 476 350 b 582 244 550 319 582 294 b 476 149 582 174 514 157 z m 372 596 b 272 686 281 618 272 668 b 372 765 272 738 322 763 z "},"%":{"ha":1114,"x_min":0,"x_max":0,"o":"m 303 629 b 213 719 253 629 213 669 b 303 811 213 769 253 811 b 394 719 353 811 394 769 b 303 629 394 669 353 629 z m 303 953 b 71 721 174 953 71 850 b 303 488 71 592 174 488 b 536 721 432 488 536 592 b 303 953 536 850 432 953 z m 288 -25 l 965 953 l 828 953 l 149 -25 z m 810 440 b 578 208 681 440 578 338 b 810 -25 578 79 681 -25 b 1043 208 939 -25 1043 79 b 810 440 1043 338 939 440 z m 810 117 b 719 207 760 117 719 157 b 810 299 719 257 760 299 b 901 207 860 299 901 257 b 810 117 901 157 860 117 z "},"&":{"ha":1143,"x_min":0,"x_max":0,"o":"m 832 483 b 728 349 801 429 775 392 l 601 483 b 783 721 708 538 783 621 b 489 953 783 813 694 953 b 168 699 282 953 168 832 b 272 494 168 625 203 567 b 64 229 107 382 64 324 b 393 -12 64 110 164 -12 b 679 63 479 -12 592 4 l 739 0 l 1058 0 l 856 213 b 1058 483 935 283 1010 390 z m 490 599 b 404 722 450 640 404 685 b 497 797 404 751 426 797 b 594 715 569 797 594 750 b 490 599 594 646 515 610 z m 556 194 b 425 153 536 181 490 153 b 300 254 333 153 300 219 b 390 368 300 281 314 319 z "},"’":{"ha":419,"x_min":0,"x_max":0,"o":"m 49 440 b 368 739 283 472 368 622 b 193 953 368 836 315 953 b 49 811 110 953 49 885 b 156 678 49 746 82 699 b 49 483 158 606 142 518 z "},"(":{"ha":535,"x_min":0,"x_max":0,"o":"m 404 953 b 51 310 311 876 51 660 b 404 -326 51 -40 315 -258 l 583 -326 b 308 313 486 -221 308 -40 b 583 953 308 660 486 849 z "},")":{"ha":535,"x_min":0,"x_max":0,"o":"m 131 -326 b 483 317 224 -250 483 -33 b 131 953 483 667 219 885 l -49 953 b 226 314 49 847 226 667 b -49 -326 226 -33 49 -222 z "},"*":{"ha":782,"x_min":0,"x_max":0,"o":"m 363 679 b 335 658 350 674 346 671 l 183 775 b 125 804 153 799 146 804 b 53 650 88 804 53 699 b 129 606 53 604 96 606 l 315 607 b 326 571 317 590 319 586 l 171 463 b 125 411 126 432 125 424 b 265 297 125 371 226 297 b 315 365 293 297 300 321 l 372 538 b 392 535 375 538 385 535 b 411 538 399 535 408 538 l 464 367 b 514 294 478 319 490 294 b 654 411 542 294 654 363 b 600 468 654 419 654 431 l 454 571 b 465 607 463 585 464 590 l 647 607 b 729 650 694 607 729 607 b 713 731 729 682 717 719 b 649 801 686 799 665 801 b 594 771 632 801 629 797 l 449 658 b 418 679 436 669 433 672 l 479 856 b 493 910 482 865 493 893 b 394 953 493 953 413 953 b 290 907 344 953 290 947 b 306 850 290 897 292 892 z "},"+":{"ha":926,"x_min":0,"x_max":0,"o":"m 82 554 l 82 386 l 379 386 l 379 89 l 547 89 l 547 386 l 844 386 l 844 554 l 547 554 l 547 851 l 379 851 l 379 554 z "},",":{"ha":419,"x_min":0,"x_max":0,"o":"m 49 -233 b 368 65 283 -201 368 -51 b 193 279 368 163 315 279 b 49 138 110 279 49 211 b 156 4 49 72 82 25 b 49 -190 158 -68 142 -156 z "},"-":{"ha":681,"x_min":0,"x_max":0,"o":"m 118 463 l 118 236 l 563 236 l 563 463 z "},".":{"ha":390,"x_min":0,"x_max":0,"o":"m 197 279 b 50 133 118 279 50 215 b 197 -12 50 53 118 -12 b 342 133 278 -12 342 53 b 197 279 342 214 278 279 z "},"/":{"ha":735,"x_min":0,"x_max":0,"o":"m 532 953 l 21 -12 l 203 -12 l 714 953 z "},":":{"ha":390,"x_min":0,"x_max":0,"o":"m 196 703 b 50 556 122 703 50 643 b 194 410 50 475 115 410 b 340 557 275 410 340 475 b 196 703 340 640 272 703 z m 197 279 b 50 133 118 279 50 215 b 197 -12 50 53 118 -12 b 342 133 278 -12 342 53 b 197 279 342 214 278 279 z "},";":{"ha":419,"x_min":0,"x_max":0,"o":"m 49 -233 b 368 65 283 -201 368 -51 b 193 279 368 163 315 279 b 49 138 93 279 49 192 b 156 4 49 72 82 25 b 49 -190 158 -68 142 -156 z m 196 703 b 50 556 122 703 50 643 b 194 410 50 475 115 410 b 340 557 275 410 340 475 b 196 703 340 640 272 703 z "},";":{"ha":419,"x_min":0,"x_max":0,"o":"m 49 -233 b 368 65 283 -201 368 -51 b 193 279 368 163 315 279 b 49 138 93 279 49 192 b 156 4 49 72 82 25 b 49 -190 158 -68 142 -156 z m 196 703 b 50 556 122 703 50 643 b 194 410 50 475 115 410 b 340 557 275 410 340 475 b 196 703 340 640 272 703 z "},"<":{"ha":926,"x_min":0,"x_max":0,"o":"m 844 78 l 844 258 l 317 471 l 844 683 l 844 863 l 82 546 l 82 394 z "},"=":{"ha":926,"x_min":0,"x_max":0,"o":"m 82 717 l 82 549 l 844 549 l 844 717 z m 82 389 l 82 221 l 844 221 l 844 389 z "},">":{"ha":926,"x_min":0,"x_max":0,"o":"m 82 863 l 82 683 l 610 471 l 82 258 l 82 78 l 844 394 l 844 546 z "},"?":{"ha":535,"x_min":0,"x_max":0,"o":"m 50 743 l 61 743 b 142 761 83 753 104 761 b 226 692 215 761 226 714 b 178 564 226 660 193 600 b 151 438 174 554 151 494 b 165 335 151 417 156 361 b 215 307 171 319 188 307 b 267 353 249 307 267 324 b 365 535 267 400 313 489 b 492 756 472 629 492 672 b 243 953 492 849 418 953 b 114 932 186 953 147 942 z m 219 279 b 72 133 140 279 72 215 b 219 -12 72 53 140 -12 b 364 133 300 -12 364 53 b 219 279 364 214 300 279 z "},"@":{"ha":1335,"x_min":0,"x_max":0,"o":"m 1183 -28 b 725 -204 1140 -81 1033 -204 b 163 274 294 -204 163 56 b 721 831 163 449 250 831 b 1169 449 1071 831 1169 596 b 936 96 1169 239 1000 96 b 910 128 933 96 910 97 b 919 188 910 140 913 154 l 1019 665 l 843 665 l 828 592 b 650 682 774 678 686 682 b 292 246 415 682 292 424 b 546 -40 292 67 401 -40 b 728 36 650 -40 706 15 b 853 -40 740 -7 765 -40 b 1292 443 1107 -40 1292 196 b 724 953 1292 717 1088 953 b 40 281 250 953 40 606 b 385 -264 40 67 139 -168 b 736 -326 513 -314 639 -326 b 1325 -28 968 -326 1213 -256 z m 472 238 b 667 563 472 360 526 563 b 782 407 779 563 782 425 b 583 82 782 314 732 82 b 472 238 533 82 472 121 z "},"A":{"ha":1157,"x_min":0,"x_max":0,"o":"m 783 190 l 860 0 l 1150 0 l 736 940 l 422 940 l 7 0 l 297 0 l 375 190 z m 442 354 l 581 697 l 718 354 z "},"B":{"ha":1040,"x_min":0,"x_max":0,"o":"m 118 940 l 118 0 l 661 0 b 976 267 864 0 976 108 b 779 513 976 397 896 467 b 911 719 833 533 911 606 b 572 940 911 842 814 940 z m 461 782 b 646 669 575 782 646 767 b 463 557 646 572 581 557 l 401 557 l 401 782 z m 517 399 b 692 278 633 399 692 360 b 517 158 692 196 633 158 l 401 158 l 401 399 z "},"C":{"ha":1032,"x_min":0,"x_max":0,"o":"m 960 308 b 642 207 904 274 793 207 b 346 467 468 207 346 324 b 657 733 346 632 496 733 b 956 632 797 733 903 664 l 956 882 b 593 953 881 908 751 953 b 57 471 310 953 57 803 b 589 -12 57 183 257 -12 b 960 71 713 -12 836 7 z "},"D":{"ha":1142,"x_min":0,"x_max":0,"o":"m 118 940 l 118 0 l 611 0 b 908 79 638 0 800 -6 b 1085 453 971 128 1085 232 b 921 824 1085 625 1010 751 b 508 940 851 881 744 940 z m 401 751 l 522 751 b 796 465 624 751 796 715 b 522 194 796 215 624 194 l 401 194 z "},"E":{"ha":899,"x_min":0,"x_max":0,"o":"m 401 189 l 401 390 l 796 390 l 796 579 l 401 579 l 401 751 l 815 751 l 815 940 l 118 940 l 118 0 l 826 0 l 826 189 z "},"F":{"ha":864,"x_min":0,"x_max":0,"o":"m 118 940 l 118 0 l 401 0 l 401 381 l 792 381 l 792 569 l 401 569 l 401 751 l 792 751 l 792 940 z "},"G":{"ha":1110,"x_min":0,"x_max":0,"o":"m 986 885 b 604 953 922 906 793 953 b 210 833 478 953 344 939 b 57 472 100 747 57 597 b 589 -12 57 133 313 -12 b 853 18 690 -12 782 1 b 1004 67 910 32 949 46 l 1004 518 l 629 518 l 629 329 l 757 329 l 757 218 b 642 204 725 211 690 204 b 346 468 444 204 346 329 b 674 750 346 567 407 750 b 986 663 833 750 931 694 z "},"H":{"ha":1229,"x_min":0,"x_max":0,"o":"m 828 367 l 828 0 l 1111 0 l 1111 940 l 828 940 l 828 594 l 401 594 l 401 940 l 118 940 l 118 0 l 401 0 l 401 367 z "},"I":{"ha":522,"x_min":0,"x_max":0,"o":"m 119 940 l 119 0 l 403 0 l 403 940 z "},"J":{"ha":550,"x_min":0,"x_max":0,"o":"m 147 940 l 147 213 b 140 14 147 172 149 46 b -32 -65 122 -60 65 -62 l 11 -292 b 113 -301 40 -297 64 -301 b 431 117 411 -301 431 -82 l 431 940 z "},"K":{"ha":1113,"x_min":0,"x_max":0,"o":"m 118 940 l 118 0 l 401 0 l 401 440 l 761 0 l 1107 0 l 700 500 l 1050 940 l 742 940 l 401 519 l 401 940 z "},"L":{"ha":879,"x_min":0,"x_max":0,"o":"m 118 940 l 118 0 l 832 0 l 832 225 l 401 225 l 401 940 z "},"M":{"ha":1331,"x_min":0,"x_max":0,"o":"m 118 0 l 393 0 l 393 544 l 650 229 l 672 229 l 928 544 l 928 0 l 1211 0 l 1211 940 l 954 940 l 664 588 l 375 940 l 118 940 z "},"N":{"ha":1257,"x_min":0,"x_max":0,"o":"m 118 940 l 118 0 l 399 0 l 399 524 l 886 0 l 1139 0 l 1139 940 l 856 940 l 856 419 l 369 940 z "},"O":{"ha":1182,"x_min":0,"x_max":0,"o":"m 1124 471 b 590 953 1124 725 949 953 b 57 471 222 953 57 714 b 590 -12 57 228 222 -12 b 1124 471 946 -12 1124 213 z m 346 471 b 590 711 346 613 436 711 b 835 471 747 711 835 610 b 590 229 835 331 747 229 b 346 471 436 229 346 329 z "},"P":{"ha":971,"x_min":0,"x_max":0,"o":"m 118 940 l 118 0 l 401 0 l 401 353 l 588 353 b 932 644 850 353 932 519 b 588 940 932 769 850 940 z m 461 760 b 643 643 596 760 643 733 b 463 533 643 553 596 533 l 401 533 l 401 760 z "},"Q":{"ha":1182,"x_min":0,"x_max":0,"o":"m 1156 -53 b 828 26 1007 -54 892 -3 b 1124 471 979 89 1124 232 b 590 953 1124 714 960 953 b 57 471 222 953 57 714 b 367 22 57 215 224 74 b 503 -72 407 -17 447 -42 b 965 -249 647 -153 803 -214 l 1164 -68 z m 346 471 b 590 711 346 613 436 711 b 835 471 747 711 835 610 b 590 229 835 331 747 229 b 346 471 436 229 346 329 z "},"R":{"ha":1039,"x_min":0,"x_max":0,"o":"m 118 940 l 118 0 l 401 0 l 401 367 l 433 367 b 650 167 518 367 567 356 l 724 0 l 1028 0 l 933 204 b 778 414 860 364 831 382 b 932 649 817 433 932 489 b 600 940 932 756 853 940 z m 461 760 b 643 643 588 760 643 731 b 463 533 643 556 597 533 l 401 533 l 401 760 z "},"S":{"ha":850,"x_min":0,"x_max":0,"o":"m 735 874 b 419 953 715 886 596 953 b 81 681 188 953 81 826 b 349 378 81 513 217 433 b 492 260 425 346 492 315 b 376 190 492 250 489 190 b 89 293 251 190 142 260 l 89 63 b 419 -12 261 -12 393 -12 b 775 274 626 -12 775 94 b 463 592 775 438 650 503 b 354 689 383 629 354 650 b 454 760 354 722 376 760 b 735 653 575 760 681 690 z "},"T":{"ha":1067,"x_min":0,"x_max":0,"o":"m 47 940 l 47 711 l 392 711 l 392 0 l 675 0 l 675 711 l 1019 711 l 1019 940 z "},"U":{"ha":1201,"x_min":0,"x_max":0,"o":"m 104 940 l 104 421 b 601 -12 104 82 392 -12 b 1097 421 811 -12 1097 82 l 1097 940 l 814 940 l 814 493 b 601 224 814 299 722 224 b 388 494 478 224 388 300 l 388 940 z "},"V":{"ha":1049,"x_min":0,"x_max":0,"o":"m 11 940 l 426 -12 l 614 -12 l 1038 940 l 742 940 l 521 397 l 306 940 z "},"W":{"ha":1653,"x_min":0,"x_max":0,"o":"m 11 940 l 410 -12 l 575 -12 l 825 542 l 1069 -12 l 1233 -12 l 1640 940 l 1350 940 l 1146 419 l 926 940 l 724 940 l 500 419 l 304 940 z "},"X":{"ha":1186,"x_min":0,"x_max":0,"o":"m 25 940 l 406 489 l 7 0 l 365 0 l 451 106 b 585 279 486 149 507 175 b 715 118 621 229 704 132 l 815 0 l 1179 0 l 767 489 l 1132 940 l 776 940 l 703 851 b 585 690 660 800 622 746 b 451 861 540 749 483 822 l 388 940 z "},"Y":{"ha":1043,"x_min":0,"x_max":0,"o":"m 8 940 l 383 425 l 383 0 l 667 0 l 667 431 l 1035 940 l 735 940 l 518 644 l 303 940 z "},"Z":{"ha":1013,"x_min":0,"x_max":0,"o":"m 981 0 l 981 225 l 496 225 l 981 940 l 67 940 l 67 715 l 513 715 l 26 0 z "},"[":{"ha":622,"x_min":0,"x_max":0,"o":"m 111 940 l 111 -314 l 590 -314 l 590 -154 l 343 -154 l 343 781 l 590 781 l 590 940 z "},"\\":{"ha":735,"x_min":0,"x_max":0,"o":"m 21 953 l 532 -12 l 714 -12 l 203 953 z "},"]":{"ha":622,"x_min":0,"x_max":0,"o":"m 511 940 l 32 940 l 32 781 l 279 781 l 279 -154 l 32 -154 l 32 -314 l 511 -314 z "},"^":{"ha":917,"x_min":0,"x_max":0,"o":"m 364 940 l 88 389 l 328 389 l 460 722 l 590 389 l 829 389 l 553 940 z "},"_":{"ha":694,"x_min":0,"x_max":0,"o":"m -8 -104 l -8 -174 l 703 -174 l 703 -104 z "},"‘":{"ha":419,"x_min":0,"x_max":0,"o":"m 371 953 b 51 654 136 921 51 771 b 226 440 51 557 104 440 b 371 582 310 440 371 508 b 264 715 371 647 338 694 b 371 910 261 788 278 875 z "},"a":{"ha":793,"x_min":0,"x_max":0,"o":"m 72 421 b 346 547 133 482 228 547 b 454 440 446 547 454 492 b 311 390 428 426 417 424 b 49 161 161 343 49 296 b 254 -12 49 86 92 -12 b 468 61 374 -12 431 31 b 586 -12 476 36 493 -12 b 794 35 682 -12 746 15 l 794 163 b 732 143 782 157 756 143 b 699 218 706 143 699 169 l 699 485 b 397 703 699 617 603 703 b 72 608 279 703 164 674 z m 454 167 b 354 119 436 153 393 119 b 288 190 322 119 288 140 b 454 331 288 261 358 290 z "},"b":{"ha":885,"x_min":0,"x_max":0,"o":"m 76 0 l 321 0 l 321 63 b 522 -12 349 39 404 -12 b 836 340 661 -12 836 86 b 506 703 836 519 738 703 b 321 650 415 703 350 672 l 321 940 l 76 940 z m 321 483 b 444 528 342 497 390 528 b 579 346 510 528 579 472 b 444 171 579 189 479 171 b 321 219 383 171 344 197 z "},"c":{"ha":710,"x_min":0,"x_max":0,"o":"m 658 663 b 436 703 604 682 546 703 b 49 347 107 703 49 453 b 436 -12 49 242 107 -12 b 669 32 546 -12 614 13 l 669 224 b 472 182 611 206 529 182 b 306 347 399 182 306 229 b 472 508 306 467 399 508 b 658 471 529 508 614 485 z "},"d":{"ha":885,"x_min":0,"x_max":0,"o":"m 808 0 l 808 940 l 564 940 l 564 650 b 379 703 532 671 485 703 b 49 340 147 703 49 519 b 363 -12 49 86 224 -12 b 564 63 481 -12 536 39 l 564 0 z m 564 483 l 564 219 b 440 171 547 206 510 171 b 306 346 379 171 306 213 b 440 528 306 461 365 528 b 564 483 492 528 526 504 z "},"e":{"ha":828,"x_min":0,"x_max":0,"o":"m 786 335 b 444 703 786 613 599 703 b 49 349 181 703 49 549 b 444 -12 49 149 181 -12 b 768 61 628 -12 732 42 l 768 213 b 496 143 682 172 589 143 b 300 286 403 143 318 200 l 786 286 z m 293 407 b 429 553 293 494 350 553 b 557 407 511 553 557 494 z "},"f":{"ha":513,"x_min":0,"x_max":0,"o":"m 490 489 l 490 654 l 367 654 l 367 679 b 450 778 367 743 399 778 b 540 765 479 778 514 771 l 540 940 b 418 953 511 946 468 953 b 122 667 189 953 122 797 l 122 654 l 10 654 l 10 489 l 122 489 l 122 0 l 367 0 l 367 489 z "},"g":{"ha":782,"x_min":0,"x_max":0,"o":"m 772 690 l 393 690 b 54 426 206 690 54 613 b 244 204 54 297 156 226 b 139 88 161 189 139 124 b 199 0 139 50 165 13 b 35 -144 47 -19 35 -117 b 392 -326 35 -247 132 -326 b 746 -107 656 -326 746 -232 b 481 93 746 72 550 88 b 357 136 388 101 357 103 b 442 182 357 174 410 181 b 715 407 619 192 715 293 b 651 543 715 478 678 521 l 772 543 z m 267 424 b 388 542 267 474 306 542 b 503 426 442 542 503 499 b 381 314 503 365 451 314 b 267 424 310 314 267 365 z m 403 -57 b 551 -129 436 -57 551 -60 b 399 -210 551 -185 486 -210 b 243 -132 369 -210 243 -210 b 403 -57 243 -79 290 -57 z "},"h":{"ha":883,"x_min":0,"x_max":0,"o":"m 78 940 l 78 0 l 322 0 l 322 406 b 471 514 350 447 399 514 b 571 358 589 514 571 364 l 571 0 l 815 0 l 815 424 b 567 703 815 624 717 703 b 322 592 489 703 408 683 l 322 940 z "},"i":{"ha":425,"x_min":0,"x_max":0,"o":"m 90 690 l 90 0 l 335 0 l 335 690 z m 213 953 b 110 850 156 953 110 907 b 213 747 110 793 156 747 b 315 850 269 747 315 793 b 213 953 315 907 269 953 z "},"j":{"ha":425,"x_min":0,"x_max":0,"o":"m 90 690 l 90 74 b -12 -140 90 -64 79 -111 l 69 -326 b 335 -40 167 -326 335 -258 l 335 690 z m 213 953 b 110 850 156 953 110 907 b 213 747 110 793 156 747 b 315 850 269 747 315 793 b 213 953 315 907 269 953 z "},"k":{"ha":899,"x_min":0,"x_max":0,"o":"m 76 940 l 76 0 l 324 0 l 324 328 l 589 0 l 899 0 l 589 368 l 858 690 l 565 690 l 324 389 l 324 940 z "},"l":{"ha":425,"x_min":0,"x_max":0,"o":"m 90 940 l 90 0 l 335 0 l 335 940 z "},"m":{"ha":1375,"x_min":0,"x_max":0,"o":"m 1308 421 b 1060 703 1308 599 1229 703 b 792 568 943 703 865 651 b 565 703 747 671 654 703 b 322 592 464 703 393 667 l 322 690 l 78 690 l 78 0 l 322 0 l 322 406 b 469 514 351 443 392 514 b 571 368 550 514 571 454 l 571 0 l 815 0 l 815 406 b 964 514 833 432 883 514 b 1064 368 1032 514 1064 467 l 1064 0 l 1308 0 z "},"n":{"ha":883,"x_min":0,"x_max":0,"o":"m 78 690 l 78 0 l 322 0 l 322 406 b 471 514 344 435 389 514 b 571 358 576 514 571 403 l 571 0 l 815 0 l 815 406 b 567 703 815 468 824 703 b 322 592 476 703 400 675 l 322 690 z "},"o":{"ha":889,"x_min":0,"x_max":0,"o":"m 444 703 b 49 346 181 703 49 547 b 444 -12 49 144 181 -12 b 840 346 708 -12 840 144 b 444 703 840 547 708 703 z m 444 521 b 583 346 536 521 583 451 b 444 169 583 240 536 169 b 306 346 353 169 306 240 b 444 521 306 451 353 521 z "},"p":{"ha":885,"x_min":0,"x_max":0,"o":"m 76 690 l 76 -314 l 321 -314 l 321 40 b 506 -12 353 19 400 -12 b 836 350 738 -12 836 171 b 522 703 836 604 661 703 b 321 628 404 703 349 651 l 321 690 z m 321 207 l 321 471 b 444 519 338 485 375 519 b 579 344 506 519 579 478 b 444 163 579 229 519 163 b 321 207 393 163 358 186 z "},"q":{"ha":885,"x_min":0,"x_max":0,"o":"m 808 690 l 564 690 l 564 628 b 363 703 536 651 481 703 b 49 350 224 703 49 604 b 379 -12 49 171 147 -12 b 564 40 485 -12 532 19 l 564 -314 l 808 -314 z m 564 207 b 440 163 526 186 492 163 b 306 344 365 163 306 229 b 440 519 306 478 379 519 b 564 471 510 519 547 485 z "},"r":{"ha":685,"x_min":0,"x_max":0,"o":"m 76 690 l 76 0 l 321 0 l 321 297 b 482 461 369 431 419 461 b 594 408 525 461 557 444 l 685 653 b 539 703 642 679 603 703 b 321 524 421 703 343 585 l 321 690 z "},"s":{"ha":672,"x_min":0,"x_max":0,"o":"m 582 647 b 344 703 474 703 361 703 b 64 496 153 703 64 593 b 226 293 64 389 153 325 b 374 193 336 246 374 228 b 282 143 374 154 326 143 b 75 215 197 143 125 186 l 75 42 b 342 -12 146 15 228 -12 b 618 201 533 -12 618 83 b 397 431 618 307 563 367 b 308 499 314 463 308 479 b 382 547 308 511 318 547 b 582 478 479 547 554 493 z "},"t":{"ha":651,"x_min":0,"x_max":0,"o":"m 604 690 l 371 690 l 371 897 l 343 897 l 15 564 l 15 521 l 126 521 l 126 246 b 390 -12 126 81 208 -12 b 622 40 479 -12 578 18 l 622 231 b 469 182 568 203 522 182 b 371 300 371 182 371 242 l 371 521 l 604 521 z "},"u":{"ha":883,"x_min":0,"x_max":0,"o":"m 806 0 l 806 690 l 561 690 l 561 285 b 413 176 543 258 496 176 b 313 332 307 176 313 288 l 313 690 l 68 690 l 68 285 b 317 -12 68 222 60 -12 b 561 99 426 -12 497 29 l 561 0 z "},"v":{"ha":810,"x_min":0,"x_max":0,"o":"m 4 690 l 311 0 l 492 0 l 806 690 l 568 690 l 410 329 l 267 690 z "},"w":{"ha":1186,"x_min":0,"x_max":0,"o":"m 10 690 l 289 0 l 443 0 l 596 376 l 750 0 l 904 0 l 1176 690 l 932 690 l 810 342 l 674 690 l 518 690 l 383 342 l 257 690 z "},"x":{"ha":854,"x_min":0,"x_max":0,"o":"m 7 690 l 279 339 l 13 0 l 279 0 l 413 196 l 546 0 l 847 0 l 569 363 l 831 690 l 564 690 l 435 503 l 307 690 z "},"y":{"ha":810,"x_min":0,"x_max":0,"o":"m 18 690 l 292 90 l 101 -314 l 349 -314 l 818 690 l 581 690 l 421 347 l 281 690 z "},"z":{"ha":767,"x_min":0,"x_max":0,"o":"m 47 510 l 350 510 l 19 22 l 19 0 l 728 0 l 728 181 l 404 181 l 735 668 l 735 690 l 47 690 z "},"{":{"ha":535,"x_min":0,"x_max":0,"o":"m 514 -137 b 379 31 389 -137 379 -117 b 257 313 379 204 361 260 b 379 626 363 354 379 467 b 514 764 379 750 401 764 l 514 953 l 451 953 b 169 610 169 953 169 825 b 29 410 169 458 131 410 l 29 217 b 168 -12 136 217 168 165 b 451 -326 168 -211 182 -326 l 514 -326 z "},"|":{"ha":406,"x_min":0,"x_max":0,"o":"m 119 953 l 119 -326 l 288 -326 l 288 953 z "},"}":{"ha":535,"x_min":0,"x_max":0,"o":"m 21 764 b 156 596 146 764 156 743 b 278 314 156 422 174 367 b 156 0 172 272 156 160 b 21 -137 156 -124 133 -137 l 21 -326 l 83 -326 b 365 17 365 -326 365 -199 b 506 217 365 168 404 217 l 506 410 b 367 639 399 410 367 461 b 83 953 367 838 353 953 l 21 953 z "},"~":{"ha":926,"x_min":0,"x_max":0,"o":"m 82 339 b 292 440 165 418 240 440 b 428 397 317 440 349 436 b 628 333 538 343 578 333 b 844 429 685 333 757 353 l 844 601 b 643 501 822 582 742 501 b 488 551 599 501 563 515 b 304 608 371 608 332 608 b 82 513 193 608 110 536 z "},"¡":{"ha":419,"x_min":0,"x_max":0,"o":"m 208 317 b 154 283 176 315 165 306 b 64 -118 118 211 64 -4 b 208 -326 64 -278 149 -326 b 356 -118 268 -326 356 -278 b 263 283 356 -4 299 210 b 208 317 251 306 240 315 z m 208 347 b 356 493 288 347 356 411 b 208 639 356 574 288 639 b 64 493 128 639 64 574 b 208 347 64 413 128 347 z "},"¢":{"ha":724,"x_min":0,"x_max":0,"o":"m 668 663 b 619 679 653 668 636 675 l 692 906 l 610 906 l 543 696 b 447 703 529 699 497 703 b 60 339 129 703 60 471 b 322 1 60 190 143 50 l 240 -260 l 322 -260 l 400 -10 b 679 33 532 -21 618 11 l 679 221 b 458 175 638 203 540 163 l 565 511 b 668 478 594 507 638 493 z m 383 190 b 299 339 357 207 299 242 b 489 521 299 426 363 521 z "},"£":{"ha":796,"x_min":0,"x_max":0,"o":"m 60 381 l 143 381 l 136 358 b 92 176 117 297 106 239 b 54 -12 78 114 69 67 b 324 11 143 1 207 11 b 457 0 381 11 400 8 b 611 -12 507 -7 557 -12 b 728 7 678 -12 704 -1 l 728 224 b 635 199 706 210 689 199 b 539 211 600 199 585 200 b 443 222 506 219 481 222 b 361 210 413 222 401 219 l 406 381 l 569 381 l 569 560 l 463 560 b 663 751 494 646 535 751 b 768 731 708 751 740 740 l 667 942 b 592 953 647 947 629 953 b 335 831 507 953 415 922 b 194 560 272 760 250 704 l 60 560 z "},"⁄":{"ha":143,"x_min":0,"x_max":0,"o":"m 322 953 l -321 -33 l -181 -33 l 463 953 z "},"∕":{"ha":143,"x_min":0,"x_max":0,"o":"m 322 953 l -321 -33 l -181 -33 l 463 953 z "},"¥":{"ha":1043,"x_min":0,"x_max":0,"o":"m 746 542 l 1035 940 l 735 940 l 543 644 l 351 940 l 8 940 l 299 542 l 51 542 l 51 425 l 383 425 l 383 289 l 51 289 l 51 172 l 383 172 l 383 0 l 665 0 l 665 172 l 992 172 l 992 289 l 665 289 l 665 425 l 992 425 l 992 542 z "},"ƒ":{"ha":825,"x_min":0,"x_max":0,"o":"m -22 -294 b 136 -314 19 -303 71 -314 b 315 -258 168 -314 246 -311 b 425 -72 376 -212 413 -157 l 506 478 l 657 478 l 683 643 l 529 643 b 658 772 547 765 607 772 b 739 765 686 772 706 769 l 763 935 b 614 953 683 950 646 953 b 304 643 349 953 319 749 l 147 643 l 122 478 l 279 478 l 215 33 b 86 -133 197 -90 175 -133 b 4 -122 50 -133 26 -129 z "},"§":{"ha":854,"x_min":0,"x_max":0,"o":"m 181 599 b 64 357 128 539 64 465 b 319 39 64 253 108 151 b 522 -125 514 -65 522 -83 b 432 -194 522 -181 461 -194 b 342 -137 379 -194 363 -169 b 232 -71 326 -114 294 -71 b 132 -162 164 -71 132 -118 b 424 -326 132 -257 261 -326 b 733 -112 540 -326 733 -292 b 675 39 733 -33 699 8 b 790 283 711 74 790 149 b 515 611 790 438 686 521 b 333 756 374 686 333 707 b 422 821 333 796 375 821 b 514 750 471 821 486 801 b 617 683 549 686 597 683 b 722 790 697 683 722 749 b 436 953 722 874 632 953 b 122 735 188 953 122 821 b 181 599 122 664 153 629 z m 293 499 b 618 222 472 400 618 319 b 576 129 618 179 592 147 b 361 264 543 151 390 242 b 244 417 306 306 244 361 b 293 499 244 463 275 486 z "},"¤":{"ha":767,"x_min":0,"x_max":0,"o":"m 108 614 b 76 474 94 583 76 536 b 108 332 76 451 76 394 l 22 242 l 158 111 l 242 200 b 383 168 265 190 318 168 b 525 200 449 168 499 189 l 615 111 l 744 242 l 656 332 b 689 472 679 381 689 432 b 656 614 689 511 682 563 l 744 704 l 615 835 l 525 744 b 383 781 515 747 471 781 b 242 744 296 781 250 747 l 147 835 l 22 699 z m 263 474 b 383 594 263 540 317 594 b 503 474 449 594 503 540 b 383 353 503 407 449 353 b 263 474 318 353 263 407 z "},"'":{"ha":386,"x_min":0,"x_max":0,"o":"m 56 940 l 56 776 l 100 576 l 288 576 l 331 776 l 331 940 z "},"“":{"ha":781,"x_min":0,"x_max":0,"o":"m 744 953 b 425 654 510 921 425 771 b 600 440 425 557 478 440 b 744 582 683 440 744 508 b 638 715 744 647 711 694 b 744 910 635 788 651 875 z m 371 953 b 51 654 136 921 51 771 b 226 440 51 557 104 440 b 371 582 310 440 371 508 b 264 715 371 647 338 694 b 371 910 261 788 278 875 z "},"«":{"ha":885,"x_min":0,"x_max":0,"o":"m 461 672 l 235 672 l 21 338 l 235 0 l 461 0 l 247 338 z m 854 672 l 628 672 l 414 338 l 628 0 l 854 0 l 642 338 z "},"‹":{"ha":492,"x_min":0,"x_max":0,"o":"m 461 672 l 235 672 l 21 338 l 235 0 l 461 0 l 249 338 z "},"›":{"ha":492,"x_min":0,"x_max":0,"o":"m 31 672 l 243 338 l 31 0 l 257 0 l 471 338 l 257 672 z "},"":{"ha":904,"x_min":0,"x_max":0,"o":"m 692 953 b 589 850 635 953 589 907 b 692 747 589 793 635 747 b 794 850 749 747 794 793 b 692 953 794 907 749 953 z m 490 489 l 490 654 l 367 654 l 367 679 b 450 778 367 743 399 778 b 519 771 479 778 503 774 l 519 942 b 418 953 490 947 468 953 b 122 667 182 953 122 792 l 122 654 l 10 654 l 10 489 l 122 489 l 122 0 l 367 0 l 367 489 z m 569 690 l 569 0 l 814 0 l 814 690 z "},"ﬁ":{"ha":904,"x_min":0,"x_max":0,"o":"m 692 953 b 589 850 635 953 589 907 b 692 747 589 793 635 747 b 794 850 749 747 794 793 b 692 953 794 907 749 953 z m 490 489 l 490 654 l 367 654 l 367 679 b 450 778 367 743 399 778 b 519 771 479 778 503 774 l 519 942 b 418 953 490 947 468 953 b 122 667 182 953 122 792 l 122 654 l 10 654 l 10 489 l 122 489 l 122 0 l 367 0 l 367 489 z m 569 690 l 569 0 l 814 0 l 814 690 z "},"":{"ha":904,"x_min":0,"x_max":0,"o":"m 569 940 l 569 0 l 814 0 l 814 940 z m 490 489 l 490 654 l 367 654 l 367 679 b 450 778 367 743 399 778 b 519 771 479 778 503 774 l 519 942 b 418 953 494 947 468 953 b 122 667 210 953 122 825 l 122 654 l 10 654 l 10 489 l 122 489 l 122 0 l 367 0 l 367 489 z "},"ﬂ":{"ha":904,"x_min":0,"x_max":0,"o":"m 569 940 l 569 0 l 814 0 l 814 940 z m 490 489 l 490 654 l 367 654 l 367 679 b 450 778 367 743 399 778 b 519 771 479 778 503 774 l 519 942 b 418 953 494 947 468 953 b 122 667 210 953 122 825 l 122 654 l 10 654 l 10 489 l 122 489 l 122 0 l 367 0 l 367 489 z "},"–":{"ha":694,"x_min":0,"x_max":0,"o":"m -8 432 l -8 263 l 703 263 l 703 432 z "},"†":{"ha":767,"x_min":0,"x_max":0,"o":"m 435 510 l 631 465 b 699 453 644 463 685 453 b 739 528 733 453 739 490 l 739 586 b 699 667 739 629 739 667 b 639 657 686 667 674 665 l 435 611 l 478 842 b 489 913 488 892 489 897 b 403 953 489 953 446 953 l 361 953 b 275 914 308 953 275 949 b 282 861 275 900 279 876 l 332 611 l 128 657 b 68 667 93 665 81 667 b 28 586 28 667 28 629 l 28 528 b 68 453 28 490 33 453 b 136 465 82 453 122 463 l 332 510 l 257 -244 b 254 -279 256 -250 254 -268 b 347 -326 254 -326 294 -326 l 426 -326 b 513 -282 486 -326 513 -325 b 510 -233 513 -262 511 -244 z "},"‡":{"ha":767,"x_min":0,"x_max":0,"o":"m 435 635 l 475 851 b 483 915 481 878 483 900 b 410 953 483 953 431 953 l 372 953 b 283 911 318 953 283 953 b 292 851 283 900 285 885 l 333 635 l 124 675 b 74 683 89 682 85 683 b 31 633 31 683 31 650 l 31 561 b 75 483 31 529 31 483 b 136 494 97 483 131 493 l 333 535 l 286 315 l 333 92 l 113 135 b 65 143 79 142 75 143 b 31 69 33 143 31 111 l 31 4 b 65 -57 31 -4 31 -57 b 122 -49 71 -57 117 -50 l 333 -8 l 292 -239 b 285 -292 289 -257 285 -276 b 354 -326 285 -326 331 -326 l 404 -326 b 485 -283 440 -326 485 -326 b 475 -224 485 -275 479 -244 l 435 -8 l 646 -50 b 696 -57 651 -50 682 -57 b 736 15 736 -57 736 -6 l 736 76 b 692 143 736 117 729 143 b 642 135 678 143 664 139 l 435 92 l 475 315 l 435 535 l 639 494 b 697 483 646 493 679 483 b 736 561 736 483 736 521 l 736 618 b 696 683 736 644 736 683 b 622 672 685 683 678 683 z "},"·":{"ha":390,"x_min":0,"x_max":0,"o":"m 197 617 b 50 471 118 617 50 553 b 197 325 50 390 118 325 b 342 471 278 325 342 390 b 197 617 342 551 278 617 z "},"·":{"ha":390,"x_min":0,"x_max":0,"o":"m 197 617 b 50 471 118 617 50 553 b 197 325 50 390 118 325 b 342 471 278 325 342 390 b 197 617 342 551 278 617 z "},"⋅":{"ha":390,"x_min":0,"x_max":0,"o":"m 197 617 b 50 471 118 617 50 553 b 197 325 50 390 118 325 b 342 471 278 325 342 390 b 197 617 342 551 278 617 z "},"¶":{"ha":810,"x_min":0,"x_max":0,"o":"m 503 846 l 608 846 l 608 -326 l 703 -326 l 703 846 l 793 846 l 793 940 l 500 940 b 165 888 356 940 244 938 b 29 617 88 839 29 744 b 199 332 29 500 86 386 b 408 289 278 294 381 289 l 408 -326 l 503 -326 z "},"•":{"ha":694,"x_min":0,"x_max":0,"o":"m 347 696 b 122 471 224 696 122 597 b 347 246 122 347 222 246 b 572 471 472 246 572 347 b 347 696 572 597 471 696 z "},"‚":{"ha":419,"x_min":0,"x_max":0,"o":"m 49 -233 b 368 65 283 -201 368 -51 b 193 279 368 163 315 279 b 49 138 110 279 49 211 b 156 4 49 72 82 25 b 49 -190 158 -68 142 -156 z "},"„":{"ha":781,"x_min":0,"x_max":0,"o":"m 36 -233 b 356 65 271 -201 356 -51 b 181 279 356 163 303 279 b 36 138 97 279 36 211 b 143 4 36 72 69 25 b 36 -190 146 -68 129 -156 z m 410 -233 b 729 65 644 -201 729 -51 b 554 279 729 163 676 279 b 410 138 471 279 410 211 b 517 4 410 72 443 25 b 410 -190 519 -68 503 -156 z "},"”":{"ha":781,"x_min":0,"x_max":0,"o":"m 36 440 b 356 739 271 472 356 622 b 181 953 356 836 303 953 b 36 811 97 953 36 885 b 143 678 36 746 69 699 b 36 483 146 606 129 518 z m 410 440 b 729 739 644 472 729 622 b 554 953 729 836 676 953 b 410 811 471 953 410 885 b 517 678 410 746 443 699 b 410 483 519 606 503 518 z "},"»":{"ha":885,"x_min":0,"x_max":0,"o":"m 424 672 l 638 338 l 424 0 l 650 0 l 864 338 l 650 672 z m 31 672 l 243 338 l 31 0 l 257 0 l 471 338 l 257 672 z "},"…":{"ha":1389,"x_min":0,"x_max":0,"o":"m 694 279 b 549 133 615 279 549 215 b 694 -12 549 53 614 -12 b 840 133 775 -12 840 53 b 694 279 840 214 774 279 z m 1157 279 b 1011 133 1078 279 1011 215 b 1157 -12 1011 53 1078 -12 b 1303 133 1238 -12 1303 53 b 1157 279 1303 214 1238 279 z m 232 279 b 86 133 151 279 86 215 b 232 -12 86 53 151 -12 b 378 133 313 -12 378 53 b 232 279 378 214 311 279 z "},"‰":{"ha":1632,"x_min":0,"x_max":0,"o":"m 303 629 b 213 719 253 629 213 669 b 303 811 213 769 253 811 b 394 719 353 811 394 769 b 303 629 394 669 353 629 z m 303 953 b 71 721 174 953 71 850 b 303 488 71 592 174 488 b 536 721 432 488 536 592 b 303 953 536 850 432 953 z m 288 -25 l 965 953 l 828 953 l 149 -25 z m 1328 440 b 1096 208 1199 440 1096 338 b 1328 -25 1096 79 1199 -25 b 1561 208 1457 -25 1561 79 b 1328 440 1561 338 1457 440 z m 1328 117 b 1238 207 1278 117 1238 157 b 1328 299 1238 257 1278 299 b 1419 207 1378 299 1419 257 b 1328 117 1419 157 1378 117 z m 810 440 b 578 208 681 440 578 338 b 810 -25 578 79 681 -25 b 1043 208 939 -25 1043 79 b 810 440 1043 338 939 440 z m 810 117 b 719 207 760 117 719 157 b 810 299 719 257 760 299 b 901 207 860 299 901 257 b 810 117 901 157 860 117 z "},"¿":{"ha":535,"x_min":0,"x_max":0,"o":"m 485 -117 l 474 -117 b 393 -135 451 -126 431 -135 b 308 -65 319 -135 308 -87 b 357 63 308 -33 342 26 b 383 189 361 72 383 132 b 369 292 383 210 379 265 b 319 319 364 307 347 319 b 268 274 286 319 268 303 b 169 92 268 235 231 146 b 43 -129 63 -3 43 -46 b 292 -326 43 -222 117 -326 b 421 -306 349 -326 388 -315 z m 315 347 b 463 493 394 347 463 411 b 315 639 463 574 394 639 b 171 493 235 639 171 574 b 315 347 171 413 235 347 z "},"`":{"ha":463,"x_min":0,"x_max":0,"o":"m 381 782 l 264 997 l 0 997 l 250 782 z "},"´":{"ha":463,"x_min":0,"x_max":0,"o":"m 113 782 l 243 782 l 493 997 l 229 997 z "},"ˆ":{"ha":463,"x_min":0,"x_max":0,"o":"m 500 782 l 376 1017 l 86 1017 l -37 782 l 108 782 l 232 907 l 354 782 z "},"˜":{"ha":463,"x_min":0,"x_max":0,"o":"m 390 999 b 338 939 390 974 375 939 b 239 969 318 939 279 954 b 121 999 197 983 154 999 b -37 782 56 999 -37 939 l 71 782 b 126 840 74 807 86 840 b 340 782 171 840 271 782 b 500 999 436 782 500 858 z "},"¯":{"ha":463,"x_min":0,"x_max":0,"o":"m 493 797 l 493 964 l -31 964 l -31 797 z "},"˘":{"ha":463,"x_min":0,"x_max":0,"o":"m -25 1017 b 231 782 -14 885 100 782 b 488 1017 372 782 472 901 l 367 1017 b 232 921 356 990 332 921 b 96 1017 135 921 104 999 z "},"˙":{"ha":463,"x_min":0,"x_max":0,"o":"m 139 875 b 232 782 139 825 179 782 b 325 875 285 782 325 824 b 232 968 325 925 285 968 b 139 875 179 968 139 925 z "},"¨":{"ha":463,"x_min":0,"x_max":0,"o":"m -35 875 b 58 782 -35 825 6 782 b 151 875 111 782 151 824 b 58 968 151 925 111 968 b -35 875 6 968 -35 925 z m 311 875 b 404 782 311 825 350 782 b 497 875 457 782 497 824 b 404 968 497 925 457 968 b 311 875 350 968 311 925 z "},"̈":{"ha":463,"x_min":0,"x_max":0,"o":"m -35 875 b 58 782 -35 825 6 782 b 151 875 111 782 151 824 b 58 968 151 925 111 968 b -35 875 6 968 -35 925 z m 311 875 b 404 782 311 825 350 782 b 497 875 457 782 497 824 b 404 968 497 925 457 968 b 311 875 350 968 311 925 z "},"˚":{"ha":463,"x_min":0,"x_max":0,"o":"m 231 1060 b 92 921 153 1060 92 999 b 231 781 92 843 153 781 b 371 921 308 781 371 843 b 231 1060 371 999 308 1060 z m 231 993 b 304 921 271 993 304 961 b 231 847 304 881 271 847 b 158 921 190 847 158 881 b 231 993 158 961 190 993 z "},"¸":{"ha":463,"x_min":0,"x_max":0,"o":"m 186 14 l 101 -101 b 167 -144 149 -104 167 -117 b 32 -199 167 -192 100 -199 l 32 -292 l 165 -292 b 389 -157 328 -292 389 -228 b 274 -40 389 -100 347 -58 l 300 14 z "},"˝":{"ha":463,"x_min":0,"x_max":0,"o":"m 276 782 l 407 782 l 657 997 l 393 997 z m -50 782 l 79 782 l 329 997 l 65 997 z "},"˛":{"ha":463,"x_min":0,"x_max":0,"o":"m 158 11 b 124 -111 133 -31 124 -71 b 271 -271 124 -214 189 -271 b 392 -243 318 -271 354 -261 l 392 -126 b 332 -136 372 -133 365 -136 b 251 -69 285 -136 251 -100 b 272 11 251 -40 260 -12 z "},"ˇ":{"ha":463,"x_min":0,"x_max":0,"o":"m -37 1017 l 86 782 l 376 782 l 500 1017 l 354 1017 l 232 890 l 108 1017 z "},"—":{"ha":1389,"x_min":0,"x_max":0,"o":"m -8 432 l -8 263 l 1397 263 l 1397 432 z "},"Æ":{"ha":1546,"x_min":0,"x_max":0,"o":"m 601 940 l 7 0 l 294 0 l 500 350 l 771 350 l 771 0 l 1474 0 l 1474 189 l 1054 189 l 1054 390 l 1440 390 l 1440 579 l 1054 579 l 1054 751 l 1464 751 l 1464 940 z m 771 513 l 597 513 l 771 808 z "},"ª":{"ha":521,"x_min":0,"x_max":0,"o":"m 43 757 b 228 840 131 833 185 840 b 292 790 263 840 292 826 b 118 744 236 778 165 763 b 26 618 67 725 26 685 b 164 504 26 569 57 504 b 306 544 239 504 272 525 b 397 504 325 524 350 504 b 528 536 469 504 493 522 l 528 632 b 479 618 504 622 492 618 b 465 653 471 618 465 622 l 465 800 b 440 892 465 826 465 863 b 263 953 408 929 354 953 b 43 893 182 953 114 931 z m 290 628 b 233 603 271 614 254 603 b 199 636 217 603 199 613 b 290 707 199 661 218 681 z "},"Ł":{"ha":879,"x_min":0,"x_max":0,"o":"m 401 661 l 401 940 l 118 940 l 118 444 l -8 347 l -8 163 l 118 260 l 118 0 l 832 0 l 832 225 l 401 225 l 401 476 l 578 611 l 578 796 z "},"Ø":{"ha":1182,"x_min":0,"x_max":0,"o":"m 271 69 b 590 -12 376 1 501 -12 b 1124 471 958 -12 1124 228 b 1013 783 1124 561 1103 683 l 1118 885 l 1039 965 l 928 860 b 590 953 889 886 790 953 b 57 471 222 953 57 714 b 183 142 57 332 103 229 l 64 28 l 143 -54 z m 810 589 b 835 469 825 558 835 517 b 592 229 835 333 747 229 b 465 257 563 229 508 235 z m 382 333 b 346 472 347 390 346 458 b 590 711 346 603 429 711 b 735 674 642 711 692 701 z "},"Œ":{"ha":1504,"x_min":0,"x_max":0,"o":"m 1425 751 l 1425 940 l 665 940 b 218 835 544 940 358 942 b 57 478 93 740 57 594 b 239 94 57 388 78 206 b 613 0 376 0 533 0 l 1432 0 l 1432 189 l 1015 189 l 1015 390 l 1399 390 l 1399 579 l 1015 579 l 1015 751 z m 732 189 l 685 189 b 346 471 460 189 346 257 b 685 751 346 685 460 751 l 732 751 z "},"º":{"ha":564,"x_min":0,"x_max":0,"o":"m 279 953 b 17 728 108 953 17 853 b 279 504 17 603 108 504 b 547 728 450 504 547 603 b 279 953 547 853 450 953 z m 279 826 b 364 728 335 826 364 792 b 279 631 364 664 335 631 b 200 728 224 631 200 664 b 279 826 200 792 224 826 z "},"æ":{"ha":1158,"x_min":0,"x_max":0,"o":"m 72 425 b 346 547 144 488 226 547 b 446 435 436 547 446 515 b 307 389 410 419 400 417 b 49 163 224 364 49 313 b 243 -12 49 75 115 -12 b 514 75 329 -12 418 10 b 797 -12 596 17 696 -12 b 1101 58 903 -12 1006 17 l 1101 214 b 864 143 992 158 917 143 b 672 286 825 143 681 160 l 1117 286 l 1117 335 b 781 703 1117 593 946 703 b 588 642 672 703 617 663 b 369 703 544 667 481 703 b 72 608 232 703 133 644 z m 446 161 b 351 119 428 144 399 119 b 289 193 301 119 289 168 b 446 329 289 256 343 281 z m 668 407 b 779 553 669 507 715 553 b 889 407 871 553 886 460 z "},"ı":{"ha":425,"x_min":0,"x_max":0,"o":"m 90 690 l 90 0 l 335 0 l 335 690 z "},"ł":{"ha":425,"x_min":0,"x_max":0,"o":"m 335 638 l 335 940 l 90 940 l 90 451 l -7 376 l -7 229 l 90 304 l 90 0 l 335 0 l 335 490 l 432 565 l 432 713 z "},"ø":{"ha":889,"x_min":0,"x_max":0,"o":"m 669 653 b 443 703 601 690 522 703 b 49 342 167 703 49 524 b 117 126 49 261 72 182 b 156 85 135 104 147 93 l 65 -17 l 124 -68 l 219 39 b 449 -12 250 22 313 -12 b 840 346 747 -12 840 194 b 735 606 840 444 807 538 l 824 706 l 765 758 z m 318 263 b 306 344 308 292 306 325 b 447 524 306 438 343 524 b 528 496 461 524 494 524 z m 572 428 b 583 351 576 417 583 397 b 446 167 583 201 503 167 b 363 196 415 167 386 178 z "},"œ":{"ha":1304,"x_min":0,"x_max":0,"o":"m 1263 333 b 911 703 1263 614 1075 703 b 688 639 800 703 739 668 b 439 703 651 660 579 703 b 49 338 183 703 49 549 b 453 -12 49 149 176 -12 b 703 57 603 -12 658 26 b 943 -12 758 18 819 -12 b 1246 57 1083 -12 1181 29 l 1246 211 b 999 143 1201 190 1107 143 b 806 286 965 143 818 154 l 1263 286 z m 803 407 b 918 551 803 471 819 551 b 1046 407 1018 551 1039 457 z m 444 521 b 583 346 529 521 583 463 b 444 169 583 224 519 169 b 306 346 343 169 306 256 b 444 521 306 464 363 521 z "},"ß":{"ha":918,"x_min":0,"x_max":0,"o":"m 101 0 l 346 0 l 346 669 b 464 813 346 754 378 813 b 579 706 540 813 579 754 b 465 601 579 664 553 601 l 465 465 b 617 322 551 463 617 433 b 563 194 617 274 600 221 b 453 175 522 167 485 174 l 453 6 b 582 -12 493 -4 535 -12 b 861 279 714 -12 861 89 b 697 539 861 392 815 488 b 811 717 732 558 811 601 b 469 953 811 822 732 953 b 151 842 293 953 196 896 b 101 614 104 783 101 715 z "},"Ð":{"ha":1142,"x_min":0,"x_max":0,"o":"m 118 940 l 118 543 l 14 543 l 14 397 l 118 397 l 118 0 l 611 0 b 908 79 638 0 800 -6 b 1085 453 971 128 1085 232 b 921 824 1085 625 1010 751 b 508 940 851 881 744 940 z m 401 751 l 522 751 b 796 465 624 751 796 715 b 522 194 796 215 624 194 l 401 194 l 401 397 l 594 397 l 594 543 l 401 543 z "},"ð":{"ha":889,"x_min":0,"x_max":0,"o":"m 222 899 b 325 843 294 864 306 857 l 157 788 l 179 714 l 400 788 b 500 672 432 761 476 710 b 404 690 474 682 447 690 b 49 338 236 690 49 581 b 456 -12 49 194 129 -12 b 840 353 706 -12 840 143 b 700 724 840 497 786 617 b 575 843 651 783 608 817 l 688 882 l 665 953 l 494 899 b 363 953 451 924 410 939 z m 444 521 b 583 346 536 521 583 451 b 444 169 583 240 536 169 b 306 346 353 169 306 240 b 444 521 306 451 353 521 z "},"Þ":{"ha":971,"x_min":0,"x_max":0,"o":"m 118 940 l 118 0 l 401 0 l 401 176 l 588 176 b 932 468 825 176 932 317 b 588 764 932 619 825 764 l 401 764 l 401 940 z m 461 583 b 643 467 575 583 643 564 b 463 357 643 369 581 357 l 401 357 l 401 583 z "},"þ":{"ha":885,"x_min":0,"x_max":0,"o":"m 76 940 l 76 -314 l 321 -314 l 321 40 b 506 -12 353 19 400 -12 b 836 350 738 -12 836 171 b 522 703 836 604 661 703 b 321 628 404 703 349 651 l 321 940 z m 321 207 l 321 471 b 444 519 338 485 375 519 b 579 344 506 519 579 478 b 444 163 579 229 519 163 b 321 207 393 163 358 186 z "},"¹":{"ha":492,"x_min":0,"x_max":0,"o":"m 331 463 l 331 940 l 161 940 l 161 463 z "},"²":{"ha":492,"x_min":0,"x_max":0,"o":"m 465 588 l 300 588 b 424 800 374 667 424 721 b 233 953 424 876 367 953 b 46 897 150 953 92 922 l 46 761 b 189 829 63 776 122 829 b 260 768 233 829 260 804 b 154 603 260 713 213 661 b 28 486 114 563 72 522 l 28 463 l 465 463 z "},"³":{"ha":492,"x_min":0,"x_max":0,"o":"m 53 492 b 232 456 90 476 165 456 b 431 600 340 456 431 507 b 358 715 431 647 408 686 b 421 819 403 747 421 782 b 228 953 421 878 361 953 b 68 921 164 953 92 929 l 68 808 b 186 847 129 844 171 847 b 251 803 231 847 251 822 b 149 758 251 758 194 758 l 149 664 b 261 611 200 664 261 657 b 189 567 261 582 225 567 b 53 621 138 567 99 586 z "},"−":{"ha":926,"x_min":0,"x_max":0,"o":"m 82 554 l 82 386 l 844 386 l 844 554 z "},"°":{"ha":554,"x_min":0,"x_max":0,"o":"m 276 953 b 83 760 171 953 83 867 b 276 565 83 651 171 565 b 471 760 385 565 471 653 b 276 953 471 867 383 953 z m 276 828 b 346 758 314 828 346 797 b 276 690 346 721 314 690 b 208 758 239 690 208 721 b 276 828 208 797 239 828 z "},"¬":{"ha":926,"x_min":0,"x_max":0,"o":"m 82 717 l 82 549 l 676 549 l 676 221 l 844 221 l 844 717 z "},"×":{"ha":926,"x_min":0,"x_max":0,"o":"m 219 833 l 100 714 l 344 471 l 100 226 l 219 108 l 464 351 l 707 108 l 826 226 l 582 471 l 826 714 l 707 833 l 464 590 z "},"÷":{"ha":926,"x_min":0,"x_max":0,"o":"m 82 549 l 82 390 l 844 390 l 844 549 z m 463 88 b 563 188 517 88 563 133 b 463 286 563 242 517 286 b 364 188 408 286 364 242 b 463 88 364 133 408 88 z m 463 653 b 563 751 517 653 563 697 b 463 851 563 806 517 851 b 364 751 408 851 364 806 b 463 653 364 697 408 653 z "},"±":{"ha":926,"x_min":0,"x_max":0,"o":"m 82 168 l 82 0 l 844 0 l 844 168 z m 82 715 l 82 547 l 379 547 l 379 250 l 547 250 l 547 547 l 844 547 l 844 715 l 547 715 l 547 1013 l 379 1013 l 379 715 z "},"µ":{"ha":883,"x_min":0,"x_max":0,"o":"m 313 21 b 429 -12 342 3 368 -12 b 561 38 508 -12 540 17 l 561 0 l 806 0 l 806 690 l 561 690 l 561 282 b 413 176 531 239 486 176 b 313 329 311 176 313 278 l 313 690 l 68 690 l 68 -314 l 313 -314 z "},"¦":{"ha":406,"x_min":0,"x_max":0,"o":"m 119 226 l 119 -326 l 288 -326 l 288 226 z m 119 953 l 119 400 l 288 400 l 288 953 z "},"©":{"ha":1114,"x_min":0,"x_max":0,"o":"m 678 372 b 556 243 665 317 636 243 b 429 440 429 243 429 392 b 554 626 429 544 467 626 b 678 518 653 626 672 542 l 811 539 b 561 726 783 671 668 726 b 278 438 401 726 278 608 b 560 144 278 282 374 144 b 817 339 757 144 801 290 z m 557 953 b 39 436 275 953 39 725 b 557 -82 39 150 271 -82 b 1075 436 843 -82 1075 150 b 557 953 1075 725 840 953 z m 557 853 b 975 436 786 853 975 669 b 557 18 975 206 789 18 b 139 436 326 18 139 206 b 557 853 139 669 329 853 z "},"®":{"ha":1114,"x_min":0,"x_max":0,"o":"m 557 953 b 39 436 275 953 39 725 b 557 -82 39 150 271 -82 b 1075 436 843 -82 1075 150 b 557 953 1075 725 840 953 z m 557 853 b 975 436 786 853 975 669 b 557 18 975 206 789 18 b 139 436 326 18 139 206 b 557 853 139 669 329 853 z m 322 713 l 322 158 l 460 158 l 460 379 b 508 369 476 381 497 375 b 638 158 535 354 576 283 l 800 158 l 749 253 b 619 401 710 324 688 369 b 769 556 671 411 769 443 b 569 713 769 671 682 713 z m 460 617 l 525 617 b 628 547 585 617 628 594 b 519 478 628 494 585 478 l 460 478 z "},"™":{"ha":1317,"x_min":0,"x_max":0,"o":"m 25 940 l 25 810 l 215 810 l 215 389 l 375 389 l 375 810 l 568 810 l 568 940 z m 632 940 l 632 389 l 783 389 l 783 779 l 886 389 l 1011 389 l 1115 779 l 1115 389 l 1267 389 l 1267 940 l 1031 940 l 950 639 l 874 940 z "},"½":{"ha":1128,"x_min":0,"x_max":0,"o":"m 331 463 l 331 940 l 161 940 l 161 463 z m 782 953 l 139 -33 l 279 -33 l 922 953 z m 1101 125 l 936 125 b 1060 338 1010 204 1060 258 b 869 490 1060 388 1031 490 b 682 435 789 490 729 460 l 682 299 b 825 367 710 324 768 367 b 896 306 879 367 896 335 b 790 140 896 250 849 199 b 664 24 750 100 708 60 l 664 0 l 1101 0 z "},"¼":{"ha":1128,"x_min":0,"x_max":0,"o":"m 1038 0 l 1038 100 l 1103 100 l 1103 199 l 1038 199 l 1038 483 l 910 483 l 649 203 l 649 100 l 886 100 l 886 0 z m 765 199 l 886 328 l 886 199 z m 813 953 l 169 -33 l 310 -33 l 953 953 z m 331 463 l 331 940 l 161 940 l 161 463 z "},"¾":{"ha":1128,"x_min":0,"x_max":0,"o":"m 53 492 b 232 456 90 476 165 456 b 431 600 340 456 431 507 b 358 715 431 647 408 686 b 421 819 403 747 421 782 b 228 953 421 878 361 953 b 68 921 164 953 92 929 l 68 808 b 186 847 129 844 171 847 b 251 803 231 847 251 822 b 149 758 251 758 194 758 l 149 664 b 261 611 200 664 261 657 b 189 567 261 582 225 567 b 53 621 138 567 99 586 z m 1038 0 l 1038 100 l 1103 100 l 1103 199 l 1038 199 l 1038 483 l 910 483 l 649 203 l 649 100 l 886 100 l 886 0 z m 765 199 l 886 328 l 886 199 z m 824 953 l 181 -33 l 321 -33 l 964 953 z "},"Á":{"ha":1157,"x_min":0,"x_max":0,"o":"m 783 190 l 860 0 l 1150 0 l 736 940 l 422 940 l 7 0 l 297 0 l 375 190 z m 442 354 l 581 697 l 718 354 z m 460 1004 l 590 1004 l 840 1219 l 576 1219 z "},"À":{"ha":1157,"x_min":0,"x_max":0,"o":"m 783 190 l 860 0 l 1150 0 l 736 940 l 422 940 l 7 0 l 297 0 l 375 190 z m 442 354 l 581 697 l 718 354 z m 728 1004 l 611 1219 l 347 1219 l 597 1004 z "},"Â":{"ha":1157,"x_min":0,"x_max":0,"o":"m 783 190 l 860 0 l 1150 0 l 736 940 l 422 940 l 7 0 l 297 0 l 375 190 z m 442 354 l 581 697 l 718 354 z m 847 1004 l 724 1239 l 433 1239 l 310 1004 l 456 1004 l 579 1129 l 701 1004 z "},"Ä":{"ha":1157,"x_min":0,"x_max":0,"o":"m 783 190 l 860 0 l 1150 0 l 736 940 l 422 940 l 7 0 l 297 0 l 375 190 z m 442 354 l 581 697 l 718 354 z m 313 1097 b 406 1004 313 1047 353 1004 b 499 1097 458 1004 499 1046 b 406 1190 499 1147 458 1190 b 313 1097 353 1190 313 1147 z m 658 1097 b 751 1004 658 1047 697 1004 b 844 1097 804 1004 844 1046 b 751 1190 844 1147 804 1190 b 658 1097 697 1190 658 1147 z "},"Ã":{"ha":1157,"x_min":0,"x_max":0,"o":"m 783 190 l 860 0 l 1150 0 l 736 940 l 422 940 l 7 0 l 297 0 l 375 190 z m 442 354 l 581 697 l 718 354 z m 738 1221 b 685 1161 738 1196 722 1161 b 586 1192 665 1161 626 1176 b 468 1221 544 1206 501 1221 b 310 1004 403 1221 310 1161 l 418 1004 b 474 1063 421 1029 433 1063 b 688 1004 518 1063 618 1004 b 847 1221 783 1004 847 1081 z "},"Å":{"ha":1157,"x_min":0,"x_max":0,"o":"m 783 190 l 860 0 l 1150 0 l 736 940 l 422 940 l 7 0 l 297 0 l 375 190 z m 442 354 l 581 697 l 718 354 z m 578 1282 b 439 1143 500 1282 439 1221 b 578 1003 439 1065 500 1003 b 718 1143 656 1003 718 1065 b 578 1282 718 1221 656 1282 z m 578 1215 b 651 1143 618 1215 651 1183 b 578 1069 651 1103 618 1069 b 506 1143 538 1069 506 1103 b 578 1215 506 1183 538 1215 z "},"Ç":{"ha":1032,"x_min":0,"x_max":0,"o":"m 635 -11 b 960 71 710 -8 831 4 l 960 308 b 642 207 904 274 793 207 b 346 467 482 207 346 315 b 657 733 346 643 506 733 b 956 632 797 733 903 664 l 956 882 b 593 953 881 908 751 953 b 57 471 299 953 57 792 b 517 -8 57 279 156 28 l 449 -101 b 514 -144 478 -104 514 -108 b 381 -199 514 -197 440 -200 l 381 -292 b 578 -287 521 -293 539 -292 b 738 -157 683 -275 738 -221 b 621 -40 738 -128 719 -60 z "},"É":{"ha":899,"x_min":0,"x_max":0,"o":"m 401 189 l 401 390 l 796 390 l 796 579 l 401 579 l 401 751 l 815 751 l 815 940 l 118 940 l 118 0 l 826 0 l 826 189 z m 351 1004 l 482 1004 l 732 1219 l 468 1219 z "},"È":{"ha":899,"x_min":0,"x_max":0,"o":"m 401 189 l 401 390 l 796 390 l 796 579 l 401 579 l 401 751 l 815 751 l 815 940 l 118 940 l 118 0 l 826 0 l 826 189 z m 619 1004 l 503 1219 l 239 1219 l 489 1004 z "},"Ê":{"ha":899,"x_min":0,"x_max":0,"o":"m 401 189 l 401 390 l 796 390 l 796 579 l 401 579 l 401 751 l 815 751 l 815 940 l 118 940 l 118 0 l 826 0 l 826 189 z m 739 1004 l 615 1239 l 325 1239 l 201 1004 l 347 1004 l 471 1129 l 593 1004 z "},"Ë":{"ha":899,"x_min":0,"x_max":0,"o":"m 401 189 l 401 390 l 796 390 l 796 579 l 401 579 l 401 751 l 815 751 l 815 940 l 118 940 l 118 0 l 826 0 l 826 189 z m 204 1097 b 297 1004 204 1047 244 1004 b 390 1097 350 1004 390 1046 b 297 1190 390 1147 350 1190 b 204 1097 244 1190 204 1147 z m 550 1097 b 643 1004 550 1047 589 1004 b 736 1097 696 1004 736 1046 b 643 1190 736 1147 696 1190 b 550 1097 589 1190 550 1147 z "},"Í":{"ha":522,"x_min":0,"x_max":0,"o":"m 119 940 l 119 0 l 403 0 l 403 940 z m 143 1004 l 274 1004 l 524 1219 l 260 1219 z "},"Ì":{"ha":522,"x_min":0,"x_max":0,"o":"m 119 940 l 119 0 l 403 0 l 403 940 z m 411 1004 l 294 1219 l 31 1219 l 281 1004 z "},"Î":{"ha":522,"x_min":0,"x_max":0,"o":"m 119 940 l 119 0 l 403 0 l 403 940 z m 531 1004 l 407 1239 l 117 1239 l -7 1004 l 139 1004 l 263 1129 l 385 1004 z "},"Ï":{"ha":522,"x_min":0,"x_max":0,"o":"m 119 940 l 119 0 l 403 0 l 403 940 z m -4 1097 b 89 1004 -4 1047 36 1004 b 182 1097 142 1004 182 1046 b 89 1190 182 1147 142 1190 b -4 1097 36 1190 -4 1147 z m 342 1097 b 435 1004 342 1047 381 1004 b 528 1097 488 1004 528 1046 b 435 1190 528 1147 488 1190 b 342 1097 381 1190 342 1147 z "},"Ñ":{"ha":1257,"x_min":0,"x_max":0,"o":"m 118 940 l 118 0 l 399 0 l 399 524 l 886 0 l 1139 0 l 1139 940 l 856 940 l 856 419 l 369 940 z m 788 1221 b 735 1161 788 1196 772 1161 b 636 1192 715 1161 676 1176 b 518 1221 594 1206 551 1221 b 360 1004 453 1221 360 1161 l 468 1004 b 524 1063 471 1029 483 1063 b 738 1004 568 1063 668 1004 b 897 1221 833 1004 897 1081 z "},"Ó":{"ha":1182,"x_min":0,"x_max":0,"o":"m 1124 471 b 590 953 1124 725 949 953 b 57 471 222 953 57 714 b 590 -12 57 228 222 -12 b 1124 471 946 -12 1124 213 z m 346 471 b 590 711 346 613 436 711 b 835 471 747 711 835 610 b 590 229 835 331 747 229 b 346 471 436 229 346 329 z m 472 1004 l 603 1004 l 853 1219 l 589 1219 z "},"Ò":{"ha":1182,"x_min":0,"x_max":0,"o":"m 1124 471 b 590 953 1124 725 949 953 b 57 471 222 953 57 714 b 590 -12 57 228 222 -12 b 1124 471 946 -12 1124 213 z m 346 471 b 590 711 346 613 436 711 b 835 471 747 711 835 610 b 590 229 835 331 747 229 b 346 471 436 229 346 329 z m 740 1004 l 624 1219 l 360 1219 l 610 1004 z "},"Ô":{"ha":1182,"x_min":0,"x_max":0,"o":"m 1124 471 b 590 953 1124 725 949 953 b 57 471 222 953 57 714 b 590 -12 57 228 222 -12 b 1124 471 946 -12 1124 213 z m 346 471 b 590 711 346 613 436 711 b 835 471 747 711 835 610 b 590 229 835 331 747 229 b 346 471 436 229 346 329 z m 860 1004 l 736 1239 l 446 1239 l 322 1004 l 468 1004 l 592 1129 l 714 1004 z "},"Ö":{"ha":1182,"x_min":0,"x_max":0,"o":"m 1124 471 b 590 953 1124 725 949 953 b 57 471 222 953 57 714 b 590 -12 57 228 222 -12 b 1124 471 946 -12 1124 213 z m 346 471 b 590 711 346 613 436 711 b 835 471 747 711 835 610 b 590 229 835 331 747 229 b 346 471 436 229 346 329 z m 325 1097 b 418 1004 325 1047 365 1004 b 511 1097 471 1004 511 1046 b 418 1190 511 1147 471 1190 b 325 1097 365 1190 325 1147 z m 671 1097 b 764 1004 671 1047 710 1004 b 857 1097 817 1004 857 1046 b 764 1190 857 1147 817 1190 b 671 1097 710 1190 671 1147 z "},"Õ":{"ha":1182,"x_min":0,"x_max":0,"o":"m 1124 471 b 590 953 1124 725 949 953 b 57 471 222 953 57 714 b 590 -12 57 228 222 -12 b 1124 471 946 -12 1124 213 z m 346 471 b 590 711 346 613 436 711 b 835 471 747 711 835 610 b 590 229 835 331 747 229 b 346 471 436 229 346 329 z m 750 1221 b 697 1161 750 1196 735 1161 b 599 1192 678 1161 639 1176 b 481 1221 557 1206 514 1221 b 322 1004 415 1221 322 1161 l 431 1004 b 486 1063 433 1029 446 1063 b 700 1004 531 1063 631 1004 b 860 1221 796 1004 860 1081 z "},"Š":{"ha":850,"x_min":0,"x_max":0,"o":"m 735 874 b 419 953 715 886 596 953 b 81 681 188 953 81 826 b 349 378 81 513 217 433 b 492 260 425 346 492 315 b 376 190 492 250 489 190 b 89 293 251 190 142 260 l 89 63 b 419 -12 261 -12 393 -12 b 775 274 626 -12 775 94 b 463 592 775 438 650 503 b 354 689 383 629 354 650 b 454 760 354 722 376 760 b 735 653 575 760 681 690 z m 157 1239 l 281 1004 l 571 1004 l 694 1239 l 549 1239 l 426 1113 l 303 1239 z "},"Ú":{"ha":1201,"x_min":0,"x_max":0,"o":"m 104 940 l 104 421 b 601 -12 104 82 392 -12 b 1097 421 811 -12 1097 82 l 1097 940 l 814 940 l 814 493 b 601 224 814 299 722 224 b 388 494 478 224 388 300 l 388 940 z m 482 1004 l 613 1004 l 863 1219 l 599 1219 z "},"Ù":{"ha":1201,"x_min":0,"x_max":0,"o":"m 104 940 l 104 421 b 601 -12 104 82 392 -12 b 1097 421 811 -12 1097 82 l 1097 940 l 814 940 l 814 493 b 601 224 814 299 722 224 b 388 494 478 224 388 300 l 388 940 z m 750 1004 l 633 1219 l 369 1219 l 619 1004 z "},"Û":{"ha":1201,"x_min":0,"x_max":0,"o":"m 104 940 l 104 421 b 601 -12 104 82 392 -12 b 1097 421 811 -12 1097 82 l 1097 940 l 814 940 l 814 493 b 601 224 814 299 722 224 b 388 494 478 224 388 300 l 388 940 z m 869 1004 l 746 1239 l 456 1239 l 332 1004 l 478 1004 l 601 1129 l 724 1004 z "},"Ü":{"ha":1201,"x_min":0,"x_max":0,"o":"m 104 940 l 104 421 b 601 -12 104 82 392 -12 b 1097 421 811 -12 1097 82 l 1097 940 l 814 940 l 814 493 b 601 224 814 299 722 224 b 388 494 478 224 388 300 l 388 940 z m 335 1097 b 428 1004 335 1047 375 1004 b 521 1097 481 1004 521 1046 b 428 1190 521 1147 481 1190 b 335 1097 375 1190 335 1147 z m 681 1097 b 774 1004 681 1047 719 1004 b 867 1097 826 1004 867 1046 b 774 1190 867 1147 826 1190 b 681 1097 719 1190 681 1147 z "},"Ý":{"ha":1043,"x_min":0,"x_max":0,"o":"m 8 940 l 383 425 l 383 0 l 667 0 l 667 431 l 1035 940 l 735 940 l 518 644 l 303 940 z m 403 1004 l 533 1004 l 783 1219 l 519 1219 z "},"Ÿ":{"ha":1043,"x_min":0,"x_max":0,"o":"m 8 940 l 383 425 l 383 0 l 667 0 l 667 431 l 1035 940 l 735 940 l 518 644 l 303 940 z m 256 1097 b 349 1004 256 1047 296 1004 b 442 1097 401 1004 442 1046 b 349 1190 442 1147 401 1190 b 256 1097 296 1190 256 1147 z m 601 1097 b 694 1004 601 1047 640 1004 b 788 1097 747 1004 788 1046 b 694 1190 788 1147 747 1190 b 601 1097 640 1190 601 1147 z "},"Ž":{"ha":1013,"x_min":0,"x_max":0,"o":"m 981 0 l 981 225 l 496 225 l 981 940 l 67 940 l 67 715 l 513 715 l 26 0 z m 238 1239 l 361 1004 l 651 1004 l 775 1239 l 629 1239 l 507 1113 l 383 1239 z "},"á":{"ha":793,"x_min":0,"x_max":0,"o":"m 72 421 b 346 547 133 482 228 547 b 454 440 446 547 454 492 b 311 390 428 426 417 424 b 49 161 161 343 49 296 b 254 -12 49 86 92 -12 b 468 61 374 -12 431 31 b 586 -12 476 36 493 -12 b 794 35 682 -12 746 15 l 794 163 b 732 143 782 157 756 143 b 699 218 706 143 699 169 l 699 485 b 397 703 699 617 603 703 b 72 608 279 703 164 674 z m 454 167 b 354 119 436 153 393 119 b 288 190 322 119 288 140 b 454 331 288 261 358 290 z m 278 782 l 408 782 l 658 997 l 394 997 z "},"à":{"ha":793,"x_min":0,"x_max":0,"o":"m 72 421 b 346 547 133 482 228 547 b 454 440 446 547 454 492 b 311 390 428 426 417 424 b 49 161 161 343 49 296 b 254 -12 49 86 92 -12 b 468 61 374 -12 431 31 b 586 -12 476 36 493 -12 b 794 35 682 -12 746 15 l 794 163 b 732 143 782 157 756 143 b 699 218 706 143 699 169 l 699 485 b 397 703 699 617 603 703 b 72 608 279 703 164 674 z m 454 167 b 354 119 436 153 393 119 b 288 190 322 119 288 140 b 454 331 288 261 358 290 z m 546 782 l 429 997 l 165 997 l 415 782 z "},"â":{"ha":793,"x_min":0,"x_max":0,"o":"m 72 421 b 346 547 133 482 228 547 b 454 440 446 547 454 492 b 311 390 428 426 417 424 b 49 161 161 343 49 296 b 254 -12 49 86 92 -12 b 468 61 374 -12 431 31 b 586 -12 476 36 493 -12 b 794 35 682 -12 746 15 l 794 163 b 732 143 782 157 756 143 b 699 218 706 143 699 169 l 699 485 b 397 703 699 617 603 703 b 72 608 279 703 164 674 z m 454 167 b 354 119 436 153 393 119 b 288 190 322 119 288 140 b 454 331 288 261 358 290 z m 651 782 l 528 1017 l 238 1017 l 114 782 l 260 782 l 383 907 l 506 782 z "},"ä":{"ha":793,"x_min":0,"x_max":0,"o":"m 72 421 b 346 547 133 482 228 547 b 454 440 446 547 454 492 b 311 390 428 426 417 424 b 49 161 161 343 49 296 b 254 -12 49 86 92 -12 b 468 61 374 -12 431 31 b 586 -12 476 36 493 -12 b 794 35 682 -12 746 15 l 794 163 b 732 143 782 157 756 143 b 699 218 706 143 699 169 l 699 485 b 397 703 699 617 603 703 b 72 608 279 703 164 674 z m 454 167 b 354 119 436 153 393 119 b 288 190 322 119 288 140 b 454 331 288 261 358 290 z m 131 875 b 224 782 131 825 171 782 b 317 875 276 782 317 824 b 224 968 317 925 276 968 b 131 875 171 968 131 925 z m 476 875 b 569 782 476 825 515 782 b 663 875 622 782 663 824 b 569 968 663 925 622 968 b 476 875 515 968 476 925 z "},"ã":{"ha":793,"x_min":0,"x_max":0,"o":"m 72 421 b 346 547 133 482 228 547 b 454 440 446 547 454 492 b 311 390 428 426 417 424 b 49 161 161 343 49 296 b 254 -12 49 86 92 -12 b 468 61 374 -12 431 31 b 586 -12 476 36 493 -12 b 794 35 682 -12 746 15 l 794 163 b 732 143 782 157 756 143 b 699 218 706 143 699 169 l 699 485 b 397 703 699 617 603 703 b 72 608 279 703 164 674 z m 454 167 b 354 119 436 153 393 119 b 288 190 322 119 288 140 b 454 331 288 261 358 290 z m 556 999 b 503 939 556 974 540 939 b 404 969 483 939 444 954 b 286 999 363 983 319 999 b 128 782 221 999 128 939 l 236 782 b 292 840 239 807 251 840 b 506 782 336 840 436 782 b 665 999 601 782 665 858 z "},"å":{"ha":793,"x_min":0,"x_max":0,"o":"m 72 421 b 346 547 133 482 228 547 b 454 440 446 547 454 492 b 311 390 428 426 417 424 b 49 161 161 343 49 296 b 254 -12 49 86 92 -12 b 468 61 374 -12 431 31 b 586 -12 476 36 493 -12 b 794 35 682 -12 746 15 l 794 163 b 732 143 782 157 756 143 b 699 218 706 143 699 169 l 699 485 b 397 703 699 617 603 703 b 72 608 279 703 164 674 z m 454 167 b 354 119 436 153 393 119 b 288 190 322 119 288 140 b 454 331 288 261 358 290 z m 396 1060 b 257 921 318 1060 257 999 b 396 781 257 843 318 781 b 536 921 474 781 536 843 b 396 1060 536 999 474 1060 z m 396 993 b 469 921 436 993 469 961 b 396 847 469 881 436 847 b 324 921 356 847 324 881 b 396 993 324 961 356 993 z "},"ç":{"ha":710,"x_min":0,"x_max":0,"o":"m 474 -11 b 669 32 576 -3 614 13 l 669 224 b 472 182 611 206 529 182 b 306 347 399 182 306 229 b 472 508 306 467 399 508 b 658 471 529 508 614 485 l 658 663 b 436 703 604 682 546 703 b 49 347 107 703 49 453 b 357 -7 49 242 106 28 l 288 -101 b 353 -144 310 -104 353 -106 b 218 -199 353 -197 281 -199 l 218 -292 l 360 -292 b 575 -157 501 -292 575 -237 b 460 -40 575 -128 558 -60 z "},"é":{"ha":828,"x_min":0,"x_max":0,"o":"m 786 335 b 444 703 786 613 599 703 b 49 349 181 703 49 549 b 444 -12 49 149 181 -12 b 768 61 628 -12 732 42 l 768 213 b 496 143 682 172 589 143 b 300 286 403 143 318 200 l 786 286 z m 293 407 b 429 553 293 494 350 553 b 557 407 511 553 557 494 z m 296 782 l 426 782 l 676 997 l 413 997 z "},"è":{"ha":828,"x_min":0,"x_max":0,"o":"m 786 335 b 444 703 786 613 599 703 b 49 349 181 703 49 549 b 444 -12 49 149 181 -12 b 768 61 628 -12 732 42 l 768 213 b 496 143 682 172 589 143 b 300 286 403 143 318 200 l 786 286 z m 293 407 b 429 553 293 494 350 553 b 557 407 511 553 557 494 z m 564 782 l 447 997 l 183 997 l 433 782 z "},"ê":{"ha":828,"x_min":0,"x_max":0,"o":"m 786 335 b 444 703 786 613 599 703 b 49 349 181 703 49 549 b 444 -12 49 149 181 -12 b 768 61 628 -12 732 42 l 768 213 b 496 143 682 172 589 143 b 300 286 403 143 318 200 l 786 286 z m 293 407 b 429 553 293 494 350 553 b 557 407 511 553 557 494 z m 683 782 l 560 1017 l 269 1017 l 146 782 l 292 782 l 415 907 l 538 782 z "},"ë":{"ha":828,"x_min":0,"x_max":0,"o":"m 786 335 b 444 703 786 613 599 703 b 49 349 181 703 49 549 b 444 -12 49 149 181 -12 b 768 61 628 -12 732 42 l 768 213 b 496 143 682 172 589 143 b 300 286 403 143 318 200 l 786 286 z m 293 407 b 429 553 293 494 350 553 b 557 407 511 553 557 494 z m 149 875 b 242 782 149 825 189 782 b 335 875 294 782 335 824 b 242 968 335 925 294 968 b 149 875 189 968 149 925 z m 494 875 b 588 782 494 825 533 782 b 681 875 640 782 681 824 b 588 968 681 925 640 968 b 494 875 533 968 494 925 z "},"í":{"ha":425,"x_min":0,"x_max":0,"o":"m 90 690 l 90 0 l 335 0 l 335 690 z m 81 782 l 211 782 l 461 997 l 197 997 z "},"ì":{"ha":425,"x_min":0,"x_max":0,"o":"m 90 690 l 90 0 l 335 0 l 335 690 z m 363 782 l 246 997 l -18 997 l 232 782 z "},"î":{"ha":425,"x_min":0,"x_max":0,"o":"m 90 690 l 90 0 l 335 0 l 335 690 z m 482 782 l 358 1017 l 68 1017 l -56 782 l 90 782 l 214 907 l 336 782 z "},"ï":{"ha":425,"x_min":0,"x_max":0,"o":"m 90 690 l 90 0 l 335 0 l 335 690 z m -53 875 b 40 782 -53 825 -12 782 b 133 875 93 782 133 824 b 40 968 133 925 93 968 b -53 875 -12 968 -53 925 z m 293 875 b 386 782 293 825 332 782 b 479 875 439 782 479 824 b 386 968 479 925 439 968 b 293 875 332 968 293 925 z "},"ñ":{"ha":883,"x_min":0,"x_max":0,"o":"m 78 690 l 78 0 l 322 0 l 322 406 b 471 514 344 435 389 514 b 571 358 576 514 571 403 l 571 0 l 815 0 l 815 406 b 567 703 815 468 824 703 b 322 592 476 703 400 675 l 322 690 z m 601 999 b 549 939 601 974 586 939 b 450 969 529 939 490 954 b 332 999 408 983 365 999 b 174 782 267 999 174 939 l 282 782 b 338 840 285 807 297 840 b 551 782 382 840 482 782 b 711 999 647 782 711 858 z "},"ó":{"ha":889,"x_min":0,"x_max":0,"o":"m 444 703 b 49 346 181 703 49 547 b 444 -12 49 144 181 -12 b 840 346 708 -12 840 144 b 444 703 840 547 708 703 z m 444 521 b 583 346 536 521 583 451 b 444 169 583 240 536 169 b 306 346 353 169 306 240 b 444 521 306 451 353 521 z m 326 782 l 457 782 l 707 997 l 443 997 z "},"ò":{"ha":889,"x_min":0,"x_max":0,"o":"m 444 703 b 49 346 181 703 49 547 b 444 -12 49 144 181 -12 b 840 346 708 -12 840 144 b 444 703 840 547 708 703 z m 444 521 b 583 346 536 521 583 451 b 444 169 583 240 536 169 b 306 346 353 169 306 240 b 444 521 306 451 353 521 z m 594 782 l 478 997 l 214 997 l 464 782 z "},"ô":{"ha":889,"x_min":0,"x_max":0,"o":"m 444 703 b 49 346 181 703 49 547 b 444 -12 49 144 181 -12 b 840 346 708 -12 840 144 b 444 703 840 547 708 703 z m 444 521 b 583 346 536 521 583 451 b 444 169 583 240 536 169 b 306 346 353 169 306 240 b 444 521 306 451 353 521 z m 714 782 l 590 1017 l 300 1017 l 176 782 l 322 782 l 446 907 l 568 782 z "},"ö":{"ha":889,"x_min":0,"x_max":0,"o":"m 444 703 b 49 346 181 703 49 547 b 444 -12 49 144 181 -12 b 840 346 708 -12 840 144 b 444 703 840 547 708 703 z m 444 521 b 583 346 536 521 583 451 b 444 169 583 240 536 169 b 306 346 353 169 306 240 b 444 521 306 451 353 521 z m 179 875 b 272 782 179 825 219 782 b 365 875 325 782 365 824 b 272 968 365 925 325 968 b 179 875 219 968 179 925 z m 525 875 b 618 782 525 825 564 782 b 711 875 671 782 711 824 b 618 968 711 925 671 968 b 525 875 564 968 525 925 z "},"õ":{"ha":889,"x_min":0,"x_max":0,"o":"m 444 703 b 49 346 181 703 49 547 b 444 -12 49 144 181 -12 b 840 346 708 -12 840 144 b 444 703 840 547 708 703 z m 444 521 b 583 346 536 521 583 451 b 444 169 583 240 536 169 b 306 346 353 169 306 240 b 444 521 306 451 353 521 z m 604 999 b 551 939 604 974 589 939 b 453 969 532 939 493 954 b 335 999 411 983 368 999 b 176 782 269 999 176 939 l 285 782 b 340 840 288 807 300 840 b 554 782 385 840 485 782 b 714 999 650 782 714 858 z "},"š":{"ha":672,"x_min":0,"x_max":0,"o":"m 582 647 b 344 703 474 703 361 703 b 64 496 153 703 64 593 b 226 293 64 389 153 325 b 374 193 336 246 374 228 b 282 143 374 154 326 143 b 75 215 197 143 125 186 l 75 42 b 342 -12 146 15 228 -12 b 618 201 533 -12 618 83 b 397 431 618 307 563 367 b 308 499 314 463 308 479 b 382 547 308 511 318 547 b 582 478 479 547 554 493 z m 68 1017 l 192 782 l 482 782 l 606 1017 l 460 1017 l 338 890 l 214 1017 z "},"ú":{"ha":883,"x_min":0,"x_max":0,"o":"m 806 0 l 806 690 l 561 690 l 561 285 b 413 176 543 258 496 176 b 313 332 307 176 313 288 l 313 690 l 68 690 l 68 285 b 317 -12 68 222 60 -12 b 561 99 426 -12 497 29 l 561 0 z m 338 782 l 468 782 l 718 997 l 454 997 z "},"ù":{"ha":883,"x_min":0,"x_max":0,"o":"m 806 0 l 806 690 l 561 690 l 561 285 b 413 176 543 258 496 176 b 313 332 307 176 313 288 l 313 690 l 68 690 l 68 285 b 317 -12 68 222 60 -12 b 561 99 426 -12 497 29 l 561 0 z m 592 782 l 475 997 l 211 997 l 461 782 z "},"û":{"ha":883,"x_min":0,"x_max":0,"o":"m 806 0 l 806 690 l 561 690 l 561 285 b 413 176 543 258 496 176 b 313 332 307 176 313 288 l 313 690 l 68 690 l 68 285 b 317 -12 68 222 60 -12 b 561 99 426 -12 497 29 l 561 0 z m 711 782 l 588 1017 l 297 1017 l 174 782 l 319 782 l 443 907 l 565 782 z "},"ü":{"ha":883,"x_min":0,"x_max":0,"o":"m 806 0 l 806 690 l 561 690 l 561 285 b 413 176 543 258 496 176 b 313 332 307 176 313 288 l 313 690 l 68 690 l 68 285 b 317 -12 68 222 60 -12 b 561 99 426 -12 497 29 l 561 0 z m 176 875 b 269 782 176 825 217 782 b 363 875 322 782 363 824 b 269 968 363 925 322 968 b 176 875 217 968 176 925 z m 522 875 b 615 782 522 825 561 782 b 708 875 668 782 708 824 b 615 968 708 925 668 968 b 522 875 561 968 522 925 z "},"ý":{"ha":810,"x_min":0,"x_max":0,"o":"m 18 690 l 292 90 l 101 -314 l 349 -314 l 818 690 l 581 690 l 421 347 l 281 690 z m 286 782 l 417 782 l 667 997 l 403 997 z "},"ÿ":{"ha":810,"x_min":0,"x_max":0,"o":"m 18 690 l 292 90 l 101 -314 l 349 -314 l 818 690 l 581 690 l 421 347 l 281 690 z m 139 875 b 232 782 139 825 179 782 b 325 875 285 782 325 824 b 232 968 325 925 285 968 b 139 875 179 968 139 925 z m 485 875 b 578 782 485 825 524 782 b 671 875 631 782 671 824 b 578 968 671 925 631 968 b 485 875 524 968 485 925 z "},"ž":{"ha":767,"x_min":0,"x_max":0,"o":"m 47 510 l 350 510 l 19 22 l 19 0 l 728 0 l 728 181 l 404 181 l 735 668 l 735 690 l 47 690 z m 115 1017 l 239 782 l 529 782 l 653 1017 l 507 1017 l 385 890 l 261 1017 z "},"€":{"ha":864,"x_min":0,"x_max":0,"o":"m 724 431 l 357 431 b 356 467 356 443 356 454 b 357 507 356 481 356 494 l 726 507 l 743 624 l 386 624 b 571 754 422 704 488 754 b 813 667 685 754 769 699 l 813 896 b 519 953 751 922 647 953 b 103 624 329 953 156 849 l 19 624 l 3 507 l 86 507 b 86 471 86 496 86 483 b 88 431 86 457 86 444 l 19 431 l 3 314 l 104 314 b 515 -12 153 114 300 -12 b 815 57 615 -12 715 -7 l 815 275 b 558 188 771 240 681 188 b 383 314 474 188 415 240 l 707 314 z "},"⅛":{"ha":1128,"x_min":0,"x_max":0,"o":"m 331 463 l 331 940 l 161 940 l 161 463 z m 782 953 l 139 -33 l 279 -33 l 922 953 z m 743 247 b 650 132 685 228 650 185 b 881 -7 650 82 689 -7 b 1111 132 1075 -7 1111 85 b 1018 247 1111 185 1076 228 b 1096 353 1065 271 1096 300 b 881 490 1096 414 1042 490 b 667 353 722 490 667 413 b 743 247 667 300 697 271 z m 881 289 b 832 342 854 289 832 310 b 881 394 832 368 844 394 b 931 342 917 394 931 365 b 881 289 931 310 908 289 z m 881 88 b 821 146 851 88 821 107 b 881 206 821 186 850 206 b 940 146 913 206 940 186 b 881 88 940 110 911 88 z "},"⅜":{"ha":1128,"x_min":0,"x_max":0,"o":"m 782 953 l 139 -33 l 279 -33 l 922 953 z m 743 247 b 650 132 685 228 650 185 b 881 -7 650 82 689 -7 b 1111 132 1075 -7 1111 85 b 1018 247 1111 185 1076 228 b 1096 353 1065 271 1096 300 b 881 490 1096 414 1042 490 b 667 353 722 490 667 413 b 743 247 667 300 697 271 z m 881 289 b 832 342 854 289 832 310 b 881 394 832 368 844 394 b 931 342 917 394 931 365 b 881 289 931 310 908 289 z m 881 88 b 821 146 851 88 821 107 b 881 206 821 186 850 206 b 940 146 913 206 940 186 b 881 88 940 110 911 88 z m 53 492 b 232 456 90 476 165 456 b 431 600 340 456 431 507 b 358 715 431 647 408 686 b 421 819 403 747 421 782 b 228 953 421 878 361 953 b 68 921 164 953 92 929 l 68 808 b 186 847 129 844 171 847 b 251 803 231 847 251 822 b 149 758 251 758 194 758 l 149 664 b 261 611 200 664 261 657 b 189 567 261 582 225 567 b 53 621 138 567 99 586 z "},"⅝":{"ha":1128,"x_min":0,"x_max":0,"o":"m 782 953 l 139 -33 l 279 -33 l 922 953 z m 743 247 b 650 132 685 228 650 185 b 881 -7 650 82 689 -7 b 1111 132 1075 -7 1111 85 b 1018 247 1111 185 1076 228 b 1096 353 1065 271 1096 300 b 881 490 1096 414 1042 490 b 667 353 722 490 667 413 b 743 247 667 300 697 271 z m 881 289 b 832 342 854 289 832 310 b 881 394 832 368 844 394 b 931 342 917 394 931 365 b 881 289 931 310 908 289 z m 881 88 b 821 146 851 88 821 107 b 881 206 821 186 850 206 b 940 146 913 206 940 186 b 881 88 940 110 911 88 z m 444 940 l 119 940 l 90 665 b 169 678 108 671 132 678 b 274 621 246 678 274 651 b 193 571 274 590 247 571 b 57 606 146 571 88 592 l 57 493 b 238 456 113 468 174 456 b 449 613 376 456 449 525 b 292 751 449 681 393 743 b 246 753 275 753 261 753 l 254 822 l 444 822 z "},"⅞":{"ha":1128,"x_min":0,"x_max":0,"o":"m 782 953 l 139 -33 l 279 -33 l 922 953 z m 743 247 b 650 132 685 228 650 185 b 881 -7 650 82 689 -7 b 1111 132 1075 -7 1111 85 b 1018 247 1111 185 1076 228 b 1096 353 1065 271 1096 300 b 881 490 1096 414 1042 490 b 667 353 722 490 667 413 b 743 247 667 300 697 271 z m 881 289 b 832 342 854 289 832 310 b 881 394 832 368 844 394 b 931 342 917 394 931 365 b 881 289 931 310 908 289 z m 881 88 b 821 146 851 88 821 107 b 881 206 821 186 850 206 b 940 146 913 206 940 186 b 881 88 940 110 911 88 z m 226 458 l 474 928 l 474 940 l 33 940 l 33 808 l 228 808 l 63 488 z "},"⅓":{"ha":1128,"x_min":0,"x_max":0,"o":"m 331 463 l 331 940 l 161 940 l 161 463 z m 782 953 l 139 -33 l 279 -33 l 922 953 z m 688 29 b 867 -7 725 14 800 -7 b 1065 138 975 -7 1065 44 b 993 253 1065 185 1043 224 b 1056 357 1038 285 1056 319 b 863 490 1056 415 996 490 b 703 458 799 490 726 467 l 703 346 b 821 385 764 382 806 385 b 886 340 865 385 886 360 b 783 296 886 296 829 296 l 783 201 b 896 149 835 201 896 194 b 824 104 896 119 860 104 b 688 158 772 104 733 124 z "},"⅔":{"ha":1128,"x_min":0,"x_max":0,"o":"m 782 953 l 139 -33 l 279 -33 l 922 953 z m 688 29 b 867 -7 725 14 800 -7 b 1065 138 975 -7 1065 44 b 993 253 1065 185 1043 224 b 1056 357 1038 285 1056 319 b 863 490 1056 415 996 490 b 703 458 799 490 726 467 l 703 346 b 821 385 764 382 806 385 b 886 340 865 385 886 360 b 783 296 886 296 829 296 l 783 201 b 896 149 835 201 896 194 b 824 104 896 119 860 104 b 688 158 772 104 733 124 z m 465 588 l 300 588 b 424 800 374 667 424 721 b 233 953 424 876 367 953 b 46 897 150 953 92 922 l 46 761 b 189 829 63 776 122 829 b 260 768 233 829 260 804 b 154 603 260 713 213 661 b 28 486 114 563 72 522 l 28 463 l 465 463 z "},"":{"ha":793,"x_min":0,"x_max":0,"o":"m 647 169 b 815 399 736 244 771 310 l 599 399 b 531 290 588 360 565 314 l 447 378 b 606 561 475 394 606 457 b 374 749 606 647 543 749 b 115 544 181 749 115 613 b 190 386 115 465 154 429 b 43 194 74 331 43 265 b 294 -10 43 110 97 -10 b 494 49 386 -10 443 24 l 539 0 l 804 0 z m 368 463 b 313 544 339 489 313 513 b 371 597 313 574 331 597 b 431 549 413 597 431 572 b 368 463 431 532 436 501 z m 382 172 b 310 153 356 157 338 153 b 238 208 256 153 238 179 b 288 275 238 229 247 247 z "},"":{"ha":796,"x_min":0,"x_max":0,"o":"m 36 353 b 400 -12 36 121 207 -12 b 760 357 579 -12 760 107 b 401 724 760 583 607 724 b 36 353 204 724 36 576 z m 399 499 b 515 360 479 499 515 435 b 397 213 515 271 474 213 b 281 357 313 213 281 285 b 399 499 281 433 314 499 z "},"":{"ha":651,"x_min":0,"x_max":0,"o":"m 521 0 l 521 724 l 322 724 l 85 506 l 85 233 l 276 404 l 276 0 z "},"":{"ha":796,"x_min":0,"x_max":0,"o":"m 549 208 b 706 493 674 332 706 400 b 426 724 706 614 640 724 b 72 636 297 724 204 693 l 72 406 b 343 513 167 464 258 513 b 458 433 444 513 458 468 b 243 189 458 356 372 282 l 49 49 l 49 0 l 732 0 l 732 208 z "},"":{"ha":722,"x_min":0,"x_max":0,"o":"m 47 711 l 47 503 l 346 503 l 169 139 b 271 151 186 143 221 151 b 444 13 386 151 444 88 b 278 -114 444 -82 365 -114 b 42 -32 176 -114 111 -79 l 42 -268 b 296 -325 106 -293 185 -325 b 689 11 522 -325 689 -175 b 496 278 689 106 633 240 l 701 711 z "},"":{"ha":821,"x_min":0,"x_max":0,"o":"m 813 0 l 813 161 l 697 161 l 697 724 l 525 724 l 7 161 l 7 0 l 467 0 l 467 -325 l 697 -325 l 697 0 z m 244 161 l 467 406 l 467 161 z "},"":{"ha":708,"x_min":0,"x_max":0,"o":"m 694 711 l 174 711 l 78 113 b 208 121 128 121 190 121 b 422 -11 399 121 422 26 b 278 -114 422 -78 368 -114 b 21 -40 185 -114 110 -83 l 21 -275 b 271 -325 92 -299 164 -325 b 667 19 582 -325 667 -126 b 342 324 667 58 663 292 l 376 503 l 694 503 z "},"":{"ha":790,"x_min":0,"x_max":0,"o":"m 408 960 b 28 360 218 819 28 608 b 400 -12 28 128 196 -12 b 763 325 621 -12 763 151 b 464 631 763 517 608 631 b 394 624 438 631 414 628 b 636 879 421 679 519 776 z m 518 331 b 392 199 518 246 460 199 b 272 329 319 199 272 260 b 397 457 272 400 331 457 b 518 331 492 457 518 381 z "},"":{"ha":767,"x_min":0,"x_max":0,"o":"m 356 -243 l 757 682 l 757 711 l 44 711 l 44 503 l 425 503 l 136 -174 z "},"":{"ha":789,"x_min":0,"x_max":0,"o":"m 179 485 b 28 253 61 419 28 328 b 394 -12 28 149 97 -12 b 761 253 679 -12 761 133 b 611 485 761 318 733 424 b 731 686 660 510 731 575 b 396 953 731 797 644 953 b 60 686 126 953 60 785 b 179 485 60 583 131 507 z m 394 550 b 297 668 322 550 297 621 b 397 786 297 719 319 786 b 493 668 469 786 493 717 b 394 550 493 603 456 550 z m 394 175 b 272 293 326 175 272 225 b 394 411 272 361 326 411 b 517 293 463 411 517 361 b 394 175 517 225 463 175 z "},"":{"ha":790,"x_min":0,"x_max":0,"o":"m 382 -249 b 763 351 607 -89 763 135 b 390 724 763 540 639 724 b 28 386 169 724 28 560 b 333 81 28 204 172 81 b 396 88 360 81 376 85 b 154 -168 324 -19 254 -81 z m 272 381 b 399 513 272 465 331 513 b 518 382 471 513 518 451 b 393 254 518 325 474 254 b 272 381 299 254 272 331 z "},"ﬀ":{"ha":960,"x_min":0,"x_max":0,"o":"m 938 489 l 938 654 l 814 654 l 814 679 b 897 778 814 743 846 778 b 988 765 926 778 961 771 l 988 940 b 865 953 958 946 915 953 b 569 667 636 953 569 797 l 569 654 l 367 654 l 367 679 b 450 778 367 743 399 778 b 540 765 479 778 514 771 l 540 940 b 418 953 511 946 468 953 b 122 667 189 953 122 797 l 122 654 l 10 654 l 10 489 l 122 489 l 122 0 l 367 0 l 367 489 l 569 489 l 569 0 l 814 0 l 814 489 z "},"ﬃ":{"ha":1351,"x_min":0,"x_max":0,"o":"m 938 489 l 938 654 l 814 654 l 814 679 b 897 778 814 743 846 778 b 967 771 926 778 950 774 l 967 942 b 865 953 938 947 915 953 b 569 667 629 953 569 792 l 569 654 l 367 654 l 367 679 b 450 778 367 743 399 778 b 540 765 479 778 514 771 l 540 940 b 418 953 511 946 468 953 b 122 667 189 953 122 797 l 122 654 l 10 654 l 10 489 l 122 489 l 122 0 l 367 0 l 367 489 l 569 489 l 569 0 l 814 0 l 814 489 z m 1017 690 l 1017 0 l 1261 0 l 1261 690 z m 1139 953 b 1036 850 1082 953 1036 907 b 1139 747 1036 793 1082 747 b 1242 850 1196 747 1242 793 b 1139 953 1242 907 1196 953 z "},"ﬄ":{"ha":1351,"x_min":0,"x_max":0,"o":"m 938 489 l 938 654 l 814 654 l 814 679 b 897 778 814 743 846 778 b 967 771 926 778 950 774 l 967 942 b 865 953 942 947 915 953 b 569 667 657 953 569 825 l 569 654 l 367 654 l 367 679 b 450 778 367 743 399 778 b 540 765 479 778 514 771 l 540 940 b 418 953 511 946 468 953 b 122 667 189 953 122 797 l 122 654 l 10 654 l 10 489 l 122 489 l 122 0 l 367 0 l 367 489 l 569 489 l 569 0 l 814 0 l 814 489 z m 1017 940 l 1017 0 l 1261 0 l 1261 940 z "},"":{"ha":876,"x_min":0,"x_max":0,"o":"m 874 0 l 550 739 l 281 739 l 3 0 l 258 0 l 286 101 l 558 101 l 596 0 z m 504 251 l 329 251 l 406 493 z "},"":{"ha":825,"x_min":0,"x_max":0,"o":"m 81 0 l 486 0 b 778 224 708 0 778 107 b 647 404 778 335 717 382 b 736 551 676 422 736 457 b 454 739 736 639 700 739 l 81 739 z m 322 303 l 439 303 b 533 226 479 303 533 293 b 418 158 533 158 469 158 l 322 158 z m 401 581 b 492 515 443 581 492 581 b 403 449 492 454 444 449 l 318 449 l 318 581 z "},"":{"ha":825,"x_min":0,"x_max":0,"o":"m 756 690 b 506 749 718 711 642 749 b 47 368 201 749 47 575 b 478 -10 47 178 190 -10 b 764 71 615 -10 696 31 l 764 269 b 493 178 678 224 592 178 b 299 369 393 178 299 246 b 500 561 299 474 372 561 b 756 469 644 561 715 503 z "},"":{"ha":863,"x_min":0,"x_max":0,"o":"m 81 0 l 393 0 b 815 368 749 0 815 243 b 394 739 815 482 753 739 l 81 739 z m 322 551 l 400 551 b 564 368 494 551 564 490 b 400 188 564 274 510 188 l 322 188 z "},"":{"ha":713,"x_min":0,"x_max":0,"o":"m 649 739 l 81 739 l 81 0 l 657 0 l 657 169 l 322 169 l 322 299 l 633 299 l 633 458 l 322 458 l 322 569 l 649 569 z "},"":{"ha":678,"x_min":0,"x_max":0,"o":"m 622 739 l 81 739 l 81 0 l 322 0 l 322 257 l 622 257 l 622 426 l 322 426 l 322 569 l 622 569 z "},"":{"ha":874,"x_min":0,"x_max":0,"o":"m 786 697 b 508 749 689 728 617 749 b 47 368 193 749 47 569 b 482 -10 47 143 228 -10 b 804 89 642 -10 753 47 l 804 410 l 471 410 l 471 271 l 563 271 l 563 188 b 488 178 532 179 515 178 b 299 365 378 178 299 239 b 506 561 299 485 378 561 b 786 501 621 561 719 526 z "},"":{"ha":911,"x_min":0,"x_max":0,"o":"m 81 739 l 81 0 l 322 0 l 322 271 l 589 271 l 589 0 l 831 0 l 831 739 l 589 739 l 589 468 l 322 468 l 322 739 z "},"":{"ha":403,"x_min":0,"x_max":0,"o":"m 322 739 l 81 739 l 81 0 l 322 0 z "},"":{"ha":422,"x_min":0,"x_max":0,"o":"m 100 129 b -19 -46 100 -7 103 -46 l -61 -46 l -35 -236 b 63 -246 -1 -242 24 -246 b 342 111 301 -246 342 -76 l 342 739 l 100 739 z "},"":{"ha":863,"x_min":0,"x_max":0,"o":"m 81 739 l 81 0 l 322 0 l 322 296 l 560 0 l 863 0 l 539 404 l 788 739 l 528 739 l 322 469 l 322 739 z "},"":{"ha":700,"x_min":0,"x_max":0,"o":"m 81 739 l 81 0 l 675 0 l 675 197 l 322 197 l 322 739 z "},"":{"ha":1014,"x_min":0,"x_max":0,"o":"m 507 461 l 253 739 l 81 739 l 81 0 l 317 0 l 317 364 l 494 163 l 518 163 l 692 364 l 692 0 l 933 0 l 933 739 l 760 739 z "},"":{"ha":904,"x_min":0,"x_max":0,"o":"m 81 739 l 81 0 l 322 0 l 322 363 l 625 0 l 824 0 l 824 739 l 582 739 l 582 400 l 294 739 z "},"":{"ha":926,"x_min":0,"x_max":0,"o":"m 47 368 b 463 -10 47 146 238 -10 b 879 371 704 -10 879 164 b 461 749 879 600 669 749 b 47 368 217 749 47 561 z m 463 533 b 628 369 553 533 628 460 b 463 206 628 279 553 206 b 299 369 372 206 299 279 b 463 533 299 460 372 533 z "},"":{"ha":774,"x_min":0,"x_max":0,"o":"m 81 0 l 322 0 l 322 254 l 482 254 b 738 501 654 254 738 382 b 482 739 738 604 654 739 l 81 739 z m 322 572 l 400 572 b 496 500 432 572 496 572 b 400 421 496 421 432 421 l 322 421 z "},"":{"ha":926,"x_min":0,"x_max":0,"o":"m 896 -50 b 661 35 846 -36 701 -1 b 879 371 797 101 879 222 b 461 749 879 600 669 749 b 47 365 207 749 47 553 b 319 14 47 190 169 61 b 732 -190 415 -71 483 -132 z m 463 533 b 628 369 553 533 628 460 b 463 206 628 279 553 206 b 299 369 372 206 299 279 b 463 533 299 460 372 533 z "},"":{"ha":813,"x_min":0,"x_max":0,"o":"m 81 0 l 322 0 l 322 258 l 403 258 b 476 210 436 258 456 249 b 547 0 493 179 529 65 l 807 0 b 742 163 774 79 767 99 b 653 318 703 261 683 296 b 750 508 722 364 750 446 b 432 739 750 622 696 739 l 81 739 z m 322 572 l 396 572 b 499 489 460 572 499 540 b 394 404 499 438 460 404 l 322 404 z "},"":{"ha":681,"x_min":0,"x_max":0,"o":"m 610 693 b 340 749 535 722 460 749 b 44 528 122 749 44 625 b 240 304 44 463 68 367 b 399 200 400 246 399 226 b 350 163 399 178 381 163 b 58 258 282 163 213 172 l 58 51 b 346 -10 149 11 246 -10 b 640 217 517 -10 640 83 b 451 432 640 285 615 368 b 283 526 328 481 283 490 b 356 582 283 551 300 582 b 610 504 471 582 557 531 z "},"":{"ha":794,"x_min":0,"x_max":0,"o":"m 761 739 l 33 739 l 33 533 l 276 533 l 276 0 l 518 0 l 518 533 l 761 533 z "},"":{"ha":897,"x_min":0,"x_max":0,"o":"m 72 739 l 72 325 b 444 -10 72 92 225 -10 b 825 332 669 -10 825 79 l 825 739 l 582 739 l 582 361 b 454 206 582 256 538 206 b 315 368 365 206 315 269 l 315 739 z "},"":{"ha":822,"x_min":0,"x_max":0,"o":"m 353 -10 l 468 -10 l 819 739 l 571 739 l 410 365 l 251 739 l 3 739 z "},"":{"ha":1293,"x_min":0,"x_max":0,"o":"m 715 739 l 576 739 l 413 369 l 249 739 l 0 739 l 354 -10 l 457 -10 l 646 424 l 836 -10 l 938 -10 l 1293 739 l 1043 739 l 879 369 z "},"":{"ha":931,"x_min":0,"x_max":0,"o":"m 3 0 l 299 0 l 465 242 l 632 0 l 928 0 l 613 385 l 903 739 l 607 739 l 465 526 l 324 739 l 26 739 l 317 385 z "},"":{"ha":818,"x_min":0,"x_max":0,"o":"m 0 739 l 289 290 l 289 0 l 531 0 l 531 290 l 818 739 l 557 739 l 408 472 l 261 739 z "},"":{"ha":776,"x_min":0,"x_max":0,"o":"m 751 0 l 751 200 l 396 200 l 740 739 l 43 739 l 43 539 l 369 539 l 19 0 z "},"":{"ha":700,"x_min":0,"x_max":0,"o":"m 322 543 l 322 739 l 81 739 l 81 354 l 6 294 l 6 117 l 81 176 l 81 0 l 675 0 l 675 197 l 322 197 l 322 368 l 468 485 l 468 660 z "},"":{"ha":681,"x_min":0,"x_max":0,"o":"m 610 693 b 340 749 535 722 460 749 b 44 528 122 749 44 625 b 240 304 44 463 68 367 b 399 200 400 246 399 226 b 350 163 399 178 381 163 b 58 258 282 163 213 172 l 58 51 b 346 -10 149 11 246 -10 b 640 217 517 -10 640 83 b 451 432 640 285 615 368 b 283 526 328 481 283 490 b 356 582 283 551 300 582 b 610 504 471 582 557 531 z m 72 1075 l 196 840 l 486 840 l 610 1075 l 464 1075 l 342 949 l 218 1075 z "},"":{"ha":776,"x_min":0,"x_max":0,"o":"m 751 0 l 751 200 l 396 200 l 740 739 l 43 739 l 43 539 l 369 539 l 19 0 z m 119 1075 l 243 840 l 533 840 l 657 1075 l 511 1075 l 389 949 l 265 1075 z "},"":{"ha":876,"x_min":0,"x_max":0,"o":"m 874 0 l 550 739 l 281 739 l 3 0 l 258 0 l 286 101 l 558 101 l 596 0 z m 504 251 l 329 251 l 406 493 z m 588 840 l 471 1056 l 207 1056 l 457 840 z "},"":{"ha":876,"x_min":0,"x_max":0,"o":"m 874 0 l 550 739 l 281 739 l 3 0 l 258 0 l 286 101 l 558 101 l 596 0 z m 504 251 l 329 251 l 406 493 z m 297 840 l 428 840 l 678 1056 l 414 1056 z "},"":{"ha":876,"x_min":0,"x_max":0,"o":"m 874 0 l 550 739 l 281 739 l 3 0 l 258 0 l 286 101 l 558 101 l 596 0 z m 504 251 l 329 251 l 406 493 z m 685 840 l 561 1075 l 271 1075 l 147 840 l 293 840 l 417 965 l 539 840 z "},"":{"ha":876,"x_min":0,"x_max":0,"o":"m 874 0 l 550 739 l 281 739 l 3 0 l 258 0 l 286 101 l 558 101 l 596 0 z m 504 251 l 329 251 l 406 493 z m 597 1057 b 544 997 597 1032 582 997 b 446 1028 525 997 486 1013 b 328 1057 404 1042 361 1057 b 169 840 263 1057 169 997 l 278 840 b 333 899 281 865 293 899 b 547 840 378 899 478 840 b 707 1057 643 840 707 917 z "},"":{"ha":876,"x_min":0,"x_max":0,"o":"m 874 0 l 550 739 l 281 739 l 3 0 l 258 0 l 286 101 l 558 101 l 596 0 z m 504 251 l 329 251 l 406 493 z m 150 933 b 243 840 150 883 190 840 b 336 933 296 840 336 882 b 243 1026 336 983 296 1026 b 150 933 190 1026 150 983 z m 496 933 b 589 840 496 883 535 840 b 682 933 642 840 682 882 b 589 1026 682 983 642 1026 b 496 933 535 1026 496 983 z "},"":{"ha":876,"x_min":0,"x_max":0,"o":"m 874 0 l 550 739 l 281 739 l 3 0 l 258 0 l 286 101 l 558 101 l 596 0 z m 504 251 l 329 251 l 406 493 z m 415 1118 b 276 979 338 1118 276 1057 b 415 839 276 901 338 839 b 556 979 493 839 556 901 b 415 1118 556 1057 493 1118 z m 415 1051 b 489 979 456 1051 489 1019 b 415 906 489 939 456 906 b 343 979 375 906 343 939 b 415 1051 343 1019 375 1051 z "},"":{"ha":1174,"x_min":0,"x_max":0,"o":"m 551 0 l 1118 0 l 1118 169 l 793 169 l 793 292 l 1093 292 l 1093 451 l 793 451 l 793 569 l 1110 569 l 1110 739 l 456 739 l 0 0 l 253 0 l 318 113 l 551 113 z m 404 282 l 551 526 l 551 282 z "},"":{"ha":825,"x_min":0,"x_max":0,"o":"m 525 -7 b 764 71 646 3 696 31 l 764 269 b 493 178 678 224 592 178 b 299 369 393 178 299 246 b 500 561 299 474 372 561 b 756 469 644 561 715 503 l 756 690 b 506 749 718 711 642 749 b 47 368 201 749 47 575 b 408 -6 47 178 179 19 l 338 -101 b 403 -144 378 -100 403 -117 b 268 -199 403 -192 336 -199 l 268 -292 l 401 -292 b 625 -157 564 -292 625 -228 b 510 -40 625 -100 583 -58 z "},"":{"ha":713,"x_min":0,"x_max":0,"o":"m 649 739 l 81 739 l 81 0 l 657 0 l 657 169 l 322 169 l 322 299 l 633 299 l 633 458 l 322 458 l 322 569 l 649 569 z m 506 840 l 389 1056 l 125 1056 l 375 840 z "},"":{"ha":713,"x_min":0,"x_max":0,"o":"m 649 739 l 81 739 l 81 0 l 657 0 l 657 169 l 322 169 l 322 299 l 633 299 l 633 458 l 322 458 l 322 569 l 649 569 z m 238 840 l 368 840 l 618 1056 l 354 1056 z "},"":{"ha":713,"x_min":0,"x_max":0,"o":"m 649 739 l 81 739 l 81 0 l 657 0 l 657 169 l 322 169 l 322 299 l 633 299 l 633 458 l 322 458 l 322 569 l 649 569 z m 625 840 l 501 1075 l 211 1075 l 88 840 l 233 840 l 357 965 l 479 840 z "},"":{"ha":713,"x_min":0,"x_max":0,"o":"m 649 739 l 81 739 l 81 0 l 657 0 l 657 169 l 322 169 l 322 299 l 633 299 l 633 458 l 322 458 l 322 569 l 649 569 z m 90 933 b 183 840 90 883 131 840 b 276 933 236 840 276 882 b 183 1026 276 983 236 1026 b 90 933 131 1026 90 983 z m 436 933 b 529 840 436 883 475 840 b 622 933 582 840 622 882 b 529 1026 622 983 582 1026 b 436 933 475 1026 436 983 z "},"":{"ha":403,"x_min":0,"x_max":0,"o":"m 322 739 l 81 739 l 81 0 l 322 0 z m 351 840 l 235 1056 l -29 1056 l 221 840 z "},"":{"ha":403,"x_min":0,"x_max":0,"o":"m 322 739 l 81 739 l 81 0 l 322 0 z m 61 840 l 192 840 l 442 1056 l 178 1056 z "},"":{"ha":403,"x_min":0,"x_max":0,"o":"m 322 739 l 81 739 l 81 0 l 322 0 z m 471 840 l 347 1075 l 57 1075 l -67 840 l 79 840 l 203 965 l 325 840 z "},"":{"ha":403,"x_min":0,"x_max":0,"o":"m 322 739 l 81 739 l 81 0 l 322 0 z m -64 933 b 29 840 -64 883 -24 840 b 122 933 82 840 122 882 b 29 1026 122 983 82 1026 b -64 933 -24 1026 -64 983 z m 282 933 b 375 840 282 883 321 840 b 468 933 428 840 468 882 b 375 1026 468 983 428 1026 b 282 933 321 1026 282 983 z "},"":{"ha":863,"x_min":0,"x_max":0,"o":"m 81 319 l 81 0 l 393 0 b 815 368 749 0 815 243 b 394 739 815 482 753 739 l 81 739 l 81 421 l 7 421 l 7 319 z m 321 319 l 439 319 l 439 421 l 321 421 l 321 551 l 400 551 b 564 368 526 551 564 450 b 400 188 564 292 526 188 l 321 188 z "},"":{"ha":904,"x_min":0,"x_max":0,"o":"m 81 739 l 81 0 l 322 0 l 322 363 l 625 0 l 824 0 l 824 739 l 582 739 l 582 400 l 294 739 z m 611 1057 b 558 997 611 1032 596 997 b 460 1028 539 997 500 1013 b 342 1057 418 1042 375 1057 b 183 840 276 1057 183 997 l 292 840 b 347 899 294 865 307 899 b 561 840 392 899 492 840 b 721 1057 657 840 721 917 z "},"":{"ha":926,"x_min":0,"x_max":0,"o":"m 47 368 b 463 -10 47 146 238 -10 b 879 371 704 -10 879 164 b 461 749 879 600 669 749 b 47 368 217 749 47 561 z m 463 533 b 628 369 553 533 628 460 b 463 206 628 279 553 206 b 299 369 372 206 299 279 b 463 533 299 460 372 533 z m 613 840 l 496 1056 l 232 1056 l 482 840 z "},"":{"ha":926,"x_min":0,"x_max":0,"o":"m 47 368 b 463 -10 47 146 238 -10 b 879 371 704 -10 879 164 b 461 749 879 600 669 749 b 47 368 217 749 47 561 z m 463 533 b 628 369 553 533 628 460 b 463 206 628 279 553 206 b 299 369 372 206 299 279 b 463 533 299 460 372 533 z m 344 840 l 475 840 l 725 1056 l 461 1056 z "},"":{"ha":926,"x_min":0,"x_max":0,"o":"m 47 368 b 463 -10 47 146 238 -10 b 879 371 704 -10 879 164 b 461 749 879 600 669 749 b 47 368 217 749 47 561 z m 463 533 b 628 369 553 533 628 460 b 463 206 628 279 553 206 b 299 369 372 206 299 279 b 463 533 299 460 372 533 z m 732 840 l 608 1075 l 318 1075 l 194 840 l 340 840 l 464 965 l 586 840 z "},"":{"ha":926,"x_min":0,"x_max":0,"o":"m 47 368 b 463 -10 47 146 238 -10 b 879 371 704 -10 879 164 b 461 749 879 600 669 749 b 47 368 217 749 47 561 z m 463 533 b 628 369 553 533 628 460 b 463 206 628 279 553 206 b 299 369 372 206 299 279 b 463 533 299 460 372 533 z m 622 1057 b 569 997 622 1032 607 997 b 471 1028 550 997 511 1013 b 353 1057 429 1042 386 1057 b 194 840 288 1057 194 997 l 303 840 b 358 899 306 865 318 899 b 572 840 403 899 503 840 b 732 1057 668 840 732 917 z "},"":{"ha":926,"x_min":0,"x_max":0,"o":"m 47 368 b 463 -10 47 146 238 -10 b 879 371 704 -10 879 164 b 461 749 879 600 669 749 b 47 368 217 749 47 561 z m 463 533 b 628 369 553 533 628 460 b 463 206 628 279 553 206 b 299 369 372 206 299 279 b 463 533 299 460 372 533 z m 197 933 b 290 840 197 883 238 840 b 383 933 343 840 383 882 b 290 1026 383 983 343 1026 b 197 933 238 1026 197 983 z m 543 933 b 636 840 543 883 582 840 b 729 933 689 840 729 882 b 636 1026 729 983 689 1026 b 543 933 582 1026 543 983 z "},"":{"ha":1178,"x_min":0,"x_max":0,"o":"m 1115 739 l 467 739 b 47 374 219 739 47 619 b 467 0 47 124 225 0 l 1122 0 l 1122 169 l 799 169 l 799 300 l 1099 300 l 1099 460 l 799 460 l 799 569 l 1115 569 z m 557 169 l 508 169 b 299 368 367 169 299 253 b 508 569 299 493 367 569 l 557 569 z "},"":{"ha":926,"x_min":0,"x_max":0,"o":"m 318 292 b 463 533 267 382 325 533 b 540 514 504 533 528 521 z m 144 119 l 67 42 l 128 -19 l 211 64 b 463 -10 282 19 354 -10 b 879 371 703 -10 879 157 b 775 622 879 485 843 563 l 847 694 l 785 757 l 706 678 b 461 749 656 711 583 749 b 47 368 189 749 47 536 b 144 119 47 249 103 167 z m 376 231 l 603 456 b 467 206 681 319 561 206 b 376 231 432 206 396 217 z "},"":{"ha":897,"x_min":0,"x_max":0,"o":"m 72 739 l 72 325 b 444 -10 72 92 225 -10 b 825 332 669 -10 825 79 l 825 739 l 582 739 l 582 361 b 454 206 582 256 538 206 b 315 368 365 206 315 269 l 315 739 z m 599 840 l 482 1056 l 218 1056 l 468 840 z "},"":{"ha":897,"x_min":0,"x_max":0,"o":"m 72 739 l 72 325 b 444 -10 72 92 225 -10 b 825 332 669 -10 825 79 l 825 739 l 582 739 l 582 361 b 454 206 582 256 538 206 b 315 368 365 206 315 269 l 315 739 z m 331 840 l 461 840 l 711 1056 l 447 1056 z "},"":{"ha":897,"x_min":0,"x_max":0,"o":"m 72 739 l 72 325 b 444 -10 72 92 225 -10 b 825 332 669 -10 825 79 l 825 739 l 582 739 l 582 361 b 454 206 582 256 538 206 b 315 368 365 206 315 269 l 315 739 z m 718 840 l 594 1075 l 304 1075 l 181 840 l 326 840 l 450 965 l 572 840 z "},"":{"ha":897,"x_min":0,"x_max":0,"o":"m 72 739 l 72 325 b 444 -10 72 92 225 -10 b 825 332 669 -10 825 79 l 825 739 l 582 739 l 582 361 b 454 206 582 256 538 206 b 315 368 365 206 315 269 l 315 739 z m 183 933 b 276 840 183 883 224 840 b 369 933 329 840 369 882 b 276 1026 369 983 329 1026 b 183 933 224 1026 183 983 z m 529 933 b 622 840 529 883 568 840 b 715 933 675 840 715 882 b 622 1026 715 983 675 1026 b 529 933 568 1026 529 983 z "},"":{"ha":818,"x_min":0,"x_max":0,"o":"m 0 739 l 289 290 l 289 0 l 531 0 l 531 290 l 818 739 l 557 739 l 408 472 l 261 739 z m 290 840 l 421 840 l 671 1056 l 407 1056 z "},"":{"ha":774,"x_min":0,"x_max":0,"o":"m 81 0 l 322 0 l 322 128 l 482 128 b 738 375 654 128 738 256 b 482 613 738 478 650 613 l 322 613 l 322 739 l 81 739 z m 322 446 l 400 446 b 496 374 432 446 496 446 b 400 294 496 294 432 294 l 322 294 z "},"":{"ha":818,"x_min":0,"x_max":0,"o":"m 0 739 l 289 290 l 289 0 l 531 0 l 531 290 l 818 739 l 557 739 l 408 472 l 261 739 z m 143 933 b 236 840 143 883 183 840 b 329 933 289 840 329 882 b 236 1026 329 983 289 1026 b 143 933 183 1026 143 983 z m 489 933 b 582 840 489 883 528 840 b 675 933 635 840 675 882 b 582 1026 675 983 635 1026 b 489 933 528 1026 489 983 z "},"Ă":{"ha":1157,"x_min":0,"x_max":0,"o":"m 783 190 l 860 0 l 1150 0 l 736 940 l 422 940 l 7 0 l 297 0 l 375 190 z m 442 354 l 581 697 l 718 354 z m 322 1239 b 578 1004 333 1107 447 1004 b 835 1239 719 1004 819 1124 l 714 1239 b 579 1143 703 1213 679 1143 b 443 1239 482 1143 451 1221 z "},"Ā":{"ha":1157,"x_min":0,"x_max":0,"o":"m 783 190 l 860 0 l 1150 0 l 736 940 l 422 940 l 7 0 l 297 0 l 375 190 z m 442 354 l 581 697 l 718 354 z m 840 1019 l 840 1186 l 317 1186 l 317 1019 z "},"Ą":{"ha":1157,"x_min":0,"x_max":0,"o":"m 929 0 b 908 -136 925 -11 908 -62 b 1069 -290 908 -222 979 -290 b 1203 -274 1107 -290 1157 -292 l 1203 -149 b 1160 -153 1200 -149 1182 -153 b 1047 -57 1106 -153 1047 -122 b 1056 0 1047 -36 1050 -24 l 1150 0 l 736 940 l 422 940 l 7 0 l 297 0 l 375 190 l 783 190 l 860 0 z m 442 354 l 581 697 l 718 354 z "},"Ǽ":{"ha":1546,"x_min":0,"x_max":0,"o":"m 601 940 l 7 0 l 294 0 l 500 350 l 771 350 l 771 0 l 1474 0 l 1474 189 l 1054 189 l 1054 390 l 1440 390 l 1440 579 l 1054 579 l 1054 751 l 1464 751 l 1464 940 z m 771 513 l 597 513 l 771 808 z m 860 1004 l 990 1004 l 1240 1219 l 976 1219 z "},"Ć":{"ha":1032,"x_min":0,"x_max":0,"o":"m 960 308 b 642 207 904 274 793 207 b 346 467 468 207 346 324 b 657 733 346 632 496 733 b 956 632 797 733 903 664 l 956 882 b 593 953 881 908 751 953 b 57 471 310 953 57 803 b 589 -12 57 183 257 -12 b 960 71 713 -12 836 7 z m 464 1004 l 594 1004 l 844 1219 l 581 1219 z "},"Č":{"ha":1032,"x_min":0,"x_max":0,"o":"m 960 308 b 642 207 904 274 793 207 b 346 467 468 207 346 324 b 657 733 346 632 496 733 b 956 632 797 733 903 664 l 956 882 b 593 953 881 908 751 953 b 57 471 310 953 57 803 b 589 -12 57 183 257 -12 b 960 71 713 -12 836 7 z m 331 1239 l 454 1004 l 744 1004 l 868 1239 l 722 1239 l 600 1113 l 476 1239 z "},"Ĉ":{"ha":1032,"x_min":0,"x_max":0,"o":"m 960 308 b 642 207 904 274 793 207 b 346 467 468 207 346 324 b 657 733 346 632 496 733 b 956 632 797 733 903 664 l 956 882 b 593 953 881 908 751 953 b 57 471 310 953 57 803 b 589 -12 57 183 257 -12 b 960 71 713 -12 836 7 z m 856 1004 l 732 1239 l 442 1239 l 318 1004 l 464 1004 l 588 1129 l 710 1004 z "},"Ċ":{"ha":1032,"x_min":0,"x_max":0,"o":"m 960 308 b 642 207 904 274 793 207 b 346 467 468 207 346 324 b 657 733 346 632 496 733 b 956 632 797 733 903 664 l 956 882 b 593 953 881 908 751 953 b 57 471 310 953 57 803 b 589 -12 57 183 257 -12 b 960 71 713 -12 836 7 z m 506 1097 b 599 1004 506 1047 546 1004 b 692 1097 651 1004 692 1046 b 599 1190 692 1147 651 1190 b 506 1097 546 1190 506 1147 z "},"Ď":{"ha":1142,"x_min":0,"x_max":0,"o":"m 118 940 l 118 0 l 611 0 b 908 79 638 0 800 -6 b 1085 453 971 128 1085 232 b 921 824 1085 625 1010 751 b 508 940 851 881 744 940 z m 401 751 l 522 751 b 796 465 624 751 796 715 b 522 194 796 215 624 194 l 401 194 z m 288 1239 l 411 1004 l 701 1004 l 825 1239 l 679 1239 l 557 1113 l 433 1239 z "},"Đ":{"ha":1142,"x_min":0,"x_max":0,"o":"m 118 940 l 118 543 l 14 543 l 14 397 l 118 397 l 118 0 l 611 0 b 908 79 638 0 800 -6 b 1085 453 971 128 1085 232 b 921 824 1085 625 1010 751 b 508 940 851 881 744 940 z m 401 751 l 522 751 b 796 465 624 751 796 715 b 522 194 796 215 624 194 l 401 194 l 401 397 l 594 397 l 594 543 l 401 543 z "},"Ĕ":{"ha":899,"x_min":0,"x_max":0,"o":"m 401 189 l 401 390 l 796 390 l 796 579 l 401 579 l 401 751 l 815 751 l 815 940 l 118 940 l 118 0 l 826 0 l 826 189 z m 207 1239 b 463 1004 218 1107 332 1004 b 719 1239 604 1004 704 1124 l 599 1239 b 464 1143 588 1213 564 1143 b 328 1239 367 1143 336 1221 z "},"Ě":{"ha":899,"x_min":0,"x_max":0,"o":"m 401 189 l 401 390 l 796 390 l 796 579 l 401 579 l 401 751 l 815 751 l 815 940 l 118 940 l 118 0 l 826 0 l 826 189 z m 194 1239 l 318 1004 l 608 1004 l 732 1239 l 586 1239 l 464 1113 l 340 1239 z "},"Ė":{"ha":899,"x_min":0,"x_max":0,"o":"m 401 189 l 401 390 l 796 390 l 796 579 l 401 579 l 401 751 l 815 751 l 815 940 l 118 940 l 118 0 l 826 0 l 826 189 z m 369 1097 b 463 1004 369 1047 410 1004 b 556 1097 515 1004 556 1046 b 463 1190 556 1147 515 1190 b 369 1097 410 1190 369 1147 z "},"Ē":{"ha":899,"x_min":0,"x_max":0,"o":"m 401 189 l 401 390 l 796 390 l 796 579 l 401 579 l 401 751 l 815 751 l 815 940 l 118 940 l 118 0 l 826 0 l 826 189 z m 725 1019 l 725 1186 l 201 1186 l 201 1019 z "},"Ŋ":{"ha":1229,"x_min":0,"x_max":0,"o":"m 1125 483 b 718 953 1125 757 1017 953 b 401 817 531 953 453 868 l 401 940 l 118 940 l 118 0 l 401 0 l 401 576 b 629 731 428 640 479 731 b 842 489 799 731 842 621 l 842 368 b 721 196 842 232 758 196 b 683 200 710 196 700 196 l 671 -6 b 754 -11 700 -8 726 -11 b 1125 382 1026 -11 1125 143 z "},"Ę":{"ha":899,"x_min":0,"x_max":0,"o":"m 553 0 b 532 -136 549 -11 532 -62 b 693 -290 532 -222 603 -290 b 826 -274 731 -290 781 -292 l 826 -149 b 783 -153 824 -149 806 -153 b 671 -57 729 -153 671 -122 b 679 0 671 -36 674 -24 l 826 0 l 826 189 l 401 189 l 401 390 l 796 390 l 796 579 l 401 579 l 401 751 l 815 751 l 815 940 l 118 940 l 118 0 z "},"Ğ":{"ha":1110,"x_min":0,"x_max":0,"o":"m 986 885 b 604 953 922 906 793 953 b 210 833 478 953 344 939 b 57 472 100 747 57 597 b 589 -12 57 133 313 -12 b 853 18 690 -12 782 1 b 1004 67 910 32 949 46 l 1004 518 l 629 518 l 629 329 l 757 329 l 757 218 b 642 204 725 211 690 204 b 346 468 444 204 346 329 b 674 750 346 567 407 750 b 986 663 833 750 931 694 z m 354 1239 b 610 1004 365 1107 479 1004 b 867 1239 751 1004 851 1124 l 746 1239 b 611 1143 735 1213 711 1143 b 475 1239 514 1143 483 1221 z "},"Ĝ":{"ha":1110,"x_min":0,"x_max":0,"o":"m 986 885 b 604 953 922 906 793 953 b 210 833 478 953 344 939 b 57 472 100 747 57 597 b 589 -12 57 133 313 -12 b 853 18 690 -12 782 1 b 1004 67 910 32 949 46 l 1004 518 l 629 518 l 629 329 l 757 329 l 757 218 b 642 204 725 211 690 204 b 346 468 444 204 346 329 b 674 750 346 567 407 750 b 986 663 833 750 931 694 z m 865 1004 l 742 1239 l 451 1239 l 328 1004 l 474 1004 l 597 1129 l 719 1004 z "},"Ģ":{"ha":1110,"x_min":0,"x_max":0,"o":"m 986 885 b 604 953 922 906 793 953 b 210 833 478 953 344 939 b 57 472 100 747 57 597 b 589 -12 57 133 313 -12 b 853 18 690 -12 782 1 b 1004 67 910 32 949 46 l 1004 518 l 629 518 l 629 329 l 757 329 l 757 218 b 642 204 725 211 690 204 b 346 468 444 204 346 329 b 674 750 346 567 407 750 b 986 663 833 750 931 694 z m 429 -314 b 569 -335 475 -326 521 -335 b 792 -210 701 -335 792 -292 b 543 -78 792 -103 700 -78 l 460 -78 l 453 -154 b 571 -192 513 -154 571 -157 b 465 -236 571 -224 547 -236 b 429 -235 450 -236 442 -236 z "},"Ġ":{"ha":1110,"x_min":0,"x_max":0,"o":"m 986 885 b 604 953 922 906 793 953 b 210 833 478 953 344 939 b 57 472 100 747 57 597 b 589 -12 57 133 313 -12 b 853 18 690 -12 782 1 b 1004 67 910 32 949 46 l 1004 518 l 629 518 l 629 329 l 757 329 l 757 218 b 642 204 725 211 690 204 b 346 468 444 204 346 329 b 674 750 346 567 407 750 b 986 663 833 750 931 694 z m 500 1097 b 593 1004 500 1047 540 1004 b 686 1097 646 1004 686 1046 b 593 1190 686 1147 646 1190 b 500 1097 540 1190 500 1147 z "},"Ħ":{"ha":1229,"x_min":0,"x_max":0,"o":"m 18 850 l 18 704 l 118 704 l 118 0 l 401 0 l 401 367 l 828 367 l 828 0 l 1111 0 l 1111 704 l 1211 704 l 1211 850 l 1111 850 l 1111 940 l 828 940 l 828 850 l 401 850 l 401 940 l 118 940 l 118 850 z m 401 594 l 401 704 l 828 704 l 828 594 z "},"Ĥ":{"ha":1229,"x_min":0,"x_max":0,"o":"m 828 367 l 828 0 l 1111 0 l 1111 940 l 828 940 l 828 594 l 401 594 l 401 940 l 118 940 l 118 0 l 401 0 l 401 367 z m 883 1004 l 760 1239 l 469 1239 l 346 1004 l 492 1004 l 615 1129 l 738 1004 z "},"Ĭ":{"ha":522,"x_min":0,"x_max":0,"o":"m 119 940 l 119 0 l 403 0 l 403 940 z m 4 1239 b 260 1004 15 1107 129 1004 b 517 1239 401 1004 501 1124 l 396 1239 b 261 1143 385 1213 361 1143 b 125 1239 164 1143 133 1221 z "},"Ĳ":{"ha":1072,"x_min":0,"x_max":0,"o":"m 119 940 l 119 0 l 403 0 l 403 940 z m 669 940 l 669 213 b 663 14 669 172 671 46 b 490 -65 644 -60 588 -62 l 533 -292 b 635 -301 563 -297 586 -301 b 953 117 933 -301 953 -82 l 953 940 z "},"Ī":{"ha":522,"x_min":0,"x_max":0,"o":"m 119 940 l 119 0 l 403 0 l 403 940 z m 522 1019 l 522 1186 l -1 1186 l -1 1019 z "},"Į":{"ha":522,"x_min":0,"x_max":0,"o":"m 178 0 b 157 -136 174 -11 157 -62 b 318 -290 157 -222 228 -290 b 451 -274 356 -290 406 -292 l 451 -149 b 408 -153 449 -149 431 -153 b 296 -57 354 -153 296 -122 b 304 0 296 -36 299 -24 l 403 0 l 403 940 l 119 940 l 119 0 z "},"Ĩ":{"ha":522,"x_min":0,"x_max":0,"o":"m 119 940 l 119 0 l 403 0 l 403 940 z m 419 1221 b 367 1161 419 1196 404 1161 b 268 1192 347 1161 308 1176 b 150 1221 226 1206 183 1221 b -8 1004 85 1221 -8 1161 l 100 1004 b 156 1063 103 1029 115 1063 b 369 1004 200 1063 300 1004 b 529 1221 465 1004 529 1081 z "},"Ĵ":{"ha":550,"x_min":0,"x_max":0,"o":"m 147 940 l 147 213 b 140 14 147 172 149 46 b -32 -65 122 -60 65 -62 l 11 -292 b 113 -301 40 -297 64 -301 b 431 117 411 -301 431 -82 l 431 940 z m 543 1004 l 419 1239 l 129 1239 l 6 1004 l 151 1004 l 275 1129 l 397 1004 z "},"Ķ":{"ha":1113,"x_min":0,"x_max":0,"o":"m 118 940 l 118 0 l 401 0 l 401 440 l 761 0 l 1107 0 l 700 500 l 1050 940 l 742 940 l 401 519 l 401 940 z m 389 -314 b 529 -335 435 -326 481 -335 b 751 -210 661 -335 751 -292 b 503 -78 751 -103 660 -78 l 419 -78 l 413 -154 b 531 -192 472 -154 531 -157 b 425 -236 531 -224 507 -236 b 389 -235 410 -236 401 -236 z "},"Ĺ":{"ha":879,"x_min":0,"x_max":0,"o":"m 118 940 l 118 0 l 832 0 l 832 225 l 401 225 l 401 940 z m 165 1004 l 296 1004 l 546 1219 l 282 1219 z "},"Ľ":{"ha":879,"x_min":0,"x_max":0,"o":"m 533 488 b 824 758 747 517 824 653 b 665 953 824 847 775 953 b 533 824 589 953 533 890 b 631 703 533 765 564 722 b 533 526 633 638 618 558 z m 118 940 l 118 0 l 832 0 l 832 225 l 401 225 l 401 940 z "},"Ļ":{"ha":879,"x_min":0,"x_max":0,"o":"m 118 940 l 118 0 l 832 0 l 832 225 l 401 225 l 401 940 z m 286 -314 b 426 -335 332 -326 378 -335 b 649 -210 558 -335 649 -292 b 400 -78 649 -103 557 -78 l 317 -78 l 310 -154 b 428 -192 369 -154 428 -157 b 322 -236 428 -224 404 -236 b 286 -235 307 -236 299 -236 z "},"Ŀ":{"ha":879,"x_min":0,"x_max":0,"o":"m 647 654 b 521 528 578 654 521 600 b 647 399 521 456 578 399 b 774 528 718 399 774 457 b 647 654 774 600 717 654 z m 118 940 l 118 0 l 832 0 l 832 225 l 401 225 l 401 940 z "},"Ń":{"ha":1257,"x_min":0,"x_max":0,"o":"m 118 940 l 118 0 l 399 0 l 399 524 l 886 0 l 1139 0 l 1139 940 l 856 940 l 856 419 l 369 940 z m 521 1004 l 651 1004 l 901 1219 l 638 1219 z "},"Ň":{"ha":1257,"x_min":0,"x_max":0,"o":"m 118 940 l 118 0 l 399 0 l 399 524 l 886 0 l 1139 0 l 1139 940 l 856 940 l 856 419 l 369 940 z m 360 1239 l 483 1004 l 774 1004 l 897 1239 l 751 1239 l 629 1113 l 506 1239 z "},"Ņ":{"ha":1257,"x_min":0,"x_max":0,"o":"m 118 940 l 118 0 l 399 0 l 399 524 l 886 0 l 1139 0 l 1139 940 l 856 940 l 856 419 l 369 940 z m 461 -314 b 601 -335 507 -326 553 -335 b 824 -210 733 -335 824 -292 b 575 -78 824 -103 732 -78 l 492 -78 l 485 -154 b 603 -192 544 -154 603 -157 b 497 -236 603 -224 579 -236 b 461 -235 482 -236 474 -236 z "},"Ŏ":{"ha":1182,"x_min":0,"x_max":0,"o":"m 1124 471 b 590 953 1124 725 949 953 b 57 471 222 953 57 714 b 590 -12 57 228 222 -12 b 1124 471 946 -12 1124 213 z m 346 471 b 590 711 346 613 436 711 b 835 471 747 711 835 610 b 590 229 835 331 747 229 b 346 471 436 229 346 329 z m 335 1239 b 590 1004 346 1107 460 1004 b 847 1239 732 1004 832 1124 l 726 1239 b 592 1143 715 1213 692 1143 b 456 1239 494 1143 464 1221 z "},"Ő":{"ha":1182,"x_min":0,"x_max":0,"o":"m 1124 471 b 590 953 1124 725 949 953 b 57 471 222 953 57 714 b 590 -12 57 228 222 -12 b 1124 471 946 -12 1124 213 z m 346 471 b 590 711 346 613 436 711 b 835 471 747 711 835 610 b 590 229 835 331 747 229 b 346 471 436 229 346 329 z m 639 1004 l 769 1004 l 1019 1219 l 756 1219 z m 313 1004 l 442 1004 l 692 1219 l 428 1219 z "},"Ō":{"ha":1182,"x_min":0,"x_max":0,"o":"m 1124 471 b 590 953 1124 725 949 953 b 57 471 222 953 57 714 b 590 -12 57 228 222 -12 b 1124 471 946 -12 1124 213 z m 346 471 b 590 711 346 613 436 711 b 835 471 747 711 835 610 b 590 229 835 331 747 229 b 346 471 436 229 346 329 z m 853 1019 l 853 1186 l 329 1186 l 329 1019 z "},"Ǿ":{"ha":1182,"x_min":0,"x_max":0,"o":"m 271 69 b 590 -12 376 1 501 -12 b 1124 471 958 -12 1124 228 b 1013 783 1124 561 1103 683 l 1118 885 l 1039 965 l 928 860 b 590 953 889 886 790 953 b 57 471 222 953 57 714 b 183 142 57 332 103 229 l 64 28 l 143 -54 z m 810 589 b 835 469 825 558 835 517 b 592 229 835 333 747 229 b 465 257 563 229 508 235 z m 382 333 b 346 472 347 390 346 458 b 590 711 346 603 429 711 b 735 674 642 711 692 701 z m 472 1004 l 603 1004 l 853 1219 l 589 1219 z "},"Ŕ":{"ha":1039,"x_min":0,"x_max":0,"o":"m 118 940 l 118 0 l 401 0 l 401 367 l 433 367 b 650 167 518 367 567 356 l 724 0 l 1028 0 l 933 204 b 778 414 860 364 831 382 b 932 649 817 433 932 489 b 600 940 932 756 853 940 z m 461 760 b 643 643 588 760 643 731 b 463 533 643 556 597 533 l 401 533 l 401 760 z m 353 1004 l 483 1004 l 733 1219 l 469 1219 z "},"Ř":{"ha":1039,"x_min":0,"x_max":0,"o":"m 118 940 l 118 0 l 401 0 l 401 367 l 433 367 b 650 167 518 367 567 356 l 724 0 l 1028 0 l 933 204 b 778 414 860 364 831 382 b 932 649 817 433 932 489 b 600 940 932 756 853 940 z m 461 760 b 643 643 588 760 643 731 b 463 533 643 556 597 533 l 401 533 l 401 760 z m 201 1239 l 325 1004 l 615 1004 l 739 1239 l 593 1239 l 471 1113 l 347 1239 z "},"Ŗ":{"ha":1039,"x_min":0,"x_max":0,"o":"m 118 940 l 118 0 l 401 0 l 401 367 l 433 367 b 650 167 518 367 567 356 l 724 0 l 1028 0 l 933 204 b 778 414 860 364 831 382 b 932 649 817 433 932 489 b 600 940 932 756 853 940 z m 461 760 b 643 643 588 760 643 731 b 463 533 643 556 597 533 l 401 533 l 401 760 z m 379 -314 b 519 -335 425 -326 471 -335 b 742 -210 651 -335 742 -292 b 493 -78 742 -103 650 -78 l 410 -78 l 403 -154 b 521 -192 463 -154 521 -157 b 415 -236 521 -224 497 -236 b 379 -235 400 -236 392 -236 z "},"Ś":{"ha":850,"x_min":0,"x_max":0,"o":"m 735 874 b 419 953 715 886 596 953 b 81 681 188 953 81 826 b 349 378 81 513 217 433 b 492 260 425 346 492 315 b 376 190 492 250 489 190 b 89 293 251 190 142 260 l 89 63 b 419 -12 261 -12 393 -12 b 775 274 626 -12 775 94 b 463 592 775 438 650 503 b 354 689 383 629 354 650 b 454 760 354 722 376 760 b 735 653 575 760 681 690 z m 276 1004 l 407 1004 l 657 1219 l 393 1219 z "},"Ş":{"ha":850,"x_min":0,"x_max":0,"o":"m 735 874 b 419 953 715 886 596 953 b 81 681 188 953 81 826 b 349 378 81 513 217 433 b 492 260 425 346 492 315 b 376 190 492 250 489 190 b 89 293 251 190 142 260 l 89 63 b 375 -11 214 7 318 -7 l 310 -101 b 375 -144 357 -104 375 -117 b 240 -199 375 -192 308 -199 l 240 -292 l 374 -292 b 597 -157 536 -292 597 -228 b 482 -40 597 -100 556 -58 l 497 -7 b 775 274 663 17 775 118 b 463 592 775 438 650 503 b 354 689 383 629 354 650 b 454 760 354 722 376 760 b 735 653 575 760 681 690 z "},"Ŝ":{"ha":850,"x_min":0,"x_max":0,"o":"m 735 874 b 419 953 715 886 596 953 b 81 681 188 953 81 826 b 349 378 81 513 217 433 b 492 260 425 346 492 315 b 376 190 492 250 489 190 b 89 293 251 190 142 260 l 89 63 b 419 -12 261 -12 393 -12 b 775 274 626 -12 775 94 b 463 592 775 438 650 503 b 354 689 383 629 354 650 b 454 760 354 722 376 760 b 735 653 575 760 681 690 z m 693 1004 l 569 1239 l 279 1239 l 156 1004 l 301 1004 l 425 1129 l 547 1004 z "},"Ș":{"ha":850,"x_min":0,"x_max":0,"o":"m 735 874 b 419 953 715 886 596 953 b 81 681 188 953 81 826 b 349 378 81 513 217 433 b 492 260 425 346 492 315 b 376 190 492 250 489 190 b 89 293 251 190 142 260 l 89 63 b 419 -12 261 -12 393 -12 b 775 274 626 -12 775 94 b 463 592 775 438 650 503 b 354 689 383 629 354 650 b 454 760 354 722 376 760 b 735 653 575 760 681 690 z m 243 -314 b 383 -335 289 -326 335 -335 b 606 -210 515 -335 606 -292 b 357 -78 606 -103 514 -78 l 274 -78 l 267 -154 b 385 -192 326 -154 385 -157 b 279 -236 385 -224 361 -236 b 243 -235 264 -236 256 -236 z "},"Ŧ":{"ha":1067,"x_min":0,"x_max":0,"o":"m 47 940 l 47 711 l 392 711 l 392 421 l 139 421 l 139 275 l 392 275 l 392 0 l 675 0 l 675 275 l 914 275 l 914 421 l 675 421 l 675 711 l 1019 711 l 1019 940 z "},"Ť":{"ha":1067,"x_min":0,"x_max":0,"o":"m 47 940 l 47 711 l 392 711 l 392 0 l 675 0 l 675 711 l 1019 711 l 1019 940 z m 264 1239 l 388 1004 l 678 1004 l 801 1239 l 656 1239 l 533 1113 l 410 1239 z "},"Ţ":{"ha":1067,"x_min":0,"x_max":0,"o":"m 47 940 l 47 711 l 392 711 l 392 0 l 675 0 l 675 711 l 1019 711 l 1019 940 z m 344 -314 b 485 -335 390 -326 436 -335 b 707 -210 617 -335 707 -292 b 458 -78 707 -103 615 -78 l 375 -78 l 368 -154 b 486 -192 428 -154 486 -157 b 381 -236 486 -224 463 -236 b 344 -235 365 -236 357 -236 z "},"Ț":{"ha":1067,"x_min":0,"x_max":0,"o":"m 47 940 l 47 711 l 392 711 l 392 0 l 675 0 l 675 711 l 1019 711 l 1019 940 z m 344 -314 b 485 -335 390 -326 436 -335 b 707 -210 617 -335 707 -292 b 458 -78 707 -103 615 -78 l 375 -78 l 368 -154 b 486 -192 428 -154 486 -157 b 381 -236 486 -224 463 -236 b 344 -235 365 -236 357 -236 z "},"Ŭ":{"ha":1201,"x_min":0,"x_max":0,"o":"m 104 940 l 104 421 b 601 -12 104 82 392 -12 b 1097 421 811 -12 1097 82 l 1097 940 l 814 940 l 814 493 b 601 224 814 299 722 224 b 388 494 478 224 388 300 l 388 940 z m 344 1239 b 600 1004 356 1107 469 1004 b 857 1239 742 1004 842 1124 l 736 1239 b 601 1143 725 1213 701 1143 b 465 1239 504 1143 474 1221 z "},"Ű":{"ha":1201,"x_min":0,"x_max":0,"o":"m 104 940 l 104 421 b 601 -12 104 82 392 -12 b 1097 421 811 -12 1097 82 l 1097 940 l 814 940 l 814 493 b 601 224 814 299 722 224 b 388 494 478 224 388 300 l 388 940 z m 657 1004 l 788 1004 l 1038 1219 l 774 1219 z m 331 1004 l 460 1004 l 710 1219 l 446 1219 z "},"Ū":{"ha":1201,"x_min":0,"x_max":0,"o":"m 104 940 l 104 421 b 601 -12 104 82 392 -12 b 1097 421 811 -12 1097 82 l 1097 940 l 814 940 l 814 493 b 601 224 814 299 722 224 b 388 494 478 224 388 300 l 388 940 z m 863 1019 l 863 1186 l 339 1186 l 339 1019 z "},"Ų":{"ha":1201,"x_min":0,"x_max":0,"o":"m 104 940 l 104 421 b 531 -8 104 118 333 10 b 514 -136 525 -29 514 -74 b 675 -290 514 -222 585 -290 b 808 -274 713 -290 763 -290 l 808 -149 b 765 -153 806 -149 788 -153 b 653 -57 711 -153 653 -122 b 658 -10 653 -39 654 -28 b 1097 421 858 6 1097 111 l 1097 940 l 814 940 l 814 493 b 601 224 814 299 722 224 b 388 494 478 224 388 300 l 388 940 z "},"Ů":{"ha":1201,"x_min":0,"x_max":0,"o":"m 104 940 l 104 421 b 601 -12 104 82 392 -12 b 1097 421 811 -12 1097 82 l 1097 940 l 814 940 l 814 493 b 601 224 814 299 722 224 b 388 494 478 224 388 300 l 388 940 z m 600 1282 b 461 1143 522 1282 461 1221 b 600 1003 461 1065 522 1003 b 740 1143 678 1003 740 1065 b 600 1282 740 1221 678 1282 z m 600 1215 b 674 1143 640 1215 674 1183 b 600 1069 674 1103 640 1069 b 528 1143 560 1069 528 1103 b 600 1215 528 1183 560 1215 z "},"Ũ":{"ha":1201,"x_min":0,"x_max":0,"o":"m 104 940 l 104 421 b 601 -12 104 82 392 -12 b 1097 421 811 -12 1097 82 l 1097 940 l 814 940 l 814 493 b 601 224 814 299 722 224 b 388 494 478 224 388 300 l 388 940 z m 760 1221 b 707 1161 760 1196 744 1161 b 608 1192 688 1161 649 1176 b 490 1221 567 1206 524 1221 b 332 1004 425 1221 332 1161 l 440 1004 b 496 1063 443 1029 456 1063 b 710 1004 540 1063 640 1004 b 869 1221 806 1004 869 1081 z "},"Ẃ":{"ha":1653,"x_min":0,"x_max":0,"o":"m 11 940 l 410 -12 l 575 -12 l 825 542 l 1069 -12 l 1233 -12 l 1640 940 l 1350 940 l 1146 419 l 926 940 l 724 940 l 500 419 l 304 940 z m 678 1004 l 808 1004 l 1058 1219 l 794 1219 z "},"Ŵ":{"ha":1653,"x_min":0,"x_max":0,"o":"m 11 940 l 410 -12 l 575 -12 l 825 542 l 1069 -12 l 1233 -12 l 1640 940 l 1350 940 l 1146 419 l 926 940 l 724 940 l 500 419 l 304 940 z m 1094 1004 l 971 1239 l 681 1239 l 557 1004 l 703 1004 l 826 1129 l 949 1004 z "},"Ẅ":{"ha":1653,"x_min":0,"x_max":0,"o":"m 11 940 l 410 -12 l 575 -12 l 825 542 l 1069 -12 l 1233 -12 l 1640 940 l 1350 940 l 1146 419 l 926 940 l 724 940 l 500 419 l 304 940 z m 560 1097 b 653 1004 560 1047 600 1004 b 746 1097 706 1004 746 1046 b 653 1190 746 1147 706 1190 b 560 1097 600 1190 560 1147 z m 906 1097 b 999 1004 906 1047 944 1004 b 1092 1097 1051 1004 1092 1046 b 999 1190 1092 1147 1051 1190 b 906 1097 944 1190 906 1147 z "},"Ẁ":{"ha":1653,"x_min":0,"x_max":0,"o":"m 11 940 l 410 -12 l 575 -12 l 825 542 l 1069 -12 l 1233 -12 l 1640 940 l 1350 940 l 1146 419 l 926 940 l 724 940 l 500 419 l 304 940 z m 975 1004 l 858 1219 l 594 1219 l 844 1004 z "},"Ŷ":{"ha":1043,"x_min":0,"x_max":0,"o":"m 8 940 l 383 425 l 383 0 l 667 0 l 667 431 l 1035 940 l 735 940 l 518 644 l 303 940 z m 790 1004 l 667 1239 l 376 1239 l 253 1004 l 399 1004 l 522 1129 l 644 1004 z "},"Ỳ":{"ha":1043,"x_min":0,"x_max":0,"o":"m 8 940 l 383 425 l 383 0 l 667 0 l 667 431 l 1035 940 l 735 940 l 518 644 l 303 940 z m 669 1004 l 553 1219 l 289 1219 l 539 1004 z "},"Ź":{"ha":1013,"x_min":0,"x_max":0,"o":"m 981 0 l 981 225 l 496 225 l 981 940 l 67 940 l 67 715 l 513 715 l 26 0 z m 357 1004 l 488 1004 l 738 1219 l 474 1219 z "},"Ż":{"ha":1013,"x_min":0,"x_max":0,"o":"m 981 0 l 981 225 l 496 225 l 981 940 l 67 940 l 67 715 l 513 715 l 26 0 z m 413 1097 b 506 1004 413 1047 453 1004 b 599 1097 558 1004 599 1046 b 506 1190 599 1147 558 1190 b 413 1097 453 1190 413 1147 z "},"İ":{"ha":522,"x_min":0,"x_max":0,"o":"m 119 940 l 119 0 l 403 0 l 403 940 z m 168 1097 b 261 1004 168 1047 208 1004 b 354 1097 314 1004 354 1046 b 261 1190 354 1147 314 1190 b 168 1097 208 1190 168 1147 z "},"ă":{"ha":793,"x_min":0,"x_max":0,"o":"m 72 421 b 346 547 133 482 228 547 b 454 440 446 547 454 492 b 311 390 428 426 417 424 b 49 161 161 343 49 296 b 254 -12 49 86 92 -12 b 468 61 374 -12 431 31 b 586 -12 476 36 493 -12 b 794 35 682 -12 746 15 l 794 163 b 732 143 782 157 756 143 b 699 218 706 143 699 169 l 699 485 b 397 703 699 617 603 703 b 72 608 279 703 164 674 z m 454 167 b 354 119 436 153 393 119 b 288 190 322 119 288 140 b 454 331 288 261 358 290 z m 140 1017 b 396 782 151 885 265 782 b 653 1017 538 782 638 901 l 532 1017 b 397 921 521 990 497 921 b 261 1017 300 921 269 999 z "},"ā":{"ha":793,"x_min":0,"x_max":0,"o":"m 72 421 b 346 547 133 482 228 547 b 454 440 446 547 454 492 b 311 390 428 426 417 424 b 49 161 161 343 49 296 b 254 -12 49 86 92 -12 b 468 61 374 -12 431 31 b 586 -12 476 36 493 -12 b 794 35 682 -12 746 15 l 794 163 b 732 143 782 157 756 143 b 699 218 706 143 699 169 l 699 485 b 397 703 699 617 603 703 b 72 608 279 703 164 674 z m 454 167 b 354 119 436 153 393 119 b 288 190 322 119 288 140 b 454 331 288 261 358 290 z m 658 797 l 658 964 l 135 964 l 135 797 z "},"ą":{"ha":793,"x_min":0,"x_max":0,"o":"m 72 421 b 346 547 133 482 228 547 b 454 440 446 547 454 492 b 311 390 428 426 417 424 b 49 161 161 343 49 296 b 254 -12 49 86 92 -12 b 468 61 374 -12 431 31 b 531 -4 474 42 485 10 b 506 -111 513 -40 506 -76 b 653 -271 506 -214 571 -271 b 774 -243 700 -271 736 -261 l 774 -126 b 714 -136 754 -133 747 -136 b 633 -69 667 -136 633 -100 b 644 -8 633 -49 638 -28 b 794 35 708 0 757 19 l 794 163 b 732 143 782 157 756 143 b 699 218 706 143 699 169 l 699 485 b 397 703 699 617 603 703 b 72 608 279 703 164 674 z m 454 167 b 354 119 436 153 393 119 b 288 190 322 119 288 140 b 454 331 288 261 358 290 z "},"ǽ":{"ha":1158,"x_min":0,"x_max":0,"o":"m 72 425 b 346 547 144 488 226 547 b 446 435 436 547 446 515 b 307 389 410 419 400 417 b 49 163 224 364 49 313 b 243 -12 49 75 115 -12 b 514 75 329 -12 418 10 b 797 -12 596 17 696 -12 b 1101 58 903 -12 1006 17 l 1101 214 b 864 143 992 158 917 143 b 672 286 825 143 681 160 l 1117 286 l 1117 335 b 781 703 1117 593 946 703 b 588 642 672 703 617 663 b 369 703 544 667 481 703 b 72 608 232 703 133 644 z m 446 161 b 351 119 428 144 399 119 b 289 193 301 119 289 168 b 446 329 289 256 343 281 z m 668 407 b 779 553 669 507 715 553 b 889 407 871 553 886 460 z m 431 782 l 561 782 l 811 997 l 547 997 z "},"ć":{"ha":710,"x_min":0,"x_max":0,"o":"m 658 663 b 436 703 604 682 546 703 b 49 347 107 703 49 453 b 436 -12 49 242 107 -12 b 669 32 546 -12 614 13 l 669 224 b 472 182 611 206 529 182 b 306 347 399 182 306 229 b 472 508 306 467 399 508 b 658 471 529 508 614 485 z m 275 782 l 406 782 l 656 997 l 392 997 z "},"č":{"ha":710,"x_min":0,"x_max":0,"o":"m 658 663 b 436 703 604 682 546 703 b 49 347 107 703 49 453 b 436 -12 49 242 107 -12 b 669 32 546 -12 614 13 l 669 224 b 472 182 611 206 529 182 b 306 347 399 182 306 229 b 472 508 306 467 399 508 b 658 471 529 508 614 485 z m 142 1017 l 265 782 l 556 782 l 679 1017 l 533 1017 l 411 890 l 288 1017 z "},"ĉ":{"ha":710,"x_min":0,"x_max":0,"o":"m 658 663 b 436 703 604 682 546 703 b 49 347 107 703 49 453 b 436 -12 49 242 107 -12 b 669 32 546 -12 614 13 l 669 224 b 472 182 611 206 529 182 b 306 347 399 182 306 229 b 472 508 306 467 399 508 b 658 471 529 508 614 485 z m 679 782 l 556 1017 l 265 1017 l 142 782 l 288 782 l 411 907 l 533 782 z "},"ċ":{"ha":710,"x_min":0,"x_max":0,"o":"m 658 663 b 436 703 604 682 546 703 b 49 347 107 703 49 453 b 436 -12 49 242 107 -12 b 669 32 546 -12 614 13 l 669 224 b 472 182 611 206 529 182 b 306 347 399 182 306 229 b 472 508 306 467 399 508 b 658 471 529 508 614 485 z m 318 875 b 411 782 318 825 358 782 b 504 875 464 782 504 824 b 411 968 504 925 464 968 b 318 875 358 968 318 925 z "},"ď":{"ha":1163,"x_min":0,"x_max":0,"o":"m 808 0 l 808 940 l 564 940 l 564 650 b 379 703 532 671 485 703 b 49 340 147 703 49 519 b 363 -12 49 86 224 -12 b 564 63 481 -12 536 39 l 564 0 z m 564 483 l 564 219 b 440 171 547 206 510 171 b 306 346 379 171 306 213 b 440 528 306 461 365 528 b 564 483 492 528 526 504 z m 874 488 b 1164 758 1088 517 1164 653 b 1006 953 1164 847 1115 953 b 874 824 929 953 874 890 b 971 703 874 765 904 722 b 874 526 974 638 958 558 z "},"đ":{"ha":885,"x_min":0,"x_max":0,"o":"m 414 767 l 564 767 l 564 650 b 379 703 532 671 485 703 b 49 340 147 703 49 519 b 363 -12 49 86 224 -12 b 564 63 481 -12 536 39 l 564 0 l 808 0 l 808 767 l 903 767 l 903 882 l 808 882 l 808 940 l 564 940 l 564 882 l 414 882 z m 564 483 l 564 219 b 440 171 547 206 510 171 b 306 346 379 171 306 213 b 440 528 306 461 365 528 b 564 483 492 528 526 504 z "},"ĕ":{"ha":828,"x_min":0,"x_max":0,"o":"m 786 335 b 444 703 786 613 599 703 b 49 349 181 703 49 549 b 444 -12 49 149 181 -12 b 768 61 628 -12 732 42 l 768 213 b 496 143 682 172 589 143 b 300 286 403 143 318 200 l 786 286 z m 293 407 b 429 553 293 494 350 553 b 557 407 511 553 557 494 z m 164 1017 b 419 782 175 885 289 782 b 676 1017 561 782 661 901 l 556 1017 b 421 921 544 990 521 921 b 285 1017 324 921 293 999 z "},"ě":{"ha":828,"x_min":0,"x_max":0,"o":"m 786 335 b 444 703 786 613 599 703 b 49 349 181 703 49 549 b 444 -12 49 149 181 -12 b 768 61 628 -12 732 42 l 768 213 b 496 143 682 172 589 143 b 300 286 403 143 318 200 l 786 286 z m 293 407 b 429 553 293 494 350 553 b 557 407 511 553 557 494 z m 151 1017 l 275 782 l 565 782 l 689 1017 l 543 1017 l 421 890 l 297 1017 z "},"ė":{"ha":828,"x_min":0,"x_max":0,"o":"m 786 335 b 444 703 786 613 599 703 b 49 349 181 703 49 549 b 444 -12 49 149 181 -12 b 768 61 628 -12 732 42 l 768 213 b 496 143 682 172 589 143 b 300 286 403 143 318 200 l 786 286 z m 293 407 b 429 553 293 494 350 553 b 557 407 511 553 557 494 z m 328 875 b 421 782 328 825 368 782 b 514 875 474 782 514 824 b 421 968 514 925 474 968 b 328 875 368 968 328 925 z "},"ē":{"ha":828,"x_min":0,"x_max":0,"o":"m 786 335 b 444 703 786 613 599 703 b 49 349 181 703 49 549 b 444 -12 49 149 181 -12 b 768 61 628 -12 732 42 l 768 213 b 496 143 682 172 589 143 b 300 286 403 143 318 200 l 786 286 z m 293 407 b 429 553 293 494 350 553 b 557 407 511 553 557 494 z m 682 797 l 682 964 l 158 964 l 158 797 z "},"ŋ":{"ha":883,"x_min":0,"x_max":0,"o":"m 815 406 b 567 703 815 468 824 703 b 322 592 476 703 400 675 l 322 690 l 78 690 l 78 0 l 322 0 l 322 406 b 471 514 344 435 389 514 b 571 358 576 514 571 403 l 571 74 b 468 -140 571 -64 560 -111 l 550 -326 b 815 -40 647 -326 815 -258 z "},"ę":{"ha":828,"x_min":0,"x_max":0,"o":"m 786 335 b 444 703 786 613 599 703 b 49 349 181 703 49 549 b 444 -12 49 149 181 -12 b 476 -11 456 -12 465 -12 b 454 -111 460 -44 454 -78 b 601 -271 454 -214 519 -271 b 722 -243 649 -271 685 -261 l 722 -126 b 663 -136 703 -133 696 -136 b 582 -69 615 -136 582 -100 b 597 1 582 -44 588 -19 b 768 61 688 18 743 47 l 768 213 b 496 143 682 172 589 143 b 300 286 403 143 318 200 l 786 286 z m 293 407 b 429 553 293 494 350 553 b 557 407 511 553 557 494 z "},"ğ":{"ha":782,"x_min":0,"x_max":0,"o":"m 772 690 l 393 690 b 54 426 206 690 54 613 b 244 204 54 297 156 226 b 139 88 161 189 139 124 b 199 0 139 50 165 13 b 35 -144 47 -19 35 -117 b 392 -326 35 -247 132 -326 b 746 -107 656 -326 746 -232 b 481 93 746 72 550 88 b 357 136 388 101 357 103 b 442 182 357 174 410 181 b 715 407 619 192 715 293 b 651 543 715 478 678 521 l 772 543 z m 267 424 b 388 542 267 474 306 542 b 503 426 442 542 503 499 b 381 314 503 365 451 314 b 267 424 310 314 267 365 z m 403 -57 b 551 -129 436 -57 551 -60 b 399 -210 551 -185 486 -210 b 243 -132 369 -210 243 -210 b 403 -57 243 -79 290 -57 z m 138 1017 b 393 782 149 885 263 782 b 650 1017 535 782 635 901 l 529 1017 b 394 921 518 990 494 921 b 258 1017 297 921 267 999 z "},"ĝ":{"ha":782,"x_min":0,"x_max":0,"o":"m 772 690 l 393 690 b 54 426 206 690 54 613 b 244 204 54 297 156 226 b 139 88 161 189 139 124 b 199 0 139 50 165 13 b 35 -144 47 -19 35 -117 b 392 -326 35 -247 132 -326 b 746 -107 656 -326 746 -232 b 481 93 746 72 550 88 b 357 136 388 101 357 103 b 442 182 357 174 410 181 b 715 407 619 192 715 293 b 651 543 715 478 678 521 l 772 543 z m 267 424 b 388 542 267 474 306 542 b 503 426 442 542 503 499 b 381 314 503 365 451 314 b 267 424 310 314 267 365 z m 403 -57 b 551 -129 436 -57 551 -60 b 399 -210 551 -185 486 -210 b 243 -132 369 -210 243 -210 b 403 -57 243 -79 290 -57 z m 660 782 l 536 1017 l 246 1017 l 122 782 l 268 782 l 392 907 l 514 782 z "},"ģ":{"ha":782,"x_min":0,"x_max":0,"o":"m 772 690 l 393 690 b 54 426 206 690 54 613 b 244 204 54 297 156 226 b 139 88 161 189 139 124 b 199 0 139 50 165 13 b 35 -144 47 -19 35 -117 b 392 -326 35 -247 132 -326 b 746 -107 656 -326 746 -232 b 481 93 746 72 550 88 b 357 136 388 101 357 103 b 442 182 357 174 410 181 b 715 407 619 192 715 293 b 651 543 715 478 678 521 l 772 543 z m 267 424 b 388 542 267 474 306 542 b 503 426 442 542 503 499 b 381 314 503 365 451 314 b 267 424 310 314 267 365 z m 403 -57 b 551 -129 436 -57 551 -60 b 399 -210 551 -185 486 -210 b 243 -132 369 -210 243 -210 b 403 -57 243 -79 290 -57 z m 501 1069 b 297 869 386 1061 297 967 b 413 753 297 788 363 753 b 507 832 458 753 507 783 b 449 908 507 843 504 888 b 501 1039 443 978 483 1022 z "},"ġ":{"ha":782,"x_min":0,"x_max":0,"o":"m 772 690 l 393 690 b 54 426 206 690 54 613 b 244 204 54 297 156 226 b 139 88 161 189 139 124 b 199 0 139 50 165 13 b 35 -144 47 -19 35 -117 b 392 -326 35 -247 132 -326 b 746 -107 656 -326 746 -232 b 481 93 746 72 550 88 b 357 136 388 101 357 103 b 442 182 357 174 410 181 b 715 407 619 192 715 293 b 651 543 715 478 678 521 l 772 543 z m 267 424 b 388 542 267 474 306 542 b 503 426 442 542 503 499 b 381 314 503 365 451 314 b 267 424 310 314 267 365 z m 403 -57 b 551 -129 436 -57 551 -60 b 399 -210 551 -185 486 -210 b 243 -132 369 -210 243 -210 b 403 -57 243 -79 290 -57 z m 297 875 b 390 782 297 825 338 782 b 483 875 443 782 483 824 b 390 968 483 925 443 968 b 297 875 338 968 297 925 z "},"ħ":{"ha":883,"x_min":0,"x_max":0,"o":"m 594 767 l 594 882 l 322 882 l 322 940 l 78 940 l 78 882 l -17 882 l -17 767 l 78 767 l 78 0 l 322 0 l 322 406 b 471 514 350 447 399 514 b 571 358 589 514 571 364 l 571 0 l 815 0 l 815 424 b 567 703 815 624 717 703 b 322 592 489 703 408 683 l 322 767 z "},"ĥ":{"ha":883,"x_min":0,"x_max":0,"o":"m 78 940 l 78 0 l 322 0 l 322 406 b 471 514 350 447 399 514 b 571 358 589 514 571 364 l 571 0 l 815 0 l 815 424 b 567 703 815 624 717 703 b 322 592 489 703 408 683 l 322 940 z m 710 1004 l 586 1239 l 296 1239 l 172 1004 l 318 1004 l 442 1129 l 564 1004 z "},"ĭ":{"ha":425,"x_min":0,"x_max":0,"o":"m 90 690 l 90 0 l 335 0 l 335 690 z m -43 1017 b 213 782 -32 885 82 782 b 469 1017 354 782 454 901 l 349 1017 b 214 921 338 990 314 921 b 78 1017 117 921 86 999 z "},"ĳ":{"ha":850,"x_min":0,"x_max":0,"o":"m 90 690 l 90 0 l 335 0 l 335 690 z m 213 953 b 110 850 156 953 110 907 b 213 747 110 793 156 747 b 315 850 269 747 315 793 b 213 953 315 907 269 953 z m 515 690 l 515 74 b 413 -140 515 -64 504 -111 l 494 -326 b 760 -40 592 -326 760 -258 l 760 690 z m 638 953 b 535 850 581 953 535 907 b 638 747 535 793 581 747 b 740 850 694 747 740 793 b 638 953 740 907 694 953 z "},"ī":{"ha":425,"x_min":0,"x_max":0,"o":"m 90 690 l 90 0 l 335 0 l 335 690 z m 475 797 l 475 964 l -49 964 l -49 797 z "},"į":{"ha":425,"x_min":0,"x_max":0,"o":"m 90 690 l 90 0 l 142 0 b 114 -111 121 -37 114 -74 b 261 -271 114 -214 179 -271 b 382 -243 308 -271 344 -261 l 382 -126 b 322 -136 363 -133 356 -136 b 242 -69 275 -136 242 -100 b 257 0 242 -44 247 -21 l 335 0 l 335 690 z m 213 953 b 110 850 156 953 110 907 b 213 747 110 793 156 747 b 315 850 269 747 315 793 b 213 953 315 907 269 953 z "},"ĩ":{"ha":425,"x_min":0,"x_max":0,"o":"m 90 690 l 90 0 l 335 0 l 335 690 z m 372 999 b 319 939 372 974 357 939 b 221 969 300 939 261 954 b 103 999 179 983 136 999 b -56 782 38 999 -56 939 l 53 782 b 108 840 56 807 68 840 b 322 782 153 840 253 782 b 482 999 418 782 482 858 z "},"ĵ":{"ha":425,"x_min":0,"x_max":0,"o":"m 90 690 l 90 74 b -12 -140 90 -64 79 -111 l 69 -326 b 335 -40 167 -326 335 -258 l 335 690 z m 481 782 l 357 1017 l 67 1017 l -57 782 l 89 782 l 213 907 l 335 782 z "},"ķ":{"ha":899,"x_min":0,"x_max":0,"o":"m 76 940 l 76 0 l 324 0 l 324 328 l 589 0 l 899 0 l 589 368 l 858 690 l 565 690 l 324 389 l 324 940 z m 335 -244 b 447 -258 364 -251 403 -258 b 607 -144 547 -258 607 -204 b 386 -42 607 -85 574 -42 l 386 -110 b 446 -139 429 -110 446 -126 b 335 -165 446 -158 439 -171 z "},"ĺ":{"ha":425,"x_min":0,"x_max":0,"o":"m 90 940 l 90 0 l 335 0 l 335 940 z m 92 1004 l 222 1004 l 472 1219 l 208 1219 z "},"ľ":{"ha":693,"x_min":0,"x_max":0,"o":"m 90 940 l 90 0 l 335 0 l 335 940 z m 404 488 b 694 758 618 517 694 653 b 536 953 694 847 646 953 b 404 824 460 953 404 890 b 501 703 404 765 435 722 b 404 526 504 638 489 558 z "},"ļ":{"ha":425,"x_min":0,"x_max":0,"o":"m 90 940 l 90 0 l 335 0 l 335 940 z m 76 -244 b 189 -258 106 -251 144 -258 b 349 -144 289 -258 349 -204 b 128 -42 349 -85 315 -42 l 128 -110 b 188 -139 171 -110 188 -126 b 76 -165 188 -158 181 -171 z "},"ŀ":{"ha":525,"x_min":0,"x_max":0,"o":"m 90 940 l 90 0 l 335 0 l 335 940 z m 383 482 b 476 389 383 432 424 389 b 569 482 529 389 569 431 b 476 575 569 532 529 575 b 383 482 424 575 383 532 z "},"ń":{"ha":883,"x_min":0,"x_max":0,"o":"m 78 690 l 78 0 l 322 0 l 322 406 b 471 514 344 435 389 514 b 571 358 576 514 571 403 l 571 0 l 815 0 l 815 406 b 567 703 815 468 824 703 b 322 592 476 703 400 675 l 322 690 z m 321 782 l 451 782 l 701 997 l 438 997 z "},"ň":{"ha":883,"x_min":0,"x_max":0,"o":"m 78 690 l 78 0 l 322 0 l 322 406 b 471 514 344 435 389 514 b 571 358 576 514 571 403 l 571 0 l 815 0 l 815 406 b 567 703 815 468 824 703 b 322 592 476 703 400 675 l 322 690 z m 172 1017 l 296 782 l 586 782 l 710 1017 l 564 1017 l 442 890 l 318 1017 z "},"ņ":{"ha":883,"x_min":0,"x_max":0,"o":"m 78 690 l 78 0 l 322 0 l 322 406 b 471 514 344 435 389 514 b 571 358 576 514 571 403 l 571 0 l 815 0 l 815 406 b 567 703 815 468 824 703 b 322 592 476 703 400 675 l 322 690 z m 324 -244 b 436 -258 353 -251 392 -258 b 596 -144 536 -258 596 -204 b 375 -42 596 -85 563 -42 l 375 -110 b 435 -139 418 -110 435 -126 b 324 -165 435 -158 428 -171 z "},"ŏ":{"ha":889,"x_min":0,"x_max":0,"o":"m 444 703 b 49 346 181 703 49 547 b 444 -12 49 144 181 -12 b 840 346 708 -12 840 144 b 444 703 840 547 708 703 z m 444 521 b 583 346 536 521 583 451 b 444 169 583 240 536 169 b 306 346 353 169 306 240 b 444 521 306 451 353 521 z m 188 1017 b 443 782 199 885 313 782 b 700 1017 585 782 685 901 l 579 1017 b 444 921 568 990 544 921 b 308 1017 347 921 317 999 z "},"ő":{"ha":889,"x_min":0,"x_max":0,"o":"m 444 703 b 49 346 181 703 49 547 b 444 -12 49 144 181 -12 b 840 346 708 -12 840 144 b 444 703 840 547 708 703 z m 444 521 b 583 346 536 521 583 451 b 444 169 583 240 536 169 b 306 346 353 169 306 240 b 444 521 306 451 353 521 z m 500 782 l 631 782 l 881 997 l 617 997 z m 174 782 l 303 782 l 553 997 l 289 997 z "},"ō":{"ha":889,"x_min":0,"x_max":0,"o":"m 444 703 b 49 346 181 703 49 547 b 444 -12 49 144 181 -12 b 840 346 708 -12 840 144 b 444 703 840 547 708 703 z m 444 521 b 583 346 536 521 583 451 b 444 169 583 240 536 169 b 306 346 353 169 306 240 b 444 521 306 451 353 521 z m 706 797 l 706 964 l 182 964 l 182 797 z "},"ǿ":{"ha":889,"x_min":0,"x_max":0,"o":"m 669 653 b 443 703 601 690 522 703 b 49 342 167 703 49 524 b 117 126 49 261 72 182 b 156 85 135 104 147 93 l 65 -17 l 124 -68 l 219 39 b 449 -12 250 22 313 -12 b 840 346 747 -12 840 194 b 735 606 840 444 807 538 l 824 706 l 765 758 z m 318 263 b 306 344 308 292 306 325 b 447 524 306 438 343 524 b 528 496 461 524 494 524 z m 572 428 b 583 351 576 417 583 397 b 446 167 583 201 503 167 b 363 196 415 167 386 178 z m 326 782 l 457 782 l 707 997 l 443 997 z "},"ŕ":{"ha":685,"x_min":0,"x_max":0,"o":"m 76 690 l 76 0 l 321 0 l 321 297 b 482 461 369 431 419 461 b 594 408 525 461 557 444 l 685 653 b 539 703 642 679 603 703 b 321 524 421 703 343 585 l 321 690 z m 235 782 l 365 782 l 615 997 l 351 997 z "},"ř":{"ha":685,"x_min":0,"x_max":0,"o":"m 76 690 l 76 0 l 321 0 l 321 297 b 482 461 369 431 419 461 b 594 408 525 461 557 444 l 685 653 b 539 703 642 679 603 703 b 321 524 421 703 343 585 l 321 690 z m 74 1017 l 197 782 l 488 782 l 611 1017 l 465 1017 l 343 890 l 219 1017 z "},"ŗ":{"ha":685,"x_min":0,"x_max":0,"o":"m 76 690 l 76 0 l 321 0 l 321 297 b 482 461 369 431 419 461 b 594 408 525 461 557 444 l 685 653 b 539 703 642 679 603 703 b 321 524 421 703 343 585 l 321 690 z m 89 -244 b 201 -258 118 -251 157 -258 b 361 -144 301 -258 361 -204 b 140 -42 361 -85 328 -42 l 140 -110 b 200 -139 183 -110 200 -126 b 89 -165 200 -158 193 -171 z "},"ś":{"ha":672,"x_min":0,"x_max":0,"o":"m 582 647 b 344 703 474 703 361 703 b 64 496 153 703 64 593 b 226 293 64 389 153 325 b 374 193 336 246 374 228 b 282 143 374 154 326 143 b 75 215 197 143 125 186 l 75 42 b 342 -12 146 15 228 -12 b 618 201 533 -12 618 83 b 397 431 618 307 563 367 b 308 499 314 463 308 479 b 382 547 308 511 318 547 b 582 478 479 547 554 493 z m 215 782 l 346 782 l 596 997 l 332 997 z "},"ş":{"ha":672,"x_min":0,"x_max":0,"o":"m 582 647 b 344 703 474 703 361 703 b 64 496 153 703 64 593 b 226 293 64 389 153 325 b 374 193 336 246 374 228 b 282 143 374 154 326 143 b 75 215 197 143 125 186 l 75 42 b 267 -8 129 21 190 0 l 199 -101 b 264 -144 246 -104 264 -117 b 129 -199 264 -192 197 -199 l 129 -292 l 263 -292 b 486 -157 425 -292 486 -228 b 371 -40 486 -100 444 -58 l 385 -11 b 618 201 546 1 618 92 b 397 431 618 307 563 367 b 308 499 314 463 308 479 b 382 547 308 511 318 547 b 582 478 479 547 554 493 z "},"ŝ":{"ha":672,"x_min":0,"x_max":0,"o":"m 582 647 b 344 703 474 703 361 703 b 64 496 153 703 64 593 b 226 293 64 389 153 325 b 374 193 336 246 374 228 b 282 143 374 154 326 143 b 75 215 197 143 125 186 l 75 42 b 342 -12 146 15 228 -12 b 618 201 533 -12 618 83 b 397 431 618 307 563 367 b 308 499 314 463 308 479 b 382 547 308 511 318 547 b 582 478 479 547 554 493 z m 604 782 l 481 1017 l 190 1017 l 67 782 l 213 782 l 336 907 l 458 782 z "},"ș":{"ha":672,"x_min":0,"x_max":0,"o":"m 582 647 b 344 703 474 703 361 703 b 64 496 153 703 64 593 b 226 293 64 389 153 325 b 374 193 336 246 374 228 b 282 143 374 154 326 143 b 75 215 197 143 125 186 l 75 42 b 342 -12 146 15 228 -12 b 618 201 533 -12 618 83 b 397 431 618 307 563 367 b 308 499 314 463 308 479 b 382 547 308 511 318 547 b 582 478 479 547 554 493 z m 208 -244 b 321 -258 238 -251 276 -258 b 481 -144 421 -258 481 -204 b 260 -42 481 -85 447 -42 l 260 -110 b 319 -139 303 -110 319 -126 b 208 -165 319 -158 313 -171 z "},"ŧ":{"ha":651,"x_min":0,"x_max":0,"o":"m 604 304 l 604 419 l 371 419 l 371 521 l 604 521 l 604 690 l 371 690 l 371 897 l 343 897 l 15 564 l 15 521 l 126 521 l 126 419 l 15 419 l 15 304 l 126 304 l 126 246 b 390 -12 126 81 208 -12 b 622 40 479 -12 578 18 l 622 231 b 469 182 568 203 522 182 b 371 300 371 182 371 242 l 371 304 z "},"ť":{"ha":935,"x_min":0,"x_max":0,"o":"m 604 690 l 371 690 l 371 897 l 343 897 l 15 564 l 15 521 l 126 521 l 126 246 b 390 -12 126 81 208 -12 b 622 40 479 -12 578 18 l 622 231 b 469 182 568 203 522 182 b 371 300 371 182 371 242 l 371 521 l 604 521 z m 646 488 b 936 758 860 517 936 653 b 778 953 936 847 888 953 b 646 824 701 953 646 890 b 743 703 646 765 676 722 b 646 526 746 638 731 558 z "},"ţ":{"ha":651,"x_min":0,"x_max":0,"o":"m 604 690 l 371 690 l 371 897 l 343 897 l 15 564 l 15 521 l 126 521 l 126 246 b 390 -12 126 81 208 -12 b 622 40 479 -12 578 18 l 622 231 b 469 182 568 203 522 182 b 371 300 371 182 371 242 l 371 521 l 604 521 z m 263 -244 b 375 -258 292 -251 331 -258 b 535 -144 475 -258 535 -204 b 314 -42 535 -85 501 -42 l 314 -110 b 374 -139 357 -110 374 -126 b 263 -165 374 -158 367 -171 z "},"ț":{"ha":651,"x_min":0,"x_max":0,"o":"m 604 690 l 371 690 l 371 897 l 343 897 l 15 564 l 15 521 l 126 521 l 126 246 b 390 -12 126 81 208 -12 b 622 40 479 -12 578 18 l 622 231 b 469 182 568 203 522 182 b 371 300 371 182 371 242 l 371 521 l 604 521 z m 263 -244 b 375 -258 292 -251 331 -258 b 535 -144 475 -258 535 -204 b 314 -42 535 -85 501 -42 l 314 -110 b 374 -139 357 -110 374 -126 b 263 -165 374 -158 367 -171 z "},"ŭ":{"ha":883,"x_min":0,"x_max":0,"o":"m 806 0 l 806 690 l 561 690 l 561 285 b 413 176 543 258 496 176 b 313 332 307 176 313 288 l 313 690 l 68 690 l 68 285 b 317 -12 68 222 60 -12 b 561 99 426 -12 497 29 l 561 0 z m 185 1017 b 440 782 196 885 310 782 b 697 1017 582 782 682 901 l 576 1017 b 442 921 565 990 542 921 b 306 1017 344 921 314 999 z "},"ű":{"ha":883,"x_min":0,"x_max":0,"o":"m 806 0 l 806 690 l 561 690 l 561 285 b 413 176 543 258 496 176 b 313 332 307 176 313 288 l 313 690 l 68 690 l 68 285 b 317 -12 68 222 60 -12 b 561 99 426 -12 497 29 l 561 0 z m 497 782 l 628 782 l 878 997 l 614 997 z m 171 782 l 300 782 l 550 997 l 286 997 z "},"ū":{"ha":883,"x_min":0,"x_max":0,"o":"m 806 0 l 806 690 l 561 690 l 561 285 b 413 176 543 258 496 176 b 313 332 307 176 313 288 l 313 690 l 68 690 l 68 285 b 317 -12 68 222 60 -12 b 561 99 426 -12 497 29 l 561 0 z m 703 797 l 703 964 l 179 964 l 179 797 z "},"ų":{"ha":883,"x_min":0,"x_max":0,"o":"m 806 0 l 806 690 l 561 690 l 561 285 b 413 176 543 258 496 176 b 313 332 307 176 313 288 l 313 690 l 68 690 l 68 285 b 317 -12 68 222 60 -12 b 561 99 426 -12 497 29 l 561 0 l 621 0 b 593 -111 600 -37 593 -74 b 740 -271 593 -214 658 -271 b 861 -243 788 -271 824 -261 l 861 -126 b 801 -136 842 -133 835 -136 b 721 -69 754 -136 721 -100 b 736 0 721 -44 726 -21 z "},"ů":{"ha":883,"x_min":0,"x_max":0,"o":"m 806 0 l 806 690 l 561 690 l 561 285 b 413 176 543 258 496 176 b 313 332 307 176 313 288 l 313 690 l 68 690 l 68 285 b 317 -12 68 222 60 -12 b 561 99 426 -12 497 29 l 561 0 z m 440 1060 b 301 921 363 1060 301 999 b 440 781 301 843 363 781 b 581 921 518 781 581 843 b 440 1060 581 999 518 1060 z m 440 993 b 514 921 481 993 514 961 b 440 847 514 881 481 847 b 368 921 400 847 368 881 b 440 993 368 961 400 993 z "},"ũ":{"ha":883,"x_min":0,"x_max":0,"o":"m 806 0 l 806 690 l 561 690 l 561 285 b 413 176 543 258 496 176 b 313 332 307 176 313 288 l 313 690 l 68 690 l 68 285 b 317 -12 68 222 60 -12 b 561 99 426 -12 497 29 l 561 0 z m 600 999 b 547 939 600 974 585 939 b 449 969 528 939 489 954 b 331 999 407 983 364 999 b 172 782 265 999 172 939 l 281 782 b 336 840 283 807 296 840 b 550 782 381 840 481 782 b 710 999 646 782 710 858 z "},"ẃ":{"ha":1186,"x_min":0,"x_max":0,"o":"m 10 690 l 289 0 l 443 0 l 596 376 l 750 0 l 904 0 l 1176 690 l 932 690 l 810 342 l 674 690 l 518 690 l 383 342 l 257 690 z m 458 782 l 589 782 l 839 997 l 575 997 z "},"ŵ":{"ha":1186,"x_min":0,"x_max":0,"o":"m 10 690 l 289 0 l 443 0 l 596 376 l 750 0 l 904 0 l 1176 690 l 932 690 l 810 342 l 674 690 l 518 690 l 383 342 l 257 690 z m 861 782 l 738 1017 l 447 1017 l 324 782 l 469 782 l 593 907 l 715 782 z "},"ẅ":{"ha":1186,"x_min":0,"x_max":0,"o":"m 10 690 l 289 0 l 443 0 l 596 376 l 750 0 l 904 0 l 1176 690 l 932 690 l 810 342 l 674 690 l 518 690 l 383 342 l 257 690 z m 326 875 b 419 782 326 825 367 782 b 513 875 472 782 513 824 b 419 968 513 925 472 968 b 326 875 367 968 326 925 z m 672 875 b 765 782 672 825 711 782 b 858 875 818 782 858 824 b 765 968 858 925 818 968 b 672 875 711 968 672 925 z "},"ẁ":{"ha":1186,"x_min":0,"x_max":0,"o":"m 10 690 l 289 0 l 443 0 l 596 376 l 750 0 l 904 0 l 1176 690 l 932 690 l 810 342 l 674 690 l 518 690 l 383 342 l 257 690 z m 728 782 l 611 997 l 347 997 l 597 782 z "},"ŷ":{"ha":810,"x_min":0,"x_max":0,"o":"m 18 690 l 292 90 l 101 -314 l 349 -314 l 818 690 l 581 690 l 421 347 l 281 690 z m 674 782 l 550 1017 l 260 1017 l 136 782 l 282 782 l 406 907 l 528 782 z "},"ỳ":{"ha":810,"x_min":0,"x_max":0,"o":"m 18 690 l 292 90 l 101 -314 l 349 -314 l 818 690 l 581 690 l 421 347 l 281 690 z m 553 782 l 436 997 l 172 997 l 422 782 z "},"ź":{"ha":767,"x_min":0,"x_max":0,"o":"m 47 510 l 350 510 l 19 22 l 19 0 l 728 0 l 728 181 l 404 181 l 735 668 l 735 690 l 47 690 z m 235 782 l 365 782 l 615 997 l 351 997 z "},"ż":{"ha":767,"x_min":0,"x_max":0,"o":"m 47 510 l 350 510 l 19 22 l 19 0 l 728 0 l 728 181 l 404 181 l 735 668 l 735 690 l 47 690 z m 290 875 b 383 782 290 825 331 782 b 476 875 436 782 476 824 b 383 968 476 925 436 968 b 290 875 331 968 290 925 z "},"ĸ":{"ha":899,"x_min":0,"x_max":0,"o":"m 76 690 l 76 0 l 324 0 l 324 328 l 589 0 l 899 0 l 589 368 l 858 690 l 565 690 l 324 389 l 324 690 z "},"ŉ":{"ha":1176,"x_min":0,"x_max":0,"o":"m 57 524 b 301 800 204 539 301 672 b 165 960 301 913 225 960 b 49 850 108 960 49 918 b 119 743 49 839 50 774 b 57 565 128 650 78 590 z m 371 690 l 371 0 l 615 0 l 615 406 b 764 514 638 435 682 514 b 864 358 869 514 864 403 l 864 0 l 1108 0 l 1108 406 b 860 703 1108 468 1117 703 b 615 592 769 703 693 675 l 615 690 z "},"Δ":{"ha":1004,"x_min":0,"x_max":0,"o":"m 976 0 l 976 106 l 686 972 l 325 972 l 28 106 l 28 0 z m 663 201 l 326 201 l 483 704 b 494 742 488 717 492 729 b 497 731 494 738 496 735 b 506 701 500 721 501 710 z "},"∆":{"ha":1004,"x_min":0,"x_max":0,"o":"m 976 0 l 976 106 l 686 972 l 325 972 l 28 106 l 28 0 z m 663 201 l 326 201 l 483 704 b 494 742 488 717 492 729 b 497 731 494 738 496 735 b 506 701 500 721 501 710 z "},"Ω":{"ha":1029,"x_min":0,"x_max":0,"o":"m 978 0 l 978 200 l 796 200 b 981 564 900 281 981 390 b 524 989 981 803 825 989 b 49 558 240 989 49 807 b 232 200 49 372 144 268 l 53 200 l 53 0 l 465 0 l 465 192 b 331 507 400 253 331 350 b 519 772 331 668 399 772 b 697 513 635 772 697 668 b 564 192 697 356 631 258 l 564 0 z "},"Ω":{"ha":1029,"x_min":0,"x_max":0,"o":"m 978 0 l 978 200 l 796 200 b 981 564 900 281 981 390 b 524 989 981 803 825 989 b 49 558 240 989 49 807 b 232 200 49 372 144 268 l 53 200 l 53 0 l 465 0 l 465 192 b 331 507 400 253 331 350 b 519 772 331 668 399 772 b 697 513 635 772 697 668 b 564 192 697 356 631 258 l 564 0 z "},"μ":{"ha":883,"x_min":0,"x_max":0,"o":"m 313 21 b 429 -12 342 3 368 -12 b 561 38 508 -12 540 17 l 561 0 l 806 0 l 806 690 l 561 690 l 561 282 b 413 176 531 239 486 176 b 313 329 311 176 313 278 l 313 690 l 68 690 l 68 -314 l 313 -314 z "},"π":{"ha":942,"x_min":0,"x_max":0,"o":"m 878 182 b 833 165 861 171 850 165 b 794 258 803 165 794 204 l 794 524 l 904 524 l 904 703 l 258 703 b 14 639 176 703 75 681 l 81 485 b 176 522 110 503 149 518 l 176 229 b 149 0 176 146 168 72 l 392 0 b 415 217 407 57 415 117 l 415 524 l 554 524 l 554 226 b 768 -12 554 117 594 -12 b 922 29 833 -12 896 8 z "},"ℓ":{"ha":685,"x_min":0,"x_max":0,"o":"m 543 171 b 451 126 521 149 488 126 b 374 260 407 126 374 158 l 374 429 b 590 829 489 546 590 672 b 408 1011 590 910 544 1011 b 167 707 265 1011 167 908 l 167 436 l 40 321 l 96 228 l 167 293 l 167 231 b 392 -24 167 83 236 -24 b 597 53 474 -24 549 15 z m 476 803 b 374 581 476 738 431 640 l 374 749 b 432 861 374 826 394 861 b 476 803 464 861 476 833 z "},"℮":{"ha":918,"x_min":0,"x_max":0,"o":"m 811 383 b 429 783 803 607 668 783 b 56 383 197 783 56 606 b 431 -17 56 161 199 -17 b 761 178 586 -17 679 58 b 711 208 744 188 728 199 b 431 35 646 97 557 35 b 219 119 347 35 276 64 l 219 383 z m 642 435 l 219 435 l 219 646 b 428 733 276 704 346 733 b 642 644 510 733 583 703 z "},"∂":{"ha":800,"x_min":0,"x_max":0,"o":"m 779 625 b 435 1017 779 874 644 1017 b 221 957 350 1017 272 992 b 269 793 235 910 256 839 b 403 833 310 815 361 833 b 544 674 489 833 544 776 b 543 638 544 658 544 650 b 396 689 513 669 463 689 b 43 278 232 689 43 564 b 351 -15 43 108 168 -15 b 749 368 550 -15 690 149 b 779 625 769 449 779 536 z m 351 171 b 286 264 308 171 286 210 b 438 518 286 408 360 518 b 519 458 478 518 503 494 b 351 171 501 322 440 171 z "},"∏":{"ha":999,"x_min":0,"x_max":0,"o":"m 911 -317 l 911 958 l 88 958 l 88 -317 l 354 -317 l 354 722 l 643 722 l 643 -317 z "},"∑":{"ha":876,"x_min":0,"x_max":0,"o":"m 782 -317 l 782 -94 l 354 -94 l 632 333 l 367 738 l 761 738 l 761 958 l 46 958 l 46 804 l 356 329 l 28 -169 l 28 -317 z "},"∙":{"ha":390,"x_min":0,"x_max":0,"o":"m 197 617 b 50 471 118 617 50 553 b 197 325 50 390 118 325 b 342 471 278 325 342 390 b 197 617 342 551 278 617 z "},"√":{"ha":713,"x_min":0,"x_max":0,"o":"m 733 1011 l 568 1011 l 404 250 l 269 611 l 17 436 l 97 314 l 168 363 l 314 -17 l 507 -17 z "},"∞":{"ha":1065,"x_min":0,"x_max":0,"o":"m 1032 411 b 769 669 1032 558 919 669 b 533 546 661 669 576 603 b 294 669 476 618 397 669 b 33 408 171 669 33 581 b 294 142 33 226 171 142 b 531 265 393 142 475 196 b 771 142 594 185 682 142 b 1032 411 917 142 1032 253 z m 847 410 b 756 310 847 358 815 310 b 625 407 701 310 660 349 b 754 503 664 467 701 503 b 847 410 815 503 847 461 z m 311 310 b 218 407 254 310 218 354 b 310 503 218 458 253 503 b 439 407 364 503 404 461 b 311 310 407 357 364 310 z "},"∫":{"ha":682,"x_min":0,"x_max":0,"o":"m 568 851 b 588 921 575 875 581 899 b 613 1010 594 947 606 985 b 467 1042 585 1025 518 1042 b 192 732 271 1042 192 910 l 192 -39 b 122 -132 192 -100 168 -132 b 61 -119 104 -132 82 -126 b 32 -233 53 -151 40 -200 l 18 -293 b 161 -319 50 -308 117 -319 b 435 -14 360 -319 435 -186 l 435 760 b 503 853 435 825 461 853 b 550 844 519 853 538 849 z "},"≈":{"ha":810,"x_min":0,"x_max":0,"o":"m 657 731 b 540 643 632 690 588 643 b 421 686 503 643 471 657 b 263 728 374 714 324 728 b 35 579 154 728 93 663 l 157 432 b 272 526 188 488 228 526 b 389 485 314 526 353 508 b 547 442 440 450 501 442 b 769 579 647 442 708 486 z m 657 400 b 540 313 632 360 588 313 b 421 356 503 313 471 326 b 263 397 374 383 324 397 b 35 249 154 397 93 332 l 157 101 b 272 196 188 157 228 196 b 389 154 314 196 353 178 b 547 111 440 119 501 111 b 769 249 647 111 708 156 z "},"≠":{"ha":810,"x_min":0,"x_max":0,"o":"m 719 156 l 719 357 l 489 357 l 547 488 l 719 488 l 719 689 l 635 689 l 704 847 l 479 847 l 413 689 l 92 689 l 92 488 l 326 488 l 268 357 l 92 357 l 92 156 l 182 156 l 128 28 l 349 28 l 404 156 z "},"≤":{"ha":810,"x_min":0,"x_max":0,"o":"m 719 413 l 356 538 l 719 663 l 719 868 l 92 632 l 92 444 l 719 207 z m 719 0 l 719 182 l 92 182 l 92 0 z "},"≥":{"ha":810,"x_min":0,"x_max":0,"o":"m 92 207 l 719 444 l 719 632 l 92 868 l 92 663 l 456 538 l 92 413 z m 719 0 l 719 182 l 92 182 l 92 0 z "},"◊":{"ha":776,"x_min":0,"x_max":0,"o":"m 414 972 l 301 972 l 32 485 l 301 0 l 414 0 l 685 486 z m 503 486 l 358 218 l 214 486 l 358 756 z "}," ":{"ha":413,"x_min":0,"x_max":0,"o":""},"­":{"ha":681,"x_min":0,"x_max":0,"o":"m 118 463 l 118 236 l 563 236 l 563 463 z "},"ˉ":{"ha":463,"x_min":0,"x_max":0,"o":"m 493 797 l 493 964 l -31 964 l -31 797 z "},"":{"ha":825,"x_min":0,"x_max":0,"o":"m 46 469 b 413 -12 46 131 221 -12 b 779 469 604 -12 779 131 b 413 953 779 807 604 953 b 46 469 221 953 46 808 z m 314 469 b 413 754 314 576 314 754 b 511 469 511 754 511 576 b 413 188 511 343 511 188 b 314 469 314 188 314 343 z "},"":{"ha":451,"x_min":0,"x_max":0,"o":"m 354 0 l 354 940 l 97 940 l 97 0 z "},"":{"ha":451,"x_min":0,"x_max":0,"o":"m 354 0 l 354 940 l 97 940 l 97 0 z "},"":{"ha":803,"x_min":0,"x_max":0,"o":"m 756 211 l 451 211 b 576 376 496 264 539 321 b 685 663 608 425 685 529 b 376 953 685 844 550 953 b 72 844 229 953 133 883 l 72 622 b 301 742 131 683 208 742 b 435 596 378 742 435 685 b 260 261 435 467 343 358 b 42 18 189 178 110 83 l 42 0 l 756 0 z "},"":{"ha":724,"x_min":0,"x_max":0,"o":"m 44 56 b 346 -12 118 19 246 -12 b 657 261 468 -12 657 54 b 514 492 657 407 565 464 b 642 701 579 528 642 615 b 326 953 642 793 557 953 b 69 893 217 953 133 919 l 69 713 b 261 778 124 749 194 778 b 379 669 333 778 379 724 b 243 560 379 632 347 560 l 207 560 l 207 408 l 238 408 b 394 283 336 407 394 353 b 260 174 394 232 350 174 b 44 267 172 174 90 228 z "},"":{"ha":825,"x_min":0,"x_max":0,"o":"m 664 0 l 664 203 l 775 203 l 775 364 l 664 364 l 664 940 l 463 940 l 32 382 l 32 203 l 414 203 l 414 0 z m 181 364 l 414 665 l 414 364 z "},"":{"ha":772,"x_min":0,"x_max":0,"o":"m 675 940 l 131 940 l 131 392 b 272 419 154 401 199 419 b 451 293 415 419 451 350 b 326 182 451 257 431 182 b 67 281 239 182 114 246 l 67 78 b 379 -12 158 15 268 -12 b 714 294 606 -12 714 136 b 399 585 714 447 594 585 b 339 581 375 585 356 582 l 339 742 l 675 742 z "},"":{"ha":825,"x_min":0,"x_max":0,"o":"m 421 954 b 46 360 196 794 46 576 b 418 -12 46 171 171 -12 b 781 325 639 -12 781 151 b 476 631 781 511 640 631 b 414 624 450 631 429 628 b 653 878 474 714 561 800 z m 536 329 b 411 199 536 281 504 199 b 290 329 340 199 290 257 b 415 456 290 374 318 456 b 536 329 471 456 536 422 z "},"":{"ha":793,"x_min":0,"x_max":0,"o":"m 358 -12 l 760 913 l 760 940 l 47 940 l 47 732 l 428 732 l 140 57 z "},"":{"ha":825,"x_min":0,"x_max":0,"o":"m 197 485 b 46 253 104 439 46 349 b 413 -12 46 185 82 -12 b 779 253 736 -12 779 185 b 628 485 779 349 718 439 b 747 686 697 529 747 581 b 413 953 747 785 679 953 b 78 686 153 953 78 785 b 197 485 78 581 131 526 z m 413 543 b 315 668 364 543 315 592 b 415 794 315 718 338 794 b 510 668 490 794 510 711 b 413 543 510 592 461 543 z m 414 138 b 288 278 357 138 288 179 b 413 417 288 368 354 417 b 538 278 468 417 538 369 b 414 138 538 189 476 138 z "},"":{"ha":825,"x_min":0,"x_max":0,"o":"m 404 -14 b 779 581 629 146 779 364 b 407 953 779 769 654 953 b 44 615 186 953 44 789 b 349 310 44 429 185 310 b 411 317 375 310 396 313 b 172 63 351 226 264 140 z m 289 611 b 414 742 289 660 321 742 b 535 611 485 742 535 683 b 410 485 535 567 507 485 b 289 611 354 485 289 518 z "},"":{"ha":796,"x_min":0,"x_max":0,"o":"m 36 353 b 400 -12 36 121 207 -12 b 760 357 579 -12 760 107 b 401 724 760 583 607 724 b 36 353 204 724 36 576 z m 399 499 b 515 360 479 499 515 435 b 397 213 515 271 474 213 b 281 357 313 213 281 285 b 399 499 281 433 314 499 z "},"":{"ha":796,"x_min":0,"x_max":0,"o":"m 588 0 l 588 724 l 389 724 l 151 506 l 151 233 l 343 404 l 343 0 z "},"":{"ha":796,"x_min":0,"x_max":0,"o":"m 544 208 b 701 493 669 332 701 400 b 422 724 701 614 636 724 b 68 636 293 724 200 693 l 68 406 b 339 513 163 464 254 513 b 454 433 440 513 454 468 b 239 189 454 356 368 282 l 44 49 l 44 0 l 728 0 l 728 208 z "},"":{"ha":796,"x_min":0,"x_max":0,"o":"m 74 711 l 74 503 l 372 503 l 196 139 b 297 151 213 143 247 151 b 471 13 413 151 471 88 b 304 -114 471 -82 392 -114 b 68 -32 203 -114 138 -79 l 68 -268 b 322 -325 132 -293 211 -325 b 715 11 549 -325 715 -175 b 522 278 715 106 660 240 l 728 711 z "},"":{"ha":796,"x_min":0,"x_max":0,"o":"m 801 0 l 801 161 l 686 161 l 686 724 l 514 724 l -4 161 l -4 0 l 456 0 l 456 -325 l 686 -325 l 686 0 z m 233 161 l 456 406 l 456 161 z "},"":{"ha":796,"x_min":0,"x_max":0,"o":"m 746 711 l 225 711 l 129 113 b 260 121 179 121 242 121 b 474 -11 450 121 474 26 b 329 -114 474 -78 419 -114 b 72 -40 236 -114 161 -83 l 72 -275 b 322 -325 143 -299 215 -325 b 718 19 633 -325 718 -126 b 393 324 718 58 714 292 l 428 503 l 746 503 z "},"":{"ha":796,"x_min":0,"x_max":0,"o":"m 411 960 b 31 360 221 819 31 608 b 403 -12 31 128 199 -12 b 765 325 624 -12 765 151 b 467 631 765 517 611 631 b 397 624 440 631 417 628 b 639 879 424 679 522 776 z m 521 331 b 394 199 521 246 463 199 b 275 329 322 199 275 260 b 400 457 275 400 333 457 b 521 331 494 457 521 381 z "},"":{"ha":796,"x_min":0,"x_max":0,"o":"m 367 -243 l 768 682 l 768 711 l 56 711 l 56 503 l 436 503 l 147 -174 z "},"":{"ha":796,"x_min":0,"x_max":0,"o":"m 182 485 b 31 253 64 419 31 328 b 397 -12 31 149 100 -12 b 764 253 682 -12 764 133 b 614 485 764 318 736 424 b 733 686 663 510 733 575 b 399 953 733 797 647 953 b 63 686 129 953 63 785 b 182 485 63 583 133 507 z m 397 550 b 300 668 325 550 300 621 b 400 786 300 719 322 786 b 496 668 472 786 496 717 b 397 550 496 603 458 550 z m 397 175 b 275 293 329 175 275 225 b 397 411 275 361 329 411 b 519 293 465 411 519 361 b 397 175 519 225 465 175 z "},"":{"ha":796,"x_min":0,"x_max":0,"o":"m 385 -249 b 765 351 610 -89 765 135 b 393 724 765 540 642 724 b 31 386 172 724 31 560 b 336 81 31 204 175 81 b 399 88 363 81 379 85 b 157 -168 326 -19 257 -81 z m 275 381 b 401 513 275 465 333 513 b 521 382 474 513 521 451 b 396 254 521 325 476 254 b 275 381 301 254 275 331 z "},"":{"ha":492,"x_min":0,"x_max":0,"o":"m 17 242 b 244 -7 17 78 118 -7 b 474 242 372 -7 474 78 b 244 490 474 406 372 490 b 17 242 118 490 17 406 z m 186 242 b 244 381 186 306 193 381 b 304 242 296 381 304 306 b 244 104 304 169 294 104 b 186 242 192 104 186 178 z "},"":{"ha":492,"x_min":0,"x_max":0,"o":"m 331 0 l 331 478 l 161 478 l 161 0 z "},"":{"ha":492,"x_min":0,"x_max":0,"o":"m 465 125 l 300 125 b 424 338 374 204 424 258 b 233 490 424 414 367 490 b 46 435 150 490 92 460 l 46 299 b 189 367 63 314 122 367 b 260 306 233 367 260 342 b 154 140 260 250 213 199 b 28 24 114 100 72 60 l 28 0 l 465 0 z "},"":{"ha":492,"x_min":0,"x_max":0,"o":"m 53 29 b 232 -7 90 14 165 -7 b 431 138 340 -7 431 44 b 358 253 431 185 408 224 b 421 357 403 285 421 319 b 228 490 421 415 361 490 b 68 458 164 490 92 467 l 68 346 b 186 385 129 382 171 385 b 251 340 231 385 251 360 b 149 296 251 296 194 296 l 149 201 b 261 149 200 201 261 194 b 189 104 261 119 225 104 b 53 158 138 104 99 124 z "},"":{"ha":492,"x_min":0,"x_max":0,"o":"m 403 0 l 403 100 l 468 100 l 468 199 l 403 199 l 403 483 l 275 483 l 14 203 l 14 100 l 251 100 l 251 0 z m 131 199 l 251 328 l 251 199 z "},"":{"ha":492,"x_min":0,"x_max":0,"o":"m 444 478 l 119 478 l 90 203 b 169 215 108 208 132 215 b 274 158 246 215 274 189 b 193 108 274 128 247 108 b 57 143 146 108 88 129 l 57 31 b 238 -7 113 6 174 -7 b 449 150 376 -7 449 63 b 292 289 449 218 393 281 b 246 290 275 290 261 290 l 254 360 l 444 360 z "},"":{"ha":492,"x_min":0,"x_max":0,"o":"m 274 490 b 28 190 129 429 28 313 b 250 -7 28 89 100 -7 b 463 169 390 -7 463 86 b 265 325 463 274 363 332 b 410 435 301 367 351 403 z m 310 171 b 244 104 310 140 288 104 b 181 171 207 104 181 132 b 247 239 181 201 200 239 b 310 171 279 239 310 217 z "},"":{"ha":492,"x_min":0,"x_max":0,"o":"m 226 -4 l 474 465 l 474 478 l 33 478 l 33 346 l 228 346 l 63 25 z "},"":{"ha":492,"x_min":0,"x_max":0,"o":"m 108 247 b 15 132 50 228 15 185 b 246 -7 15 82 54 -7 b 476 132 440 -7 476 85 b 383 247 476 185 442 228 b 461 353 431 271 461 300 b 246 490 461 414 407 490 b 32 353 88 490 32 413 b 108 247 32 300 63 271 z m 246 289 b 197 342 219 289 197 310 b 246 394 197 368 210 394 b 296 342 282 394 296 365 b 246 289 296 310 274 289 z m 246 88 b 186 146 217 88 186 107 b 246 206 186 186 215 206 b 306 146 278 206 306 186 b 246 88 306 110 276 88 z "},"":{"ha":492,"x_min":0,"x_max":0,"o":"m 215 -7 b 461 293 360 54 461 171 b 239 490 461 394 389 490 b 26 314 99 490 26 397 b 224 158 26 210 126 151 b 79 49 188 117 138 81 z m 179 313 b 244 379 179 343 201 379 b 308 313 282 379 308 351 b 242 244 308 282 289 244 b 179 313 210 244 179 267 z "},"":{"ha":492,"x_min":0,"x_max":0,"o":"m 17 704 b 244 456 17 540 118 456 b 474 704 372 456 474 540 b 244 953 474 868 372 953 b 17 704 118 953 17 868 z m 186 704 b 244 843 186 768 193 843 b 304 704 296 843 304 768 b 244 567 304 632 294 567 b 186 704 192 567 186 640 z "},"":{"ha":492,"x_min":0,"x_max":0,"o":"m 331 463 l 331 940 l 161 940 l 161 463 z "},"":{"ha":492,"x_min":0,"x_max":0,"o":"m 465 588 l 300 588 b 424 800 374 667 424 721 b 233 953 424 876 367 953 b 46 897 150 953 92 922 l 46 761 b 189 829 63 776 122 829 b 260 768 233 829 260 804 b 154 603 260 713 213 661 b 28 486 114 563 72 522 l 28 463 l 465 463 z "},"":{"ha":492,"x_min":0,"x_max":0,"o":"m 53 492 b 232 456 90 476 165 456 b 431 600 340 456 431 507 b 358 715 431 647 408 686 b 421 819 403 747 421 782 b 228 953 421 878 361 953 b 68 921 164 953 92 929 l 68 808 b 186 847 129 844 171 847 b 251 803 231 847 251 822 b 149 758 251 758 194 758 l 149 664 b 261 611 200 664 261 657 b 189 567 261 582 225 567 b 53 621 138 567 99 586 z "},"":{"ha":492,"x_min":0,"x_max":0,"o":"m 403 463 l 403 563 l 468 563 l 468 661 l 403 661 l 403 946 l 275 946 l 14 665 l 14 563 l 251 563 l 251 463 z m 131 661 l 251 790 l 251 661 z "},"":{"ha":492,"x_min":0,"x_max":0,"o":"m 444 940 l 119 940 l 90 665 b 169 678 108 671 132 678 b 274 621 246 678 274 651 b 193 571 274 590 247 571 b 57 606 146 571 88 592 l 57 493 b 238 456 113 468 174 456 b 449 613 376 456 449 525 b 292 751 449 681 393 743 b 246 753 275 753 261 753 l 254 822 l 444 822 z "},"":{"ha":492,"x_min":0,"x_max":0,"o":"m 274 953 b 28 653 129 892 28 775 b 250 456 28 551 100 456 b 463 632 390 456 463 549 b 265 788 463 736 363 794 b 410 897 301 829 351 865 z m 310 633 b 244 567 310 603 288 567 b 181 633 207 567 181 594 b 247 701 181 664 200 701 b 310 633 279 701 310 679 z "},"":{"ha":492,"x_min":0,"x_max":0,"o":"m 226 458 l 474 928 l 474 940 l 33 940 l 33 808 l 228 808 l 63 488 z "},"":{"ha":492,"x_min":0,"x_max":0,"o":"m 108 710 b 15 594 50 690 15 647 b 246 456 15 544 54 456 b 476 594 440 456 476 547 b 383 710 476 647 442 690 b 461 815 431 733 461 763 b 246 953 461 876 407 953 b 32 815 88 953 32 875 b 108 710 32 763 63 733 z m 246 751 b 197 804 219 751 197 772 b 246 857 197 831 210 857 b 296 804 282 857 296 828 b 246 751 296 772 274 751 z m 246 550 b 186 608 217 550 186 569 b 246 668 186 649 215 668 b 306 608 278 668 306 649 b 246 550 306 572 276 550 z "},"":{"ha":492,"x_min":0,"x_max":0,"o":"m 215 456 b 461 756 360 517 461 633 b 239 953 461 857 389 953 b 26 776 99 953 26 860 b 224 621 26 672 126 614 b 79 511 188 579 138 543 z m 179 775 b 244 842 179 806 201 842 b 308 775 282 842 308 814 b 242 707 308 744 289 707 b 179 775 210 707 179 729 z "},"":{"ha":876,"x_min":0,"x_max":0,"o":"m 874 0 l 550 739 l 281 739 l 3 0 l 258 0 l 286 101 l 558 101 l 596 0 z m 504 251 l 329 251 l 406 493 z m 182 1075 b 438 840 193 943 307 840 b 694 1075 579 840 679 960 l 574 1075 b 439 979 563 1049 539 979 b 303 1075 342 979 311 1057 z "},"":{"ha":876,"x_min":0,"x_max":0,"o":"m 874 0 l 550 739 l 281 739 l 3 0 l 258 0 l 286 101 l 558 101 l 596 0 z m 504 251 l 329 251 l 406 493 z m 700 856 l 700 1022 l 176 1022 l 176 856 z "},"":{"ha":876,"x_min":0,"x_max":0,"o":"m 874 0 l 550 739 l 281 739 l 3 0 l 258 0 l 286 101 l 558 101 l 596 0 l 674 0 b 646 -111 653 -37 646 -74 b 793 -271 646 -214 711 -271 b 914 -243 840 -271 876 -261 l 914 -126 b 854 -136 894 -133 888 -136 b 774 -69 807 -136 774 -100 b 789 0 774 -44 779 -21 z m 504 251 l 329 251 l 406 493 z "},"":{"ha":1174,"x_min":0,"x_max":0,"o":"m 551 0 l 1118 0 l 1118 169 l 793 169 l 793 292 l 1093 292 l 1093 451 l 793 451 l 793 569 l 1110 569 l 1110 739 l 456 739 l 0 0 l 253 0 l 318 113 l 551 113 z m 404 282 l 551 526 l 551 282 z m 654 840 l 785 840 l 1035 1056 l 771 1056 z "},"":{"ha":825,"x_min":0,"x_max":0,"o":"m 756 690 b 506 749 718 711 642 749 b 47 368 201 749 47 575 b 478 -10 47 178 190 -10 b 764 71 615 -10 696 31 l 764 269 b 493 178 678 224 592 178 b 299 369 393 178 299 246 b 500 561 299 474 372 561 b 756 469 644 561 715 503 z m 347 840 l 478 840 l 728 1056 l 464 1056 z "},"":{"ha":825,"x_min":0,"x_max":0,"o":"m 756 690 b 506 749 718 711 642 749 b 47 368 201 749 47 575 b 478 -10 47 178 190 -10 b 764 71 615 -10 696 31 l 764 269 b 493 178 678 224 592 178 b 299 369 393 178 299 246 b 500 561 299 474 372 561 b 756 469 644 561 715 503 z m 200 1075 l 324 840 l 614 840 l 738 1075 l 592 1075 l 469 949 l 346 1075 z "},"":{"ha":825,"x_min":0,"x_max":0,"o":"m 756 690 b 506 749 718 711 642 749 b 47 368 201 749 47 575 b 478 -10 47 178 190 -10 b 764 71 615 -10 696 31 l 764 269 b 493 178 678 224 592 178 b 299 369 393 178 299 246 b 500 561 299 474 372 561 b 756 469 644 561 715 503 z m 744 840 l 621 1075 l 331 1075 l 207 840 l 353 840 l 476 965 l 599 840 z "},"":{"ha":825,"x_min":0,"x_max":0,"o":"m 756 690 b 506 749 718 711 642 749 b 47 368 201 749 47 575 b 478 -10 47 178 190 -10 b 764 71 615 -10 696 31 l 764 269 b 493 178 678 224 592 178 b 299 369 393 178 299 246 b 500 561 299 474 372 561 b 756 469 644 561 715 503 z m 389 933 b 482 840 389 883 429 840 b 575 933 535 840 575 882 b 482 1026 575 983 535 1026 b 389 933 429 1026 389 983 z "},"":{"ha":863,"x_min":0,"x_max":0,"o":"m 81 0 l 393 0 b 815 368 749 0 815 243 b 394 739 815 482 753 739 l 81 739 z m 322 551 l 400 551 b 564 368 494 551 564 490 b 400 188 564 274 510 188 l 322 188 z m 107 1075 l 231 840 l 521 840 l 644 1075 l 499 1075 l 376 949 l 253 1075 z "},"":{"ha":863,"x_min":0,"x_max":0,"o":"m 81 319 l 81 0 l 393 0 b 815 368 749 0 815 243 b 394 739 815 482 753 739 l 81 739 l 81 421 l 7 421 l 7 319 z m 321 319 l 439 319 l 439 421 l 321 421 l 321 551 l 400 551 b 564 368 526 551 564 450 b 400 188 564 292 526 188 l 321 188 z "},"":{"ha":713,"x_min":0,"x_max":0,"o":"m 649 739 l 81 739 l 81 0 l 657 0 l 657 169 l 322 169 l 322 299 l 633 299 l 633 458 l 322 458 l 322 569 l 649 569 z m 100 1075 b 356 840 111 943 225 840 b 613 1075 497 840 597 960 l 492 1075 b 357 979 481 1049 457 979 b 221 1075 260 979 229 1057 z "},"":{"ha":713,"x_min":0,"x_max":0,"o":"m 649 739 l 81 739 l 81 0 l 657 0 l 657 169 l 322 169 l 322 299 l 633 299 l 633 458 l 322 458 l 322 569 l 649 569 z m 88 1075 l 211 840 l 501 840 l 625 1075 l 479 1075 l 357 949 l 233 1075 z "},"":{"ha":713,"x_min":0,"x_max":0,"o":"m 649 739 l 81 739 l 81 0 l 657 0 l 657 169 l 322 169 l 322 299 l 633 299 l 633 458 l 322 458 l 322 569 l 649 569 z m 274 933 b 367 840 274 883 314 840 b 460 933 419 840 460 882 b 367 1026 460 983 419 1026 b 274 933 314 1026 274 983 z "},"":{"ha":713,"x_min":0,"x_max":0,"o":"m 649 739 l 81 739 l 81 0 l 657 0 l 657 169 l 322 169 l 322 299 l 633 299 l 633 458 l 322 458 l 322 569 l 649 569 z m 625 856 l 625 1022 l 101 1022 l 101 856 z "},"":{"ha":911,"x_min":0,"x_max":0,"o":"m 453 -6 b 532 -12 486 -11 513 -12 b 842 299 790 -12 842 110 l 842 454 b 574 750 842 668 721 750 b 324 633 433 750 360 671 l 324 739 l 82 739 l 82 0 l 322 0 l 322 436 b 493 561 361 511 422 561 b 601 388 564 561 601 506 l 601 324 b 506 164 601 239 590 164 b 464 168 499 164 478 165 z "},"":{"ha":713,"x_min":0,"x_max":0,"o":"m 649 739 l 81 739 l 81 0 l 431 0 b 403 -111 410 -37 403 -74 b 550 -271 403 -214 468 -271 b 671 -243 597 -271 633 -261 l 671 -126 b 611 -136 651 -133 644 -136 b 531 -69 564 -136 531 -100 b 546 0 531 -44 536 -21 l 657 0 l 657 169 l 322 169 l 322 299 l 633 299 l 633 458 l 322 458 l 322 569 l 649 569 z "},"":{"ha":874,"x_min":0,"x_max":0,"o":"m 786 697 b 508 749 689 728 617 749 b 47 368 193 749 47 569 b 482 -10 47 143 228 -10 b 804 89 642 -10 753 47 l 804 410 l 471 410 l 471 271 l 563 271 l 563 188 b 488 178 532 179 515 178 b 299 365 378 178 299 239 b 506 561 299 485 378 561 b 786 501 621 561 719 526 z m 243 1075 b 499 840 254 943 368 840 b 756 1075 640 840 740 960 l 635 1075 b 500 979 624 1049 600 979 b 364 1075 403 979 372 1057 z "},"":{"ha":874,"x_min":0,"x_max":0,"o":"m 786 697 b 508 749 689 728 617 749 b 47 368 193 749 47 569 b 482 -10 47 143 228 -10 b 804 89 642 -10 753 47 l 804 410 l 471 410 l 471 271 l 563 271 l 563 188 b 488 178 532 179 515 178 b 299 365 378 178 299 239 b 506 561 299 485 378 561 b 786 501 621 561 719 526 z m 767 840 l 643 1075 l 353 1075 l 229 840 l 375 840 l 499 965 l 621 840 z "},"":{"ha":874,"x_min":0,"x_max":0,"o":"m 786 697 b 508 749 689 728 617 749 b 47 368 193 749 47 569 b 482 -10 47 143 228 -10 b 804 89 642 -10 753 47 l 804 410 l 471 410 l 471 271 l 563 271 l 563 188 b 488 178 532 179 515 178 b 299 365 378 178 299 239 b 506 561 299 485 378 561 b 786 501 621 561 719 526 z m 296 -314 b 436 -335 342 -326 388 -335 b 658 -210 568 -335 658 -292 b 410 -78 658 -103 567 -78 l 326 -78 l 319 -154 b 438 -192 379 -154 438 -157 b 332 -236 438 -224 414 -236 b 296 -235 317 -236 308 -236 z "},"":{"ha":874,"x_min":0,"x_max":0,"o":"m 786 697 b 508 749 689 728 617 749 b 47 368 193 749 47 569 b 482 -10 47 143 228 -10 b 804 89 642 -10 753 47 l 804 410 l 471 410 l 471 271 l 563 271 l 563 188 b 488 178 532 179 515 178 b 299 365 378 178 299 239 b 506 561 299 485 378 561 b 786 501 621 561 719 526 z m 404 933 b 497 840 404 883 444 840 b 590 933 550 840 590 882 b 497 1026 590 983 550 1026 b 404 933 444 1026 404 983 z "},"":{"ha":911,"x_min":0,"x_max":0,"o":"m 15 557 l 81 557 l 81 0 l 322 0 l 322 271 l 589 271 l 589 0 l 831 0 l 831 557 l 896 557 l 896 658 l 831 658 l 831 739 l 589 739 l 589 658 l 322 658 l 322 739 l 81 739 l 81 658 l 15 658 z m 322 468 l 322 557 l 589 557 l 589 468 z "},"":{"ha":911,"x_min":0,"x_max":0,"o":"m 81 739 l 81 0 l 322 0 l 322 271 l 589 271 l 589 0 l 831 0 l 831 739 l 589 739 l 589 468 l 322 468 l 322 739 z m 724 840 l 600 1075 l 310 1075 l 186 840 l 332 840 l 456 965 l 578 840 z "},"":{"ha":403,"x_min":0,"x_max":0,"o":"m 322 739 l 81 739 l 81 0 l 322 0 z m -54 1075 b 201 840 -43 943 71 840 b 458 1075 343 840 443 960 l 338 1075 b 203 979 326 1049 303 979 b 67 1075 106 979 75 1057 z "},"":{"ha":403,"x_min":0,"x_max":0,"o":"m 322 739 l 81 739 l 81 0 l 322 0 z m 464 856 l 464 1022 l -60 1022 l -60 856 z "},"":{"ha":403,"x_min":0,"x_max":0,"o":"m 322 739 l 81 739 l 81 0 l 135 0 b 107 -111 114 -37 107 -74 b 254 -271 107 -214 172 -271 b 375 -243 301 -271 338 -261 l 375 -126 b 315 -136 356 -133 349 -136 b 235 -69 268 -136 235 -100 b 250 0 235 -44 240 -21 l 322 0 z "},"":{"ha":403,"x_min":0,"x_max":0,"o":"m 322 739 l 81 739 l 81 0 l 322 0 z m 361 1057 b 308 997 361 1032 346 997 b 210 1028 289 997 250 1013 b 92 1057 168 1042 125 1057 b -67 840 26 1057 -67 997 l 42 840 b 97 899 44 865 57 899 b 311 840 142 899 242 840 b 471 1057 407 840 471 917 z "},"":{"ha":422,"x_min":0,"x_max":0,"o":"m 100 129 b -19 -46 100 -7 103 -46 l -61 -46 l -35 -236 b 63 -246 -1 -242 24 -246 b 342 111 301 -246 342 -76 l 342 739 l 100 739 z m 490 840 l 367 1075 l 76 1075 l -47 840 l 99 840 l 222 965 l 344 840 z "},"":{"ha":863,"x_min":0,"x_max":0,"o":"m 278 -314 b 418 -335 324 -326 369 -335 b 640 -210 550 -335 640 -292 b 392 -78 640 -103 549 -78 l 308 -78 l 301 -154 b 419 -192 361 -154 419 -157 b 314 -236 419 -224 396 -236 b 278 -235 299 -236 290 -236 z m 81 739 l 81 0 l 322 0 l 322 296 l 560 0 l 863 0 l 539 404 l 788 739 l 528 739 l 322 469 l 322 739 z "},"":{"ha":700,"x_min":0,"x_max":0,"o":"m 81 739 l 81 0 l 675 0 l 675 197 l 322 197 l 322 739 z m 160 840 l 290 840 l 540 1056 l 276 1056 z "},"":{"ha":700,"x_min":0,"x_max":0,"o":"m 429 340 b 686 581 618 367 686 488 b 546 753 686 660 644 753 b 429 639 478 753 429 699 b 515 532 429 586 456 549 b 429 375 518 474 504 403 z m 81 739 l 81 0 l 675 0 l 675 197 l 322 197 l 322 739 z "},"":{"ha":700,"x_min":0,"x_max":0,"o":"m 203 -314 b 343 -335 249 -326 294 -335 b 565 -210 475 -335 565 -292 b 317 -78 565 -103 474 -78 l 233 -78 l 226 -154 b 344 -192 286 -154 344 -157 b 239 -236 344 -224 321 -236 b 203 -235 224 -236 215 -236 z m 81 739 l 81 0 l 675 0 l 675 197 l 322 197 l 322 739 z "},"":{"ha":700,"x_min":0,"x_max":0,"o":"m 81 739 l 81 0 l 675 0 l 675 197 l 322 197 l 322 739 z m 524 578 b 410 464 463 578 410 529 b 524 351 410 403 461 351 b 639 464 586 351 639 403 b 524 578 639 529 586 578 z "},"":{"ha":904,"x_min":0,"x_max":0,"o":"m 81 739 l 81 0 l 322 0 l 322 363 l 625 0 l 824 0 l 824 739 l 582 739 l 582 400 l 294 739 z m 317 840 l 447 840 l 697 1056 l 433 1056 z "},"":{"ha":904,"x_min":0,"x_max":0,"o":"m 81 739 l 81 0 l 322 0 l 322 363 l 625 0 l 824 0 l 824 739 l 582 739 l 582 400 l 294 739 z m 183 1075 l 307 840 l 597 840 l 721 1075 l 575 1075 l 453 949 l 329 1075 z "},"":{"ha":904,"x_min":0,"x_max":0,"o":"m 294 -314 b 435 -335 340 -326 386 -335 b 657 -210 567 -335 657 -292 b 408 -78 657 -103 565 -78 l 325 -78 l 318 -154 b 436 -192 378 -154 436 -157 b 331 -236 436 -224 413 -236 b 294 -235 315 -236 307 -236 z m 81 739 l 81 0 l 322 0 l 322 363 l 625 0 l 824 0 l 824 739 l 582 739 l 582 400 l 294 739 z "},"":{"ha":926,"x_min":0,"x_max":0,"o":"m 47 368 b 463 -10 47 146 238 -10 b 879 371 704 -10 879 164 b 461 749 879 600 669 749 b 47 368 217 749 47 561 z m 463 533 b 628 369 553 533 628 460 b 463 206 628 279 553 206 b 299 369 372 206 299 279 b 463 533 299 460 372 533 z m 207 1075 b 463 840 218 943 332 840 b 719 1075 604 840 704 960 l 599 1075 b 464 979 588 1049 564 979 b 328 1075 367 979 336 1057 z "},"":{"ha":926,"x_min":0,"x_max":0,"o":"m 47 368 b 463 -10 47 146 238 -10 b 879 371 704 -10 879 164 b 461 749 879 600 669 749 b 47 368 217 749 47 561 z m 463 533 b 628 369 553 533 628 460 b 463 206 628 279 553 206 b 299 369 372 206 299 279 b 463 533 299 460 372 533 z m 519 840 l 650 840 l 900 1056 l 636 1056 z m 193 840 l 322 840 l 572 1056 l 308 1056 z "},"":{"ha":926,"x_min":0,"x_max":0,"o":"m 47 368 b 463 -10 47 146 238 -10 b 879 371 704 -10 879 164 b 461 749 879 600 669 749 b 47 368 217 749 47 561 z m 463 533 b 628 369 553 533 628 460 b 463 206 628 279 553 206 b 299 369 372 206 299 279 b 463 533 299 460 372 533 z m 725 856 l 725 1022 l 201 1022 l 201 856 z "},"":{"ha":926,"x_min":0,"x_max":0,"o":"m 318 292 b 463 533 267 382 325 533 b 540 514 504 533 528 521 z m 144 119 l 67 42 l 128 -19 l 211 64 b 463 -10 282 19 354 -10 b 879 371 703 -10 879 157 b 775 622 879 485 843 563 l 847 694 l 785 757 l 706 678 b 461 749 656 711 583 749 b 47 368 189 749 47 536 b 144 119 47 249 103 167 z m 376 231 l 603 456 b 467 206 681 319 561 206 b 376 231 432 206 396 217 z m 344 840 l 475 840 l 725 1056 l 461 1056 z "},"":{"ha":813,"x_min":0,"x_max":0,"o":"m 81 0 l 322 0 l 322 258 l 403 258 b 476 210 436 258 456 249 b 547 0 493 179 529 65 l 807 0 b 742 163 774 79 767 99 b 653 318 703 261 683 296 b 750 508 722 364 750 446 b 432 739 750 622 696 739 l 81 739 z m 322 572 l 396 572 b 499 489 460 572 499 540 b 394 404 499 438 460 404 l 322 404 z m 243 840 l 374 840 l 624 1056 l 360 1056 z "},"":{"ha":813,"x_min":0,"x_max":0,"o":"m 81 0 l 322 0 l 322 258 l 403 258 b 476 210 436 258 456 249 b 547 0 493 179 529 65 l 807 0 b 742 163 774 79 767 99 b 653 318 703 261 683 296 b 750 508 722 364 750 446 b 432 739 750 622 696 739 l 81 739 z m 322 572 l 396 572 b 499 489 460 572 499 540 b 394 404 499 438 460 404 l 322 404 z m 138 1075 l 261 840 l 551 840 l 675 1075 l 529 1075 l 407 949 l 283 1075 z "},"":{"ha":813,"x_min":0,"x_max":0,"o":"m 81 0 l 322 0 l 322 258 l 403 258 b 476 210 436 258 456 249 b 547 0 493 179 529 65 l 807 0 b 742 163 774 79 767 99 b 653 318 703 261 683 296 b 750 508 722 364 750 446 b 432 739 750 622 696 739 l 81 739 z m 322 572 l 396 572 b 499 489 460 572 499 540 b 394 404 499 438 460 404 l 322 404 z m 240 -314 b 381 -335 286 -326 332 -335 b 603 -210 513 -335 603 -292 b 354 -78 603 -103 511 -78 l 271 -78 l 264 -154 b 382 -192 324 -154 382 -157 b 276 -236 382 -224 358 -236 b 240 -235 261 -236 253 -236 z "},"":{"ha":681,"x_min":0,"x_max":0,"o":"m 610 693 b 340 749 535 722 460 749 b 44 528 122 749 44 625 b 240 304 44 463 68 367 b 399 200 400 246 399 226 b 350 163 399 178 381 163 b 58 258 282 163 213 172 l 58 51 b 346 -10 149 11 246 -10 b 640 217 517 -10 640 83 b 451 432 640 285 615 368 b 283 526 328 481 283 490 b 356 582 283 551 300 582 b 610 504 471 582 557 531 z m 206 840 l 336 840 l 586 1056 l 322 1056 z "},"":{"ha":681,"x_min":0,"x_max":0,"o":"m 610 693 b 340 749 535 722 460 749 b 44 528 122 749 44 625 b 240 304 44 463 68 367 b 399 200 400 246 399 226 b 350 163 399 178 381 163 b 58 258 282 163 213 172 l 58 51 b 286 -7 131 19 207 0 l 217 -101 b 282 -144 264 -104 282 -117 b 147 -199 282 -192 215 -199 l 147 -292 l 281 -292 b 504 -157 443 -292 504 -228 b 389 -40 504 -100 463 -58 l 406 -6 b 640 217 544 13 640 99 b 451 432 640 285 615 368 b 283 526 328 481 283 490 b 356 582 283 551 300 582 b 610 504 471 582 557 531 z "},"":{"ha":681,"x_min":0,"x_max":0,"o":"m 610 693 b 340 749 535 722 460 749 b 44 528 122 749 44 625 b 240 304 44 463 68 367 b 399 200 400 246 399 226 b 350 163 399 178 381 163 b 58 258 282 163 213 172 l 58 51 b 346 -10 149 11 246 -10 b 640 217 517 -10 640 83 b 451 432 640 285 615 368 b 283 526 328 481 283 490 b 356 582 283 551 300 582 b 610 504 471 582 557 531 z m 597 840 l 474 1075 l 183 1075 l 60 840 l 206 840 l 329 965 l 451 840 z "},"":{"ha":681,"x_min":0,"x_max":0,"o":"m 610 693 b 340 749 535 722 460 749 b 44 528 122 749 44 625 b 240 304 44 463 68 367 b 399 200 400 246 399 226 b 350 163 399 178 381 163 b 58 258 282 163 213 172 l 58 51 b 346 -10 149 11 246 -10 b 640 217 517 -10 640 83 b 451 432 640 285 615 368 b 283 526 328 481 283 490 b 356 582 283 551 300 582 b 610 504 471 582 557 531 z m 171 -314 b 311 -335 217 -326 263 -335 b 533 -210 443 -335 533 -292 b 285 -78 533 -103 442 -78 l 201 -78 l 194 -154 b 313 -192 254 -154 313 -157 b 207 -236 313 -224 289 -236 b 171 -235 192 -236 183 -236 z "},"":{"ha":794,"x_min":0,"x_max":0,"o":"m 761 739 l 33 739 l 33 533 l 276 533 l 276 374 l 57 374 l 57 258 l 276 258 l 276 0 l 518 0 l 518 258 l 738 258 l 738 374 l 518 374 l 518 533 l 761 533 z "},"":{"ha":794,"x_min":0,"x_max":0,"o":"m 761 739 l 33 739 l 33 533 l 276 533 l 276 0 l 518 0 l 518 533 l 761 533 z m 128 1017 l 251 782 l 542 782 l 665 1017 l 519 1017 l 397 890 l 274 1017 z "},"":{"ha":794,"x_min":0,"x_max":0,"o":"m 236 -314 b 376 -335 282 -326 328 -335 b 599 -210 508 -335 599 -292 b 350 -78 599 -103 507 -78 l 267 -78 l 260 -154 b 378 -192 319 -154 378 -157 b 272 -236 378 -224 354 -236 b 236 -235 257 -236 249 -236 z m 761 739 l 33 739 l 33 533 l 276 533 l 276 0 l 518 0 l 518 533 l 761 533 z "},"":{"ha":897,"x_min":0,"x_max":0,"o":"m 72 739 l 72 325 b 444 -10 72 92 225 -10 b 825 332 669 -10 825 79 l 825 739 l 582 739 l 582 361 b 454 206 582 256 538 206 b 315 368 365 206 315 269 l 315 739 z m 192 1075 b 447 840 203 943 317 840 b 704 1075 589 840 689 960 l 583 1075 b 449 979 572 1049 549 979 b 313 1075 351 979 321 1057 z "},"":{"ha":897,"x_min":0,"x_max":0,"o":"m 72 739 l 72 325 b 444 -10 72 92 225 -10 b 825 332 669 -10 825 79 l 825 739 l 582 739 l 582 361 b 454 206 582 256 538 206 b 315 368 365 206 315 269 l 315 739 z m 504 840 l 635 840 l 885 1056 l 621 1056 z m 178 840 l 307 840 l 557 1056 l 293 1056 z "},"":{"ha":897,"x_min":0,"x_max":0,"o":"m 72 739 l 72 325 b 444 -10 72 92 225 -10 b 825 332 669 -10 825 79 l 825 739 l 582 739 l 582 361 b 454 206 582 256 538 206 b 315 368 365 206 315 269 l 315 739 z m 710 856 l 710 1022 l 186 1022 l 186 856 z "},"":{"ha":897,"x_min":0,"x_max":0,"o":"m 72 739 l 72 325 b 381 -7 72 115 196 11 b 356 -111 363 -42 356 -76 b 503 -271 356 -214 421 -271 b 624 -243 550 -271 586 -261 l 624 -126 b 564 -136 604 -133 597 -136 b 483 -69 517 -136 483 -100 b 494 -8 483 -47 488 -26 b 825 332 692 4 825 99 l 825 739 l 582 739 l 582 361 b 454 206 582 256 538 206 b 315 368 365 206 315 269 l 315 739 z "},"":{"ha":897,"x_min":0,"x_max":0,"o":"m 72 739 l 72 325 b 444 -10 72 92 225 -10 b 825 332 669 -10 825 79 l 825 739 l 582 739 l 582 361 b 454 206 582 256 538 206 b 315 368 365 206 315 269 l 315 739 z m 447 1118 b 308 979 369 1118 308 1057 b 447 839 308 901 369 839 b 588 979 525 839 588 901 b 447 1118 588 1057 525 1118 z m 447 1051 b 521 979 488 1051 521 1019 b 447 906 521 939 488 906 b 375 979 407 906 375 939 b 447 1051 375 1019 407 1051 z "},"":{"ha":897,"x_min":0,"x_max":0,"o":"m 72 739 l 72 325 b 444 -10 72 92 225 -10 b 825 332 669 -10 825 79 l 825 739 l 582 739 l 582 361 b 454 206 582 256 538 206 b 315 368 365 206 315 269 l 315 739 z m 607 1057 b 554 997 607 1032 592 997 b 456 1028 535 997 496 1013 b 338 1057 414 1042 371 1057 b 179 840 272 1057 179 997 l 288 840 b 343 899 290 865 303 899 b 557 840 388 899 488 840 b 717 1057 653 840 717 917 z "},"":{"ha":1293,"x_min":0,"x_max":0,"o":"m 715 739 l 576 739 l 413 369 l 249 739 l 0 739 l 354 -10 l 457 -10 l 646 424 l 836 -10 l 938 -10 l 1293 739 l 1043 739 l 879 369 z m 556 840 l 686 840 l 936 1056 l 672 1056 z "},"":{"ha":1293,"x_min":0,"x_max":0,"o":"m 715 739 l 576 739 l 413 369 l 249 739 l 0 739 l 354 -10 l 457 -10 l 646 424 l 836 -10 l 938 -10 l 1293 739 l 1043 739 l 879 369 z m 915 840 l 792 1075 l 501 1075 l 378 840 l 524 840 l 647 965 l 769 840 z "},"":{"ha":1293,"x_min":0,"x_max":0,"o":"m 715 739 l 576 739 l 413 369 l 249 739 l 0 739 l 354 -10 l 457 -10 l 646 424 l 836 -10 l 938 -10 l 1293 739 l 1043 739 l 879 369 z m 381 933 b 474 840 381 883 421 840 b 567 933 526 840 567 882 b 474 1026 567 983 526 1026 b 381 933 421 1026 381 983 z m 726 933 b 819 840 726 883 765 840 b 913 933 872 840 913 882 b 819 1026 913 983 872 1026 b 726 933 765 1026 726 983 z "},"":{"ha":1293,"x_min":0,"x_max":0,"o":"m 715 739 l 576 739 l 413 369 l 249 739 l 0 739 l 354 -10 l 457 -10 l 646 424 l 836 -10 l 938 -10 l 1293 739 l 1043 739 l 879 369 z m 754 840 l 638 1056 l 374 1056 l 624 840 z "},"":{"ha":818,"x_min":0,"x_max":0,"o":"m 0 739 l 289 290 l 289 0 l 531 0 l 531 290 l 818 739 l 557 739 l 408 472 l 261 739 z m 678 840 l 554 1075 l 264 1075 l 140 840 l 286 840 l 410 965 l 532 840 z "},"":{"ha":818,"x_min":0,"x_max":0,"o":"m 0 739 l 289 290 l 289 0 l 531 0 l 531 290 l 818 739 l 557 739 l 408 472 l 261 739 z m 531 840 l 414 1056 l 150 1056 l 400 840 z "},"":{"ha":776,"x_min":0,"x_max":0,"o":"m 751 0 l 751 200 l 396 200 l 740 739 l 43 739 l 43 539 l 369 539 l 19 0 z m 253 840 l 383 840 l 633 1056 l 369 1056 z "},"":{"ha":776,"x_min":0,"x_max":0,"o":"m 751 0 l 751 200 l 396 200 l 740 739 l 43 739 l 43 539 l 369 539 l 19 0 z m 294 933 b 388 840 294 883 335 840 b 481 933 440 840 481 882 b 388 1026 481 983 440 1026 b 294 933 335 1026 294 983 z "},"":{"ha":403,"x_min":0,"x_max":0,"o":"m 322 739 l 81 739 l 81 0 l 322 0 z m 108 933 b 201 840 108 883 149 840 b 294 933 254 840 294 882 b 201 1026 294 983 254 1026 b 108 933 149 1026 108 983 z "},"":{"ha":825,"x_min":0,"x_max":0,"o":"m 379 953 b 172 744 319 836 260 790 l 172 551 b 308 613 217 563 256 576 l 308 0 l 565 0 l 565 953 z "},"":{"ha":825,"x_min":0,"x_max":0,"o":"m 322 739 l 81 739 l 81 0 l 322 0 z m 503 129 b 383 -46 503 -7 506 -46 l 342 -46 l 368 -236 b 465 -246 401 -242 426 -246 b 744 111 704 -246 744 -76 l 744 739 l 503 739 z "},"Ə":{"ha":1182,"x_min":0,"x_max":0,"o":"m 538 735 b 796 594 644 735 744 675 l 72 594 b 57 471 63 554 57 513 b 590 -12 57 228 222 -12 b 1124 471 946 -12 1124 213 b 590 953 1124 725 949 953 b 219 869 467 953 343 933 l 219 660 b 538 735 275 694 386 735 z m 590 229 b 364 367 478 229 397 282 l 815 367 b 590 229 782 283 704 229 z "},"ə":{"ha":828,"x_min":0,"x_max":0,"o":"m 49 356 b 390 -12 49 78 236 -12 b 786 342 654 -12 786 142 b 404 703 786 542 668 703 b 150 629 264 703 185 654 l 150 478 b 353 547 222 522 274 547 b 549 404 446 547 531 490 l 49 404 z m 556 283 b 413 138 556 196 492 138 b 278 283 331 138 278 196 z "}}}
